<svg xmlns="http://www.w3.org/2000/svg" viewBox="0 0 114.74 459.35"><defs><style>.cls-1{fill:#fff;}</style></defs><g id="Capa_2" data-name="Capa 2"><g id="Capa_1-2" data-name="Capa 1"><g id="Capa_2-2" data-name="Capa 2"><g id="Capa_1-2-2" data-name="Capa 1-2"><path class="cls-1" d="M53.26,457.53a6.62,6.62,0,0,0,4.24,1.82,6.57,6.57,0,0,0,4.24-1.82l51.44-51.44a6,6,0,0,0-8.47-8.48L63.55,438.77V6a5.72,5.72,0,0,0-5.42-6h-.58a5.72,5.72,0,0,0-6,5.42q0,.31,0,.63v432.1L10.29,397a5.85,5.85,0,0,0-8.27-.2l-.2.2a5.82,5.82,0,0,0-.22,8.24l.22.23Z"/></g></g></g></g></svg>