<svg xmlns="http://www.w3.org/2000/svg" viewBox="0 0 276.69 325.04"><defs><style>.cls-1{fill:#fff;}</style></defs><g id="Capa_2" data-name="Capa 2"><g id="Capa_1-2" data-name="Capa 1"><path class="cls-1" d="M130.23,198.15V136.49a11.91,11.91,0,0,0-6.15-22.12H88.34a11.91,11.91,0,0,0-5.42,22.52V198a65.68,65.68,0,1,0,47.31.11ZM88.34,122h35.74a4.33,4.33,0,1,1,0,8.65H88.34a4.33,4.33,0,0,1,0-8.65Zm-.41,82.34,2.59-.87V138.21h32.11v65.31l2.57.88a58.08,58.08,0,0,1,36,35.57c-26.84-8.56-91.87-3-109-1.33A58,58,0,0,1,87.93,204.31Zm18.5,113.13a58.15,58.15,0,0,1-58.08-58.08c0-1.47.06-2.94.17-4.39,7.79,2.27,24.39,4.25,44.7,5.44,20.86,1.23,59.92-3.28,71.17-4.66.08,1.2.12,2.4.12,3.61A58.14,58.14,0,0,1,106.43,317.44Z"/><path class="cls-1" d="M232.75,124.12H192.68a11.91,11.91,0,0,0-6.87,21.65V298.86a26.19,26.19,0,0,0,52.37,0V146.64a11.91,11.91,0,0,0-5.43-22.52Zm-40.07,7.59h40.07a4.33,4.33,0,1,1,0,8.65H192.68a4.33,4.33,0,1,1,0-8.65ZM212,174c-6.43,0-13.44.79-18.58,2.71V148h37.17v28.79C225.43,174.83,218.43,174,212,174Zm17.76,10.61c-2.42,1.31-8.59,3-17.76,3s-15.33-1.7-17.75-3c2.42-1.31,8.59-3,17.75-3S227.33,183.34,229.75,184.65ZM212,317.44a18.61,18.61,0,0,1-18.58-18.58V192.55c5.14,1.92,12.15,2.7,18.58,2.7s13.44-.78,18.59-2.7v18.21H210.19a3.8,3.8,0,0,0,0,7.6h20.39v2.51h-9.92a3.8,3.8,0,1,0,0,7.6h9.92v5.6H210.19a3.8,3.8,0,1,0,0,7.59h20.39v2.51h-9.92a3.8,3.8,0,1,0,0,7.6h9.92v5H210.19a3.8,3.8,0,1,0,0,7.6h20.39v2.51h-9.92a3.8,3.8,0,0,0,0,7.6h9.92v5.71H210.19a3.8,3.8,0,0,0,0,7.6h20.39v11A18.61,18.61,0,0,1,212,317.44Z"/><path class="cls-1" d="M110.91,175.76a3.8,3.8,0,0,0,3.8-3.8v-27.8a3.8,3.8,0,0,0-7.6,0V172A3.8,3.8,0,0,0,110.91,175.76Z"/><path class="cls-1" d="M110.91,200a3.8,3.8,0,0,0,3.8-3.8V183.9a3.8,3.8,0,0,0-7.6,0v12.33A3.8,3.8,0,0,0,110.91,200Z"/><path class="cls-1" d="M150,275a3.8,3.8,0,0,0-5,1.91A35.24,35.24,0,0,1,138.1,287a3.76,3.76,0,0,0-1,3.3,3.81,3.81,0,0,0-3.41.65c-12.86,10.09-29.91,12.63-30.17,12.66a3.8,3.8,0,0,0,.52,7.56,4.58,4.58,0,0,0,.53,0c.78-.11,19.27-2.8,33.81-14.21a3.78,3.78,0,0,0,1.38-3.66,3.92,3.92,0,0,0,1.07.17,3.8,3.8,0,0,0,2.73-1.16A42.86,42.86,0,0,0,151.92,280,3.8,3.8,0,0,0,150,275Z"/><path class="cls-1" d="M65.36,234.24a3.76,3.76,0,0,0,2.22.73,3.8,3.8,0,0,0,3.08-1.57c.07-.1,7.28-9.94,16.59-15.59a3.8,3.8,0,1,0-4-6.49c-10.64,6.46-18.46,17.17-18.79,17.62A3.79,3.79,0,0,0,65.36,234.24Z"/><path class="cls-1" d="M93,111.68a11.47,11.47,0,1,0-11.47-11.47A11.49,11.49,0,0,0,93,111.68Zm0-15.35a3.88,3.88,0,1,1-3.88,3.88A3.88,3.88,0,0,1,93,96.33Z"/><path class="cls-1" d="M130.05,86.88a11.47,11.47,0,1,0-11.47,11.47A11.49,11.49,0,0,0,130.05,86.88Zm-15.34,0a3.87,3.87,0,1,1,3.87,3.88A3.87,3.87,0,0,1,114.71,86.88Z"/><path class="cls-1" d="M93,84A11.47,11.47,0,1,0,81.48,72.56,11.49,11.49,0,0,0,93,84Zm0-15.35a3.88,3.88,0,1,1-3.88,3.88A3.88,3.88,0,0,1,93,68.68Z"/><path class="cls-1" d="M138.35,0C62.06,0,0,62.06,0,138.35a138.65,138.65,0,0,0,31.11,87.41A3.8,3.8,0,1,0,37,221,130.75,130.75,0,0,1,138.35,7.6c72.09,0,130.74,58.65,130.74,130.75a130.06,130.06,0,0,1-22.87,73.9,3.8,3.8,0,1,0,6.26,4.3,137.55,137.55,0,0,0,24.21-78.2C276.69,62.06,214.63,0,138.35,0Z"/></g></g></svg>