<svg xmlns="http://www.w3.org/2000/svg" viewBox="0 0 649.18 453.5"><defs><style>.cls-1{fill:#4e237c;}.cls-2{fill:#cc3641;}</style></defs><g id="Capa_2" data-name="Capa 2"><g id="Capa_1-2" data-name="Capa 1"><path class="cls-1" d="M499.41,429.37q-24.8-24.14-24.8-61.83t24.8-61.16q24.8-23.47,62.49-23.48t62.48,23.48q24.79,23.47,24.8,61.16t-24.8,61.83q-24.79,24.13-62.48,24.13T499.41,429.37Z"/><path class="cls-2" d="M541.77,429.37Q517,405.23,517,367.54t24.79-61.16A83.26,83.26,0,0,1,583.08,285a105.3,105.3,0,0,0-21.18-2.08q-37.7,0-62.49,23.48t-24.8,61.16q0,37.69,24.8,61.83T561.9,453.5a102.43,102.43,0,0,0,21.18-2.13A82.57,82.57,0,0,1,541.77,429.37Z"/><path class="cls-2" d="M432.12,366.69H364.74V453.5h-125V366.69H0V283.11L203.43,0H336.24L151.6,265h92V187.88H364.74V265h67.38Z"/></g></g></svg>