<svg xmlns="http://www.w3.org/2000/svg" viewBox="0 0 670.56 462.57"><defs><style>.cls-1{fill:#4e237c;}.cls-2{fill:#cc3641;}</style></defs><g id="Capa_2" data-name="Capa 2"><g id="Capa_1-2" data-name="Capa 1"><path class="cls-1" d="M520.79,438.44Q496,414.31,496,376.61t24.8-61.16Q545.59,292,583.27,292t62.49,23.48q24.79,23.48,24.8,61.16t-24.8,61.83Q621,462.57,583.27,462.57T520.79,438.44Z"/><path class="cls-2" d="M563.15,438.44q-24.79-24.13-24.79-61.83t24.79-61.16a83.26,83.26,0,0,1,41.31-21.4A105.33,105.33,0,0,0,583.27,292q-37.68,0-62.48,23.48T496,376.61q0,37.69,24.8,61.83t62.48,24.13a102.45,102.45,0,0,0,21.19-2.13A82.49,82.49,0,0,1,563.15,438.44Z"/><path class="cls-2" d="M376.41,360.86V462.57H23.32V382.24L193.06,223.51c36.28-33.69,41.46-54.42,41.46-73.21,0-29.15-19.43-46.64-58.3-46.64-33,0-62.84,14.9-81,44.05L0,94.59C34.34,37.58,98.47,0,187.88,0,292.18,0,364.1,53.77,364.1,138c0,44.06-12.31,84.22-77.1,143.83l-85.52,79Z"/></g></g></svg>