<svg xmlns="http://www.w3.org/2000/svg" viewBox="0 0 162.24 121.1"><defs><style>.cls-1{fill:#d53844;}.cls-2{fill:#4e237c;}</style></defs><g id="Capa_2" data-name="Capa 2"><g id="Capa_1-2" data-name="Capa 1"><circle class="cls-1" cx="30.61" cy="61.32" r="30.61"/><path class="cls-2" d="M131.44,104.39A3,3,0,0,1,130,98.74,49.23,49.23,0,1,0,58.77,45.45a3,3,0,1,1-5.88-1.19,55.22,55.22,0,1,1,80,59.78A3.09,3.09,0,0,1,131.44,104.39Z"/><path class="cls-2" d="M84.48,94.93a2.88,2.88,0,0,1-1.22-.26l-56-24.77a3,3,0,0,1,0-5.48l56-24.78a3,3,0,0,1,2.38,0l57.54,24.24a3,3,0,0,1,0,5.51L85.68,94.68A2.93,2.93,0,0,1,84.48,94.93ZM35.88,67.16l48.6,21.49,50-22-49.93-21Z"/><path class="cls-2" d="M86.59,121.1A68.52,68.52,0,0,1,70,119a81,81,0,0,1-25.76-11.44A3,3,0,0,1,43,105.12V77.32a3,3,0,0,1,6,0v26.2a78.22,78.22,0,0,0,22.65,9.7c17.94,4.41,34.2,1.2,48.34-9.57V75.13a3,3,0,0,1,6,0v30a3,3,0,0,1-1.13,2.35A60.51,60.51,0,0,1,86.59,121.1Z"/><path class="cls-2" d="M114.19,114a3,3,0,0,1-3-3V78.86a3,3,0,0,1,6,0V111A3,3,0,0,1,114.19,114Z"/><path class="cls-2" d="M28.37,92a3,3,0,0,1-3-3V68.58a3,3,0,0,1,6,0V89A3,3,0,0,1,28.37,92Z"/><path class="cls-2" d="M28.15,107.55A9.87,9.87,0,1,1,38,97.68,9.88,9.88,0,0,1,28.15,107.55Zm0-13.73A3.87,3.87,0,1,0,32,97.68,3.87,3.87,0,0,0,28.15,93.82Z"/></g></g></svg>