<svg xmlns="http://www.w3.org/2000/svg" viewBox="0 0 227.09 224.5"><defs><style>.cls-1,.cls-2{fill:#4e237c;}.cls-2{stroke:#4e237c;stroke-miterlimit:10;stroke-width:2px;}</style></defs><g id="Capa_2" data-name="Capa 2"><g id="Capa_1-2" data-name="Capa 1"><path class="cls-1" d="M227,110.24h0A113.49,113.49,0,0,0,31,35.66,112.74,112.74,0,0,0,.05,116.84c.7,24.09,6.28,41.81,20.93,60.83a5.21,5.21,0,1,0,8.26-6.36c-13.3-17.28-18.13-32.9-18.77-54.77a103.12,103.12,0,0,1,173.84-78,103.12,103.12,0,0,1,4.24,145.77c-18.9,20-39.41,29-66.94,29.77a5.21,5.21,0,1,0,.3,10.42h0c30.32-.88,53.41-11,74.22-33A112.81,112.81,0,0,0,227,110.24Z"/><g id="_13_idea" data-name="13 idea"><path class="cls-2" d="M95.42,67.42A2.53,2.53,0,0,0,98,64.89V53.49a2.54,2.54,0,1,0-5.07,0v11.4A2.53,2.53,0,0,0,95.42,67.42Z"/><path class="cls-2" d="M139.64,70.76l-8.06,8a2.55,2.55,0,0,0,1.8,4.34,2.5,2.5,0,0,0,1.79-.75l8.06-8.05a2.54,2.54,0,1,0-3.59-3.59Z"/><path class="cls-2" d="M55.66,154.74l-8.06,8a2.55,2.55,0,0,0,1.8,4.34,2.5,2.5,0,0,0,1.79-.75l8.06-8a2.54,2.54,0,0,0-3.59-3.59Z"/><path class="cls-2" d="M55.66,82.4a2.52,2.52,0,0,0,3.59,0,2.54,2.54,0,0,0,0-3.59l-8.06-8a2.54,2.54,0,0,0-3.59,3.59Z"/><path class="cls-2" d="M135.17,154.74a2.54,2.54,0,0,0-3.59,3.59l8.06,8a2.5,2.5,0,0,0,1.79.75,2.55,2.55,0,0,0,1.8-4.34Z"/><path class="cls-2" d="M41.73,116H30.34a2.54,2.54,0,0,0,0,5.08H41.73a2.54,2.54,0,1,0,0-5.08Z"/><path class="cls-2" d="M160.49,116H149.1a2.54,2.54,0,1,0,0,5.08h11.39a2.54,2.54,0,1,0,0-5.08Z"/><path class="cls-2" d="M115.82,188.1a2.54,2.54,0,1,0,0-5.07h-.91v-8.58l0-.29a36.07,36.07,0,0,1,2.77-9A2.54,2.54,0,0,0,113.1,163a41.12,41.12,0,0,0-2.84,8.67H80.5a41.15,41.15,0,0,0-12.7-22.31A41.26,41.26,0,0,1,54.28,123.1a2.54,2.54,0,0,0-5.05.55,46.37,46.37,0,0,0,15.18,29.52,36.09,36.09,0,0,1,11.37,20.9l.06.38V183H75a2.54,2.54,0,1,0,0,5.07h.83v6.26H75a2.54,2.54,0,1,0,0,5.07h.83v4.36a7,7,0,0,0,4.58,6.54,14.9,14.9,0,0,0,8.29,12.36A2.54,2.54,0,1,0,91,218.15a9.83,9.83,0,0,1-5.39-7.39h19.59a9.86,9.86,0,0,1-5.39,7.39,2.53,2.53,0,0,0-1.15,3.4,2.53,2.53,0,0,0,3.41,1.14,14.9,14.9,0,0,0,8.29-12.36,7,7,0,0,0,4.58-6.54v-4.36h.91a2.54,2.54,0,1,0,0-5.07h-.91V188.1Zm-34.9-11.33h28.91V183H80.92Zm28.91,27a1.91,1.91,0,0,1-1.9,1.9H82.82a1.91,1.91,0,0,1-1.9-1.9v-4.36h28.91Zm0-9.43H80.92V188.1h28.91Z"/><path class="cls-2" d="M95.42,131.59a13,13,0,1,0-13-13A13,13,0,0,0,95.42,131.59Zm0-21a7.94,7.94,0,1,1-8,7.94A7.95,7.95,0,0,1,95.42,110.63Z"/><path class="cls-2" d="M67.44,110.65a4.24,4.24,0,0,0-4.23,4.23v7.38a4.24,4.24,0,0,0,4.23,4.23h5.07a24,24,0,0,0,1.11,2.68L70,132.75a4.24,4.24,0,0,0,0,6L75.25,144a4.23,4.23,0,0,0,6,0l3.59-3.58a25.17,25.17,0,0,0,2.68,1.11v5.06a4.24,4.24,0,0,0,4.23,4.24H99.1a4.24,4.24,0,0,0,4.23-4.24v-5.06a25.17,25.17,0,0,0,2.68-1.11L109.6,144a4.22,4.22,0,0,0,6,0l5.21-5.21a4.24,4.24,0,0,0,0-6l-3.58-3.58a22.25,22.25,0,0,0,1.11-2.68h5.07a4.24,4.24,0,0,0,4.23-4.23v-7.38a4.24,4.24,0,0,0-4.23-4.23h-5.07a22.25,22.25,0,0,0-1.11-2.68l3.58-3.58a4.24,4.24,0,0,0,0-6l-5.21-5.21a4.22,4.22,0,0,0-6,0L106,96.78a23.31,23.31,0,0,0-2.68-1.12V90.6a4.23,4.23,0,0,0-4.23-4.23H91.73A4.23,4.23,0,0,0,87.5,90.6v5.06a23.31,23.31,0,0,0-2.68,1.12l-3.59-3.59a4.23,4.23,0,0,0-6,0L70,98.4a4.24,4.24,0,0,0,0,6L73.62,108a24,24,0,0,0-1.11,2.68Zm11.11-4.93-4.33-4.32,4-4,4.32,4.32a2.54,2.54,0,0,0,3.09.39,19.24,19.24,0,0,1,5-2.08,2.54,2.54,0,0,0,1.92-2.46V91.44h5.68v6.11a2.53,2.53,0,0,0,1.91,2.46,19.24,19.24,0,0,1,5,2.08,2.54,2.54,0,0,0,3.09-.39l4.32-4.32,4,4-4.32,4.32a2.54,2.54,0,0,0-.39,3.09,19.1,19.1,0,0,1,2.08,5,2.54,2.54,0,0,0,2.46,1.91h6.1v5.68h-6.1a2.54,2.54,0,0,0-2.46,1.91,19,19,0,0,1-2.08,5,2.54,2.54,0,0,0,.39,3.09l4.32,4.33-4,4-4.32-4.32a2.54,2.54,0,0,0-3.09-.39,19.24,19.24,0,0,1-5,2.08,2.53,2.53,0,0,0-1.91,2.46v6.11H92.58v-6.11a2.54,2.54,0,0,0-1.92-2.46,19.24,19.24,0,0,1-5-2.08,2.54,2.54,0,0,0-3.09.39l-4.32,4.32-4-4,4.33-4.33a2.53,2.53,0,0,0,.38-3.09,19,19,0,0,1-2.08-5,2.54,2.54,0,0,0-2.46-1.91h-6.1v-5.68h6.1a2.54,2.54,0,0,0,2.46-1.91,19.1,19.1,0,0,1,2.08-5,2.53,2.53,0,0,0-.38-3.09Z"/><path class="cls-2" d="M128.46,85.91a46.58,46.58,0,0,0-79.13,26.8,2.54,2.54,0,1,0,5,.65,41.38,41.38,0,1,1,68.88,35.83,42.67,42.67,0,0,0-3.75,3.86,2.53,2.53,0,0,0,1.93,4.19,2.51,2.51,0,0,0,1.92-.89,39.33,39.33,0,0,1,3.31-3.4,46.47,46.47,0,0,0,1.8-67Z"/></g></g></g></svg>