<svg xmlns="http://www.w3.org/2000/svg" viewBox="0 0 227.09 224.5"><defs><style>.cls-1,.cls-2{fill:#4e237c;}.cls-2{stroke:#4e237c;stroke-linecap:round;stroke-linejoin:round;stroke-width:2px;}</style></defs><g id="Capa_2" data-name="Capa 2"><g id="Capa_1-2" data-name="Capa 1"><path class="cls-1" d="M227,110.24h0A113.49,113.49,0,0,0,31,35.66,112.74,112.74,0,0,0,.05,116.84c.7,24.09,6.28,41.81,20.93,60.83a5.21,5.21,0,1,0,8.26-6.36c-13.3-17.28-18.13-32.9-18.77-54.77a103.12,103.12,0,0,1,173.84-78,103.12,103.12,0,0,1,4.24,145.77c-18.9,20-39.41,29-66.94,29.77a5.21,5.21,0,1,0,.3,10.42h0c30.32-.88,53.41-11,74.22-33A112.81,112.81,0,0,0,227,110.24Z"/><path class="cls-2" d="M190.52,110.63a23.25,23.25,0,0,0-38.17,12.18H146a23.25,23.25,0,0,0-45.35,0H63.89a2.59,2.59,0,1,1,0-5.17H79.4a7.75,7.75,0,0,0,0-15.5H54.11c-5.59,0-10.35-4.1-10.85-9.32a10.33,10.33,0,0,1,8.29-11.16l2.32-.45-.25-2.36c0-.42-.07-.84-.07-1.27A11.62,11.62,0,0,1,69.82,66.92l1.76.76,1.24-1.45a15.47,15.47,0,0,1,27.25,10.06,15.83,15.83,0,0,1-.2,2.42l-.39,2.49,2.47.45a10.37,10.37,0,0,1,8.45,10.71c-.28,5.39-5.17,9.78-10.89,9.78H92.32v5.17h7.19a15.8,15.8,0,0,0,16-14.69,15.55,15.55,0,0,0-10.34-15.43c0-.31,0-.61,0-.9a20.63,20.63,0,0,0-35.1-14.76,16.61,16.61,0,0,0-5-.75,16.81,16.81,0,0,0-16.79,16.4A15.47,15.47,0,0,0,38.11,93.31c.75,7.85,7.78,14,16,14H79.4a2.58,2.58,0,0,1,0,5.16H63.89a7.76,7.76,0,0,0,0,15.51H100.1a23,23,0,0,0,10.73,19.6,5.09,5.09,0,0,1,2.17,4.31v4.52a10.34,10.34,0,0,0,20.68,0v-4.62a5,5,0,0,1,2.22-4.24A23.18,23.18,0,0,0,146.6,128h5.19a23.09,23.09,0,0,0,10.73,19.6,5.09,5.09,0,0,1,2.17,4.31v4.52a10.34,10.34,0,0,0,7.76,10v10.7a2.59,2.59,0,0,1-2.59,2.59h-17l5.93-5.93-3.66-3.65-12.17,12.16,12.17,12.17,3.66-3.66-5.93-5.92h17a7.77,7.77,0,0,0,7.76-7.76v-10.7a10.34,10.34,0,0,0,7.75-10v-4.62a5,5,0,0,1,2.23-4.24,23.26,23.26,0,0,0,2.92-36.92Zm-67.18,51a5.17,5.17,0,0,1-5.17-5.17h10.34A5.17,5.17,0,0,1,123.34,161.58Zm9.77-18.38a10.11,10.11,0,0,0-4.57,8.05H118.13a10.13,10.13,0,0,0-4.52-8,18.08,18.08,0,0,1,7.6-33.21,19.64,19.64,0,0,1,2.15-.12,17.81,17.81,0,0,1,12,4.6,18.07,18.07,0,0,1-2.27,28.71ZM175,161.58a5.17,5.17,0,0,1-5.17-5.17H180.2A5.17,5.17,0,0,1,175,161.58Zm9.77-18.38a10.11,10.11,0,0,0-4.57,8.05H169.82a10.1,10.1,0,0,0-4.52-8A18.08,18.08,0,0,1,172.91,110a19.32,19.32,0,0,1,2.14-.12,17.86,17.86,0,0,1,12,4.6,18.08,18.08,0,0,1-2.28,28.71Z"/><path class="cls-2" d="M71.64,161.58a20.68,20.68,0,1,0,20.68,20.68A20.7,20.7,0,0,0,71.64,161.58Zm0,36.19a15.51,15.51,0,1,1,15.51-15.51A15.52,15.52,0,0,1,71.64,197.77Z"/><path class="cls-2" d="M71.64,171.92A10.34,10.34,0,1,0,82,182.26,10.35,10.35,0,0,0,71.64,171.92Zm0,15.51a5.17,5.17,0,1,1,5.17-5.17A5.18,5.18,0,0,1,71.64,187.43Z"/><path class="cls-2" d="M100,169.8l2.16-4.52L88.62,151.73l-4.51,2.16-1.22-.51-1.66-4.72H62.06l-1.67,4.72c-.4.16-.81.33-1.21.51l-4.52-2.16L41.11,165.28l2.16,4.52c-.18.4-.35.81-.51,1.22L38,172.68v19.17l4.72,1.66c.16.41.33.81.51,1.22l-2.16,4.52L54.66,212.8l4.52-2.16,1.22.5,1.66,4.72H81.22l1.67-4.72,1.22-.5,4.52,2.16,13.55-13.55L100,194.73c.18-.4.35-.81.51-1.22l4.71-1.66V172.68L100.52,171c-.16-.41-.32-.81-.5-1.21Zm0,18.39-3.59,1.26-.41,1.19a25,25,0,0,1-1.23,3l-.55,1.13,1.64,3.45-8.38,8.38-3.44-1.65-1.13.55a24.75,24.75,0,0,1-3,1.23l-1.18.4-1.27,3.6H65.72l-1.27-3.6-1.19-.4a27.32,27.32,0,0,1-3-1.23l-1.12-.56-3.45,1.65-8.38-8.37L49,194.72l-.55-1.12a25.11,25.11,0,0,1-1.24-3l-.4-1.19-3.6-1.26V176.34l3.6-1.27.41-1.19a25,25,0,0,1,1.23-3L49,169.8l-1.65-3.46L55.73,158l3.45,1.65,1.12-.56a26.65,26.65,0,0,1,3-1.23l1.18-.4,1.27-3.6H77.57l1.27,3.6,1.18.4a24.84,24.84,0,0,1,3,1.24l1.13.55L87.56,158l8.38,8.38-1.65,3.45.55,1.12a24.49,24.49,0,0,1,1.23,3l.41,1.18,3.59,1.27Z"/><path class="cls-2" d="M110.41,179.68h5.17v5.17h-5.17Z"/><path class="cls-2" d="M120.75,179.68h5.17v5.17h-5.17Z"/><path class="cls-2" d="M131.09,179.68h5.17v5.17h-5.17Z"/></g></g></svg>