<svg xmlns="http://www.w3.org/2000/svg" viewBox="0 0 227.09 224.5"><defs><style>.cls-1,.cls-2{fill:#4e237c;}.cls-2{stroke:#4e237c;stroke-miterlimit:10;stroke-width:2px;}</style></defs><g id="Capa_2" data-name="Capa 2"><g id="Capa_1-2" data-name="Capa 1"><path class="cls-1" d="M227,110.24h0A113.49,113.49,0,0,0,31,35.66,112.74,112.74,0,0,0,.05,116.84c.7,24.09,6.28,41.81,20.93,60.83a5.21,5.21,0,1,0,8.26-6.36c-13.3-17.28-18.13-32.9-18.77-54.77a103.12,103.12,0,0,1,173.84-78,103.12,103.12,0,0,1,4.24,145.77c-18.9,20-39.41,29-66.94,29.77a5.21,5.21,0,1,0,.3,10.42h0c30.32-.88,53.41-11,74.22-33A112.81,112.81,0,0,0,227,110.24Z"/><path class="cls-2" d="M88.36,79.52A13.57,13.57,0,1,0,74.8,93.08,13.58,13.58,0,0,0,88.36,79.52ZM74.8,87.66a8.14,8.14,0,1,1,8.13-8.14A8.15,8.15,0,0,1,74.8,87.66Z"/><path class="cls-2" d="M74.8,120.21A35.27,35.27,0,1,0,39.53,84.94,35.3,35.3,0,0,0,74.8,120.21Zm-13.55-8.68a13.56,13.56,0,0,1,27.09,0,29.85,29.85,0,0,1-27.09,0ZM74.8,55.11a29.83,29.83,0,0,1,18.6,53.15,19,19,0,0,0-37.21,0A29.83,29.83,0,0,1,74.8,55.11Z"/><path class="cls-2" d="M156.71,147.87a13.56,13.56,0,1,0-13.56,13.57A13.57,13.57,0,0,0,156.71,147.87ZM143.15,156a8.14,8.14,0,1,1,8.14-8.14A8.15,8.15,0,0,1,143.15,156Z"/><path class="cls-2" d="M143.15,118a35.26,35.26,0,1,0,35.26,35.26A35.3,35.3,0,0,0,143.15,118ZM129.6,179.88a13.56,13.56,0,0,1,27.1,0,29.87,29.87,0,0,1-27.1,0Zm32.15-3.26a19,19,0,0,0-37.2,0,29.84,29.84,0,1,1,37.2,0Z"/><path class="cls-2" d="M103.55,176.08a19,19,0,0,1-19-19v-2.72h2.71A2.71,2.71,0,0,0,89.44,150l-16.27-21.7a2.72,2.72,0,0,0-4.34,0L52.55,150a2.72,2.72,0,0,0,2.17,4.34h2.72v2.72a24.44,24.44,0,0,0,24.41,24.41h21.7a2.72,2.72,0,0,0,0-5.43Zm-21.7,0a19,19,0,0,1-19-19v-5.43A2.71,2.71,0,0,0,60.15,149L71,134.49,81.85,149a2.71,2.71,0,0,0-2.71,2.71v5.43a24.35,24.35,0,0,0,9.08,19Z"/><path class="cls-2" d="M114.4,62.16a19,19,0,0,1,19,19v2.71h-2.71a2.72,2.72,0,0,0-2.17,4.34l16.28,21.7A2.7,2.7,0,0,0,147,111a2.73,2.73,0,0,0,2.17-1.08l16.27-21.7a2.71,2.71,0,0,0-2.17-4.34h-2.71V81.15c0-.73,0-1.47-.1-2.2a2.71,2.71,0,0,0-5.4.48c.05.57.07,1.15.07,1.72v5.42a2.71,2.71,0,0,0,2.72,2.71L147,103.75,136.1,89.28a2.71,2.71,0,0,0,2.71-2.71V81.15a24.41,24.41,0,0,0-9.08-19h6.37a18.82,18.82,0,0,1,6.32,1.08,2.71,2.71,0,1,0,1.8-5.12,24.31,24.31,0,0,0-8.12-1.39H114.4a2.72,2.72,0,0,0,0,5.43Z"/><circle class="cls-2" cx="153.19" cy="67.86" r="2.71"/></g></g></svg>