<svg xmlns="http://www.w3.org/2000/svg" viewBox="0 0 143.95 121.1"><defs><style>.cls-1{fill:#4e237c;}</style></defs><g id="Capa_2" data-name="Capa 2"><g id="Capa_1-2" data-name="Capa 1"><path class="cls-1" d="M113.15,104.39a3,3,0,0,1-1.4-5.65A49.23,49.23,0,1,0,40.48,45.45a3,3,0,1,1-5.88-1.19A55.22,55.22,0,1,1,114.55,104,3,3,0,0,1,113.15,104.39Z"/><path class="cls-1" d="M66.19,94.93A2.84,2.84,0,0,1,65,94.67L9,69.9a3,3,0,0,1,0-5.48L65,39.64a3,3,0,0,1,2.37,0l57.54,24.24a3,3,0,0,1,0,5.51L67.4,94.68A3,3,0,0,1,66.19,94.93ZM17.6,67.16,66.19,88.65l50-22-49.92-21Z"/><path class="cls-1" d="M68.31,121.1A68.39,68.39,0,0,1,51.7,119a81.11,81.11,0,0,1-25.77-11.44,3,3,0,0,1-1.24-2.43V77.32a3,3,0,0,1,6,0v26.2a78.35,78.35,0,0,0,22.65,9.7c18,4.42,34.2,1.2,48.34-9.57V75.13a3,3,0,0,1,6,0v30a3,3,0,0,1-1.13,2.35A60.48,60.48,0,0,1,68.31,121.1Z"/><path class="cls-1" d="M95.91,114a3,3,0,0,1-3-3V78.86a3,3,0,1,1,6,0V111A3,3,0,0,1,95.91,114Z"/><path class="cls-1" d="M10.08,92a3,3,0,0,1-3-3V68.58a3,3,0,0,1,6,0V89A3,3,0,0,1,10.08,92Z"/><path class="cls-1" d="M9.86,107.55a9.87,9.87,0,1,1,9.86-9.87A9.88,9.88,0,0,1,9.86,107.55Zm0-13.73a3.87,3.87,0,1,0,3.86,3.86A3.87,3.87,0,0,0,9.86,93.82Z"/></g></g></svg>