<svg xmlns="http://www.w3.org/2000/svg" viewBox="0 0 227.09 224.5"><defs><style>.cls-1,.cls-2{fill:#4e237c;}.cls-2{stroke:#4e237c;stroke-miterlimit:10;stroke-width:2px;}</style></defs><g id="Capa_2" data-name="Capa 2"><g id="Capa_1-2" data-name="Capa 1"><path class="cls-1" d="M227,110.24h0A113.49,113.49,0,0,0,31,35.66,112.74,112.74,0,0,0,.05,116.84c.7,24.09,6.28,41.81,20.93,60.83a5.21,5.21,0,1,0,8.26-6.36c-13.3-17.28-18.13-32.9-18.77-54.77a103.12,103.12,0,0,1,173.84-78,103.12,103.12,0,0,1,4.24,145.77c-18.9,20-39.41,29-66.94,29.77a5.21,5.21,0,1,0,.3,10.42h0c30.32-.88,53.41-11,74.22-33A112.81,112.81,0,0,0,227,110.24Z"/><path class="cls-2" d="M130.41,99a7.27,7.27,0,1,0-5.8-2.9l-11.94,16.68a7.44,7.44,0,0,0-2.27-.36,7.22,7.22,0,0,0-4.94,2l-8-4.52a7.61,7.61,0,0,0,.16-1.52,7.27,7.27,0,1,0-14.53,0,6.94,6.94,0,0,0,.16,1.52l-8,4.52a7.27,7.27,0,1,0,2.32,5.32,7.63,7.63,0,0,0-.16-1.53l8-4.52a7.25,7.25,0,0,0,9.89,0l8,4.52a7,7,0,0,0-.16,1.53,7.27,7.27,0,1,0,13.07-4.37l11.94-16.68A7.33,7.33,0,0,0,130.41,99Zm0-10.17a2.91,2.91,0,1,1-2.9,2.9A2.9,2.9,0,0,1,130.41,88.8Zm-60,33.77a2.91,2.91,0,1,1,2.91-2.91A2.91,2.91,0,0,1,70.38,122.57Zm20-11.37a2.91,2.91,0,1,1,2.91-2.9A2.9,2.9,0,0,1,90.39,111.2Zm20,11.37a2.91,2.91,0,1,1,2.91-2.91A2.91,2.91,0,0,1,110.4,122.57Z"/><path class="cls-2" d="M157.21,169.87H41.63a1.81,1.81,0,0,1-1.8-1.81V78.12a1.81,1.81,0,0,1,1.8-1.81H51.91a2.18,2.18,0,1,0,0-4.36H41.63a6.17,6.17,0,0,0-6.16,6.17v89.94a6.17,6.17,0,0,0,6.16,6.17h15V179a5,5,0,0,0,4.95,5H83.45L73.17,204a2.2,2.2,0,0,0,1,2.94,2.22,2.22,0,0,0,1,.24A2.16,2.16,0,0,0,77.05,206l11.3-22h24.1l11.29,22a2.17,2.17,0,0,0,1.94,1.19,2.23,2.23,0,0,0,1-.24,2.18,2.18,0,0,0,.94-2.94l-10.27-20h21.82a5,5,0,0,0,5-5v-4.8h13.08a2.18,2.18,0,0,0,0-4.36ZM139.77,179a.6.6,0,0,1-.6.6H61.62A.59.59,0,0,1,61,179v-4.8h78.74Z"/><path class="cls-2" d="M60.63,76.31h98.53A1.81,1.81,0,0,1,161,78.12V98.85a2.18,2.18,0,0,0,4.36,0V78.12A6.18,6.18,0,0,0,159.16,72H112.5V67.67A5.47,5.47,0,0,0,107,62.2H93.77a5.47,5.47,0,0,0-5.47,5.47V72H60.63a2.18,2.18,0,1,0,0,4.36Zm32-8.64a1.11,1.11,0,0,1,1.11-1.11H107a1.11,1.11,0,0,1,1.11,1.11V72H92.66V67.67Z"/><path class="cls-2" d="M66,138.07a2.19,2.19,0,0,0-2.18,2.18v19.27A2.19,2.19,0,0,0,66,161.7h8.85A2.19,2.19,0,0,0,77,159.52V140.25a2.19,2.19,0,0,0-2.18-2.18Zm6.67,19.27H68.14V142.43h4.49Z"/><path class="cls-2" d="M86,126.93a2.19,2.19,0,0,0-2.18,2.18v30.41A2.19,2.19,0,0,0,86,161.7h8.85A2.19,2.19,0,0,0,97,159.52V129.11a2.19,2.19,0,0,0-2.18-2.18Zm6.67,30.41H88.15V131.29h4.49Z"/><path class="cls-2" d="M106,138.07a2.19,2.19,0,0,0-2.18,2.18v19.27A2.19,2.19,0,0,0,106,161.7h8.85a2.19,2.19,0,0,0,2.18-2.18V140.25a2.19,2.19,0,0,0-2.18-2.18Zm6.67,19.27h-4.49V142.43h4.49Z"/><path class="cls-2" d="M126,150.94a2.18,2.18,0,0,0-2.18,2.18v6.4A2.19,2.19,0,0,0,126,161.7h8.85a2.18,2.18,0,0,0,0-4.36h-6.67v-4.22A2.17,2.17,0,0,0,126,150.94Z"/><path class="cls-2" d="M183.19,171.92l-12.51-21.66a28.38,28.38,0,1,0-20.77,9,27.69,27.69,0,0,0,6.42-.75l12.51,21.67a8.29,8.29,0,0,0,14.35-8.29Zm-39.57-17.83a24.14,24.14,0,1,1,18.31-2.41A24,24,0,0,1,143.62,154.09ZM178,179.47a3.94,3.94,0,0,1-5.37-1.44l-12-20.84a28.85,28.85,0,0,0,6.8-3.93l12,20.84a3.9,3.9,0,0,1,.53,2A4,4,0,0,1,178,179.47Z"/><path class="cls-2" d="M169.63,136.92a20.61,20.61,0,0,0-1-14.95,2.18,2.18,0,0,0-3.94,1.86,16.34,16.34,0,1,1-4.93-6.08,2.18,2.18,0,1,0,2.64-3.48,20.71,20.71,0,1,0,7.26,22.65Z"/></g></g></svg>