<svg xmlns="http://www.w3.org/2000/svg" viewBox="0 0 94.4 125.02"><defs><style>.cls-1{fill:#4e237c;}</style></defs><g id="Capa_2" data-name="Capa 2"><g id="Capa_1-2" data-name="Capa 1"><path class="cls-1" d="M48.71,44A16.31,16.31,0,1,1,65,27.65,16.33,16.33,0,0,1,48.71,44Zm0-26.62A10.31,10.31,0,1,0,59,27.65,10.33,10.33,0,0,0,48.71,17.34Z"/><path class="cls-1" d="M64.16,44H34a3,3,0,1,1,0-6H64.16a3,3,0,0,1,0,6Z"/><path class="cls-1" d="M32.79,97.46a3,3,0,0,1-1.37-5.67c.55-.46,8-7.44,8.83-50.89a3,3,0,1,1,6,.11c-.91,48.15-9.7,55.23-12.38,56.25A2.86,2.86,0,0,1,32.79,97.46Zm-1.08-5.8Zm0,0Zm0,0h0Z"/><path class="cls-1" d="M65.34,97.46a2.89,2.89,0,0,1-1.07-.2c-2.67-1-11.46-8.1-12.38-56.25a3,3,0,0,1,2.94-3,3,3,0,0,1,3.06,2.94c.83,43.45,8.27,50.43,8.83,50.89a3,3,0,0,1-1.38,5.67Zm1.09-5.8Zm0,0h0Zm0,0Z"/><path class="cls-1" d="M64.9,113.32H33.3a10.49,10.49,0,1,1,0-21H64.9a10.49,10.49,0,1,1,0,21Zm-31.6-15a4.49,4.49,0,1,0,0,9H64.9a4.49,4.49,0,1,0,0-9Z"/><path class="cls-1" d="M82.21,125H15.92a3,3,0,0,1-3-3c0-.15.31-14.69,20.38-14.69H64.76c1.43-.13,10.56-.7,16.15,4.34A13.28,13.28,0,0,1,85.21,122,3,3,0,0,1,82.21,125Zm-62.43-6h59a6.59,6.59,0,0,0-1.88-2.9c-3.93-3.53-11.61-2.83-11.68-2.82l-.32,0H33.3C24.56,113.32,21.13,116.5,19.78,119Z"/><path class="cls-1" d="M28.91,90.45a3,3,0,0,1-1.24-.27,47.21,47.21,0,1,1,42.81-1.92,3,3,0,0,1-3-5.22,41.19,41.19,0,1,0-37.36,1.68,3,3,0,0,1-1.25,5.73Z"/></g></g></svg>