<svg xmlns="http://www.w3.org/2000/svg" viewBox="0 0 252.95 252.96"><defs><style>.cls-1{fill:#cb3641;}</style></defs><g id="Capa_2" data-name="Capa 2"><g id="Capa_1-2" data-name="Capa 1"><path class="cls-1" d="M175.49,253h-98A77.56,77.56,0,0,1,0,175.49v-98A77.55,77.55,0,0,1,77.47,0h98A77.55,77.55,0,0,1,253,77.47v98A77.56,77.56,0,0,1,175.49,253ZM77.47,9.4A68.14,68.14,0,0,0,9.4,77.47v98a68.15,68.15,0,0,0,68.07,68.07h98a68.15,68.15,0,0,0,68.07-68.07v-98A68.15,68.15,0,0,0,175.49,9.4Z"/><path class="cls-1" d="M160.23,59.69l-19.69-.44A28.86,28.86,0,0,0,111.05,88.1v18.68H92.75a1.36,1.36,0,0,0-1.36,1.36v23.47A1.36,1.36,0,0,0,92.75,133h18.3v59.38a1.36,1.36,0,0,0,1.36,1.36h24.23a1.36,1.36,0,0,0,1.36-1.36V133h18.45a1.37,1.37,0,0,0,1.35-1.19l3-23.46a1.36,1.36,0,0,0-1.35-1.54H138V94.91c0-.06-.49-5.78,2.5-9a7.4,7.4,0,0,1,5.8-2.26h13.92a1.36,1.36,0,0,0,1.36-1.36V61.05A1.36,1.36,0,0,0,160.23,59.69Z"/></g></g></svg>