<svg xmlns="http://www.w3.org/2000/svg" viewBox="0 0 120.3 124.5"><defs><style>.cls-1{fill:#d53844;}.cls-2{fill:#4e237c;}</style></defs><g id="Capa_2" data-name="Capa 2"><g id="Capa_1-2" data-name="Capa 1"><circle class="cls-1" cx="31.34" cy="58.13" r="31.34"/><path class="cls-2" d="M59.33,89.94a3,3,0,0,1-.42,0,2.81,2.81,0,0,1-2.37-3.2C58,77,54.73,72.62,50.94,67.59c-4.14-5.5-8.83-11.74-7.77-24.86C44.84,22.19,63.34,16.79,73,16.79h.17a2.82,2.82,0,0,1,0,5.63h0c-1.11,0-22.71.28-24.37,20.76-.89,11,2.77,15.87,6.65,21,4.17,5.54,8.48,11.27,6.67,23.35A2.81,2.81,0,0,1,59.33,89.94Z"/><path class="cls-2" d="M87.06,89.94a2.81,2.81,0,0,1-2.78-2.39c-1.82-12.08,2.49-17.81,6.66-23.35,3.88-5.15,7.55-10,6.66-21C95.92,22.51,74.12,22.44,73.21,22.42h0a2.82,2.82,0,0,1,0-5.63c9.62-.08,28.36,5.28,30,25.94,1.06,13.12-3.63,19.36-7.77,24.86-3.79,5-7.06,9.38-5.59,19.12a2.81,2.81,0,0,1-2.37,3.2A3,3,0,0,1,87.06,89.94Z"/><path class="cls-2" d="M88.28,113.3H56.89a2.81,2.81,0,0,1-2.82-2.81V88.34a2.81,2.81,0,0,1,2.82-2.81H88.28a2.81,2.81,0,0,1,2.81,2.81v22.15A2.81,2.81,0,0,1,88.28,113.3Zm-28.57-5.63H85.46V91.16H59.71Z"/><path class="cls-2" d="M88.28,99H71a2.82,2.82,0,0,1,0-5.64H88.28a2.82,2.82,0,0,1,0,5.64Z"/><path class="cls-2" d="M88.28,106.11H66.87a2.82,2.82,0,1,1,0-5.63H88.28a2.82,2.82,0,0,1,0,5.63Z"/><path class="cls-2" d="M92.66,50a2.82,2.82,0,0,1-2.82-2.73c0-.62-.63-15.07-12.55-16.26a2.82,2.82,0,0,1,.56-5.61c13.5,1.35,17.43,14.79,17.62,21.71A2.81,2.81,0,0,1,92.74,50Z"/><path class="cls-2" d="M72.78,124.5c-12.19,0-15.85-9-16.08-13.88a2.82,2.82,0,0,1,5.63-.28c.05.91.85,8.71,10.81,8.52a2.82,2.82,0,1,1,.1,5.63Z"/><path class="cls-2" d="M73.24,124.5h-.47a2.82,2.82,0,0,1,.11-5.63c10,.16,10.76-7.63,10.81-8.53a2.82,2.82,0,0,1,5.63.29C89.09,115.46,85.42,124.5,73.24,124.5Z"/><path class="cls-2" d="M68.57,88.24a2.82,2.82,0,0,1-2.82-2.82V57.65a.37.37,0,0,0,0-.09,16.24,16.24,0,0,0-4,3.86,2.82,2.82,0,1,1-4.35-3.58c2.54-3.08,6.37-7.05,10.21-5.9,2.49.74,3.61,3.27,3.82,5.2,0,.1,0,.2,0,.3v28A2.81,2.81,0,0,1,68.57,88.24Z"/><path class="cls-2" d="M78,88.24a2.82,2.82,0,0,1-2.82-2.82v-28c0-.1,0-.2,0-.3.2-1.93,1.33-4.46,3.81-5.2,3.84-1.15,7.67,2.82,10.21,5.9a2.81,2.81,0,1,1-4.34,3.58,16.23,16.23,0,0,0-4-3.86.3.3,0,0,1,0,.1V85.42A2.81,2.81,0,0,1,78,88.24Z"/><path class="cls-2" d="M96.2,86a3.07,3.07,0,0,1-1.57-5.71,39.88,39.88,0,1,0-41.85-.72,3.07,3.07,0,1,1-3.32,5.17,46,46,0,1,1,48.31.83A3.07,3.07,0,0,1,96.2,86Z"/></g></g></svg>