<svg xmlns="http://www.w3.org/2000/svg" viewBox="0 0 252.95 252.96"><defs><style>.cls-1{fill:#cb3641;}</style></defs><g id="Capa_2" data-name="Capa 2"><g id="Capa_1-2" data-name="Capa 1"><path class="cls-1" d="M175.49,253h-98A77.56,77.56,0,0,1,0,175.49v-98A77.55,77.55,0,0,1,77.47,0h98A77.55,77.55,0,0,1,253,77.47v98A77.56,77.56,0,0,1,175.49,253ZM77.47,9.4A68.14,68.14,0,0,0,9.4,77.47v98a68.15,68.15,0,0,0,68.07,68.07h98a68.15,68.15,0,0,0,68.07-68.07v-98A68.15,68.15,0,0,0,175.49,9.4Z"/><path class="cls-1" d="M126.5,84.66a39.56,39.56,0,1,0,39.56,39.55A39.55,39.55,0,0,0,126.5,84.66Zm0,65.23a25.68,25.68,0,1,1,25.68-25.68A25.67,25.67,0,0,1,126.5,149.89Z"/><path class="cls-1" d="M158.26,47.65c-14.18-.66-49.31-.63-63.5,0-12.48.59-23.48,3.6-32.35,12.47-14.82,14.82-12.93,34.8-12.93,64.09,0,30-1.67,49.5,12.93,64.1,14.88,14.87,35.15,12.93,64.09,12.93,29.7,0,39.95,0,50.46-4.05,14.27-5.54,25-18.3,26.11-41.23.66-14.19.62-49.31,0-63.5C201.79,65.4,187.27,49,158.26,47.65ZM180.71,178.5c-9.72,9.72-23.2,8.85-54.39,8.85-32.12,0-45,.48-54.39-8.95-10.82-10.77-8.86-28.06-8.86-54.29,0-35.49-3.65-61,32-62.87,8.18-.29,10.59-.38,31.19-.38l.29.19c34.22,0,61.08-3.58,62.69,32,.37,8.12.45,10.56.45,31.13,0,31.74.6,44.69-8.95,54.29Z"/><circle class="cls-1" cx="167.62" cy="83.1" r="9.24"/></g></g></svg>