<svg xmlns="http://www.w3.org/2000/svg" viewBox="0 0 1554.12 568.24"><defs><style>.cls-1{fill:#fff;}</style></defs><g id="Capa_2" data-name="Capa 2"><g id="Capa_1-2" data-name="Capa 1"><path class="cls-1" d="M1533.23,95.13c11-6.82,17.53-18.9,17.53-33.63,0-27.44-19.41-43.18-53.27-43.18h-75.87a4.5,4.5,0,0,0-4.5,4.51v49l35.26,96.77a9,9,0,0,1-.73,7.59h47.95c34.65,0,54.52-16.51,54.52-45.28C1554.12,115.28,1546.21,102.18,1533.23,95.13Zm-60.45-30.81h13.57c7.32,0,7.9,2.69,7.9,6.22s-.56,5.79-7.9,5.79h-13.57Zm16.73,65.4h-16.73v-12h16.73c7.3,0,7.89,2.81,7.89,6.21C1497.4,127.53,1496.87,129.72,1489.51,129.72Z"/><polygon class="cls-1" points="1310.04 136.32 1265.06 136.32 1265.06 22.83 1218.4 22.83 1218.4 171.63 1310.04 171.63 1310.04 136.32"/><path class="cls-1" d="M1389.69,22.83h-53.81l-38.22,104.48H1310a9,9,0,0,1,9,9v35.31h11.37l7.36-22.49h49.6l7.35,22.49h49.18ZM1349.12,114l13.46-41.4L1376,114Z"/><rect id="SVGID" class="cls-1" x="462.85" y="196.47" width="116.55" height="365.12"/><rect id="SVGID-2" data-name="SVGID" class="cls-1" x="1038.29" y="196.47" width="116.55" height="365.12"/><path id="SVGID-3" data-name="SVGID" class="cls-1" d="M1552.76,381.62c0,118.75-70.8,186.62-167.43,186.62-55.32,0-104-25.09-136.46-69.34-24.34-33.93-31-70.81-31-117.28V196.47h114.33V400.06c0,33.93,22.13,57.53,53.11,57.53s53.11-23.6,53.11-57.53V196.47h114.32Z"/><rect id="SVGID-4" data-name="SVGID" class="cls-1" x="647.24" y="191.72" width="106.62" height="369.87"/><path id="SVGID-5" data-name="SVGID" class="cls-1" d="M890.19,350.64c22.86-7.38,39.09-22.87,47.21-43.52l42.77-110.65h-121L835.6,257.7c-14.75,38.35-27.29,56.05-53.11,56.05h-8.42V420h28.34C840,420,857,438.41,857,478.25V561.6H971.32V464.23C971.32,399.32,948.45,364.65,890.19,350.64Z"/><polygon id="SVGID-6" data-name="SVGID" class="cls-1" points="249.62 228.93 128.34 228.93 128.34 46 0 46 0 561.6 128.34 561.6 128.34 353.59 249.62 353.59 249.62 228.93"/><path id="SVGID-7" data-name="SVGID" class="cls-1" d="M270,46V228.93h-.16V353.59H270v208H389.85V46Z"/><path class="cls-1" d="M648.22,165.15a165.15,165.15,0,1,1,330.3,0Z"/><path class="cls-1" d="M506.63,163a67.42,67.42,0,0,1-51.78-65.32c0-31.62,22.24-57.8,51.83-64.63,29.59,6.83,51.84,33,51.84,64.63A67.43,67.43,0,0,1,506.68,163Z"/><path class="cls-1" d="M522,31.25A68.26,68.26,0,0,0,506.68,33c29.59,6.83,51.84,33,51.84,64.63A67.43,67.43,0,0,1,506.68,163a66.58,66.58,0,0,0,15.29,1.8A67.38,67.38,0,0,0,589.1,97.63C589.1,60.75,558.85,31.25,522,31.25Z"/><path class="cls-1" d="M1111.91,33.06a67.43,67.43,0,0,1,51.78,65.31c0,31.62-22.25,57.81-51.83,64.63-29.59-6.82-51.84-33-51.84-64.63A67.44,67.44,0,0,1,1111.86,33Z"/><path class="cls-1" d="M1096.56,164.76a67.71,67.71,0,0,0,15.3-1.76c-29.59-6.82-51.84-33-51.84-64.63A67.44,67.44,0,0,1,1111.86,33a66.59,66.59,0,0,0-15.3-1.79,67.36,67.36,0,0,0-67.12,67.12C1029.44,135.25,1059.68,164.76,1096.56,164.76Z"/></g></g></svg>