<svg xmlns="http://www.w3.org/2000/svg" viewBox="0 0 215.94 215.94"><defs><style>.cls-1{fill:#fff;}</style></defs><g id="Capa_2" data-name="Capa 2"><g id="Capa_1-2" data-name="Capa 1"><path class="cls-1" d="M215.9,4.08a4.85,4.85,0,0,0-.15-.74,5.51,5.51,0,0,0-.31-.76c-.07-.13-.09-.28-.17-.41a1.37,1.37,0,0,0-.2-.22,3.74,3.74,0,0,0-.53-.6,4.22,4.22,0,0,0-.6-.52c-.08-.06-.13-.14-.21-.19a3,3,0,0,0-.42-.16,4.41,4.41,0,0,0-.78-.32,5.54,5.54,0,0,0-.69-.12A5.7,5.7,0,0,0,211,0a4.83,4.83,0,0,0-.76.13,4.17,4.17,0,0,0-.49.08L3.18,70.64A4.69,4.69,0,0,0,3,79.46l96.52,37.09,41.71,96.56a4.69,4.69,0,0,0,4.31,2.83h.23a4.7,4.7,0,0,0,4.24-3.26L215.76,6.08a3.5,3.5,0,0,0,.07-.45,5.2,5.2,0,0,0,.1-.78A4.86,4.86,0,0,0,215.9,4.08ZM18.47,75.34,193.69,15.61,101.9,107.4ZM144.88,197.86l-36.24-83.92L201,21.61Z"/><path class="cls-1" d="M73.75,142.19a4.68,4.68,0,0,0-6.64,0L1.38,207.92A4.7,4.7,0,1,0,8,214.56l65.73-65.73A4.68,4.68,0,0,0,73.75,142.19Z"/><path class="cls-1" d="M85.89,175.06,53,207.92a4.69,4.69,0,1,0,6.63,6.64l32.87-32.87a4.69,4.69,0,1,0-6.64-6.63Z"/><path class="cls-1" d="M4.7,164.29A4.68,4.68,0,0,0,8,162.91l32.86-32.86a4.7,4.7,0,0,0-6.64-6.64L1.38,156.27a4.7,4.7,0,0,0,3.32,8Z"/></g></g></svg>