<svg xmlns="http://www.w3.org/2000/svg" viewBox="0 0 227.09 224.5"><defs><style>.cls-1,.cls-2{fill:#4e237c;}.cls-2{stroke:#4e237c;stroke-miterlimit:10;stroke-width:2px;}</style></defs><g id="Capa_2" data-name="Capa 2"><g id="Capa_1-2" data-name="Capa 1"><path class="cls-1" d="M227,110.24h0A113.49,113.49,0,0,0,31,35.66,112.74,112.74,0,0,0,.05,116.84c.7,24.09,6.28,41.81,20.93,60.83a5.21,5.21,0,1,0,8.26-6.36c-13.3-17.28-18.13-32.9-18.77-54.77a103.12,103.12,0,0,1,173.84-78,103.12,103.12,0,0,1,4.24,145.77c-18.9,20-39.41,29-66.94,29.77a5.21,5.21,0,1,0,.3,10.42h0c30.32-.88,53.41-11,74.22-33A112.81,112.81,0,0,0,227,110.24Z"/><path class="cls-2" d="M100.79,182.77H95.1a2,2,0,1,1,0-3.9h5.69a2,2,0,0,1,0,3.9Z"/><path class="cls-2" d="M169,182.77H134a2,2,0,1,1,0-3.9H169a9,9,0,0,0,9-9v-4h-129v4a9,9,0,0,0,9,9H81.42a2,2,0,1,1,0,3.9H58.05a12.89,12.89,0,0,1-12.89-12.89v-6a2,2,0,0,1,2-1.95H180a2,2,0,0,1,2,1.95v6A12.9,12.9,0,0,1,169,182.77Z"/><path class="cls-2" d="M120.27,182.77h-5.81a2,2,0,1,1,0-3.9h5.81a2,2,0,1,1,0,3.9Z"/><path class="cls-2" d="M124.34,173.52H102.76a3.63,3.63,0,0,1-3.63-3.62v-6a2,2,0,0,1,2-2H126a2,2,0,0,1,2,2v6A3.63,3.63,0,0,1,124.34,173.52ZM103,169.61h21v-3.79H103Z"/><path class="cls-2" d="M169.6,165.82H57.49a2,2,0,0,1-2-1.95V95.17A10.75,10.75,0,0,1,66.26,84.44h94.57a10.75,10.75,0,0,1,10.73,10.73v68.7A2,2,0,0,1,169.6,165.82Zm-110.16-3.9H167.65V95.17a6.83,6.83,0,0,0-6.82-6.82H66.26a6.83,6.83,0,0,0-6.82,6.82Z"/><path class="cls-2" d="M155.82,155H71.27A4.28,4.28,0,0,1,67,150.72V99.55a4.29,4.29,0,0,1,4.28-4.29h84.55a4.3,4.3,0,0,1,4.29,4.29v51.17A4.29,4.29,0,0,1,155.82,155ZM71.27,99.17a.38.38,0,0,0-.38.38h0v51.17a.39.39,0,0,0,.38.38h84.55a.39.39,0,0,0,.38-.38V99.55a.38.38,0,0,0-.38-.38H71.27Z"/><path class="cls-2" d="M158.16,113.6H68.93a2,2,0,0,1,0-3.91h89.23a2,2,0,0,1,0,3.91Z"/><path class="cls-2" d="M80.52,106.54h-1.8a2,2,0,1,1,0-3.91h1.8a2,2,0,1,1,0,3.91Z"/><path class="cls-2" d="M90.45,106.54H88.64a2,2,0,0,1,0-3.91h1.81a2,2,0,0,1,0,3.91Z"/><path class="cls-2" d="M100.84,106.54H99a2,2,0,1,1,0-3.91h1.81a2,2,0,1,1,0,3.91Z"/><path class="cls-2" d="M89.4,127.73H81.53a2,2,0,0,1,0-3.91H89.4a2,2,0,0,1,0,3.91Z"/><path class="cls-2" d="M108.19,127.73h-7.87a2,2,0,0,1,0-3.91h7.87a2,2,0,1,1,0,3.91Z"/><path class="cls-2" d="M145.56,127.73H120.21a2,2,0,0,1,0-3.91h25.35a2,2,0,0,1,0,3.91Z"/><path class="cls-2" d="M103.6,140.91H81.52a2,2,0,0,1,0-3.91H103.6a2,2,0,1,1,0,3.91Z"/><path class="cls-2" d="M145.56,140.91H120.21a2,2,0,0,1,0-3.91h25.35a2,2,0,0,1,0,3.91Z"/></g></g></svg>