<svg xmlns="http://www.w3.org/2000/svg" viewBox="0 0 227.09 224.5"><defs><style>.cls-1,.cls-2{fill:#4e237c;}.cls-2{stroke:#4e237c;stroke-miterlimit:10;stroke-width:2px;}</style></defs><g id="Capa_2" data-name="Capa 2"><g id="Capa_1-2" data-name="Capa 1"><path class="cls-1" d="M227,110.24h0A113.49,113.49,0,0,0,31,35.66,112.74,112.74,0,0,0,.05,116.84c.7,24.09,6.28,41.81,20.93,60.83a5.21,5.21,0,1,0,8.26-6.36c-13.3-17.28-18.13-32.9-18.77-54.77a103.12,103.12,0,0,1,173.84-78,103.12,103.12,0,0,1,4.24,145.77c-18.9,20-39.41,29-66.94,29.77a5.21,5.21,0,1,0,.3,10.42h0c30.32-.88,53.41-11,74.22-33A112.81,112.81,0,0,0,227,110.24Z"/><path class="cls-2" d="M43.46,178.33l6.23,8.31-6.51,15.18a2.35,2.35,0,0,0,2.16,3.27,2.43,2.43,0,0,0,1.13-.29L93.41,179a2.35,2.35,0,0,0,0-4.11L46.47,149.05a2.35,2.35,0,0,0-3.29,3l6.51,15.18-6.23,8.31a2.33,2.33,0,0,0,0,2.81Zm10.61,10,22-5.19L50.18,197.4Zm22-17.62-22-5.19-3.89-9.07Zm-22.77-.54L82,176.92l-28.7,6.76-5.06-6.76Z"/><path class="cls-2" d="M146.25,64.27a37.57,37.57,0,0,0-37.43,35.21h-6.19l-6.35-6.36L93,96.44l3,3H86.41a24.64,24.64,0,0,0,0,49.28h26l6.35,6.35,3.32-3.31-3-3h44.8a12.91,12.91,0,0,1,0,25.82H142.53l-6.35-6.36-3.32,3.32,3,3H99.32v4.69h36.57l-3,3,3.32,3.31,6.35-6.35h21.33a17.6,17.6,0,1,0,0-35.2h-44.8l3-3-3.32-3.32-6.35,6.36h-26a19.95,19.95,0,0,1,0-39.9H96l-3,3,3.32,3.32,6.35-6.35h6.19a37.53,37.53,0,1,0,37.43-39.9Zm0,70.41a32.87,32.87,0,0,1-32.73-30.51h7a25.82,25.82,0,1,0,0-4.69h-7a32.84,32.84,0,1,1,32.73,35.2Zm-5.38-24.16,7-7a2.34,2.34,0,0,0,0-3.32l-7-7-3.32,3.32,3,3H125.27a21.13,21.13,0,1,1,0,4.69h15.32l-3,3Z"/><path class="cls-2" d="M160.34,101.82a14.1,14.1,0,0,0-14.09-14.08v4.7a9.39,9.39,0,1,1,0,18.77v4.69A14.1,14.1,0,0,0,160.34,101.82Z"/></g></g></svg>