<svg xmlns="http://www.w3.org/2000/svg" viewBox="0 0 227.09 224.5"><defs><style>.cls-1,.cls-2{fill:#4e237c;}.cls-2{stroke:#4e237c;stroke-miterlimit:10;}</style></defs><g id="Capa_2" data-name="Capa 2"><g id="Capa_1-2" data-name="Capa 1"><path class="cls-1" d="M227,110.24h0A113.49,113.49,0,0,0,31,35.66,112.74,112.74,0,0,0,.05,116.84c.7,24.09,6.28,41.81,20.93,60.83a5.21,5.21,0,1,0,8.26-6.36c-13.3-17.28-18.13-32.9-18.77-54.77a103.12,103.12,0,0,1,173.84-78,103.12,103.12,0,0,1,4.24,145.77c-18.9,20-39.41,29-66.94,29.77a5.21,5.21,0,1,0,.3,10.42h0c30.32-.88,53.41-11,74.22-33A112.81,112.81,0,0,0,227,110.24Z"/><path class="cls-2" d="M158.5,146.77a3.18,3.18,0,1,0-1.9,3.56,3.21,3.21,0,0,0,1.9-3.56Z"/><path class="cls-2" d="M154.33,158.76a3.19,3.19,0,0,0-3.92,2.21,48.79,48.79,0,0,1-95.76-13.15c0-22,14.61-40.84,36.36-46.81a3.19,3.19,0,0,0,2.34-3.07V83.79H113.5V97.94a3.19,3.19,0,0,0,2.34,3.07c16.69,4.58,29.52,16.87,34.33,32.89a3.19,3.19,0,0,0,6.1-1.84,55,55,0,0,0-36.4-36.5V83.79h7.72a3.19,3.19,0,0,0,3.19-3.19V64.89a3.19,3.19,0,0,0-3.19-3.18h-7.21l2.67-18.16a3.18,3.18,0,0,0-3.15-3.65H87a3.18,3.18,0,0,0-3.15,3.65l2.67,18.16H79.26a3.19,3.19,0,0,0-3.19,3.18V80.6a3.19,3.19,0,0,0,3.19,3.19H87V95.56c-23.25,7.42-38.7,28.13-38.7,52.26a55.15,55.15,0,0,0,108.26,14.87,3.19,3.19,0,0,0-2.21-3.93ZM90.64,46.27h25.57l-2.27,15.44h-21Zm-8.2,21.81h42v9.34h-42Z"/><path class="cls-2" d="M101.19,121.43a9.84,9.84,0,1,0-9.84,9.83A9.85,9.85,0,0,0,101.19,121.43Zm-13.3,0a3.47,3.47,0,1,1,3.46,3.46A3.47,3.47,0,0,1,87.89,121.43Z"/><path class="cls-2" d="M62.85,141.43a41.07,41.07,0,1,0,81.15,0,3.18,3.18,0,0,0-3.15-2.69h-4.76c0-.24,0-.47,0-.71a14,14,0,1,0-28,0c0,.24,0,.47,0,.71H66a3.18,3.18,0,0,0-3.15,2.69Zm6,3.68H112a3.18,3.18,0,0,0,3-4.33,7.79,7.79,0,0,1-.5-2.75,7.64,7.64,0,1,1,15.28,0,7.75,7.75,0,0,1-.5,2.75,3.18,3.18,0,0,0,3,4.33H138c.07.9.1,1.81.1,2.71a34.7,34.7,0,0,1-69.39,0c0-.9,0-1.81.1-2.71Z"/></g></g></svg>