<svg id="Capa_1" data-name="Capa 1" xmlns="http://www.w3.org/2000/svg" viewBox="0 0 1920 1080"><defs><style>.cls-1{fill:#fa333f;}.cls-2{fill:#a52d3e;}</style></defs><rect class="cls-1" width="1920" height="1080"/><path class="cls-2" d="M1920-214.85v-34h-10.34l-43.07,51.16L1824-248.82h-20.68l-43.58,51.15-42.11-51.15h-22.16q-20.89,25.53-41.87,51.14c-14.76-17.23-29.29-34.18-43.81-51.14h-20.69l-42.32,51.2c-14.61-17.25-29-34.22-43.36-51.2H1482.7l-42.83,51.12L1397-248.82h-20.69L1333-197.7l-42.35-51.12h-22.16c-8.7,10.64-17.44,21.26-26.08,31.94-5.14,6.35-10.11,12.78-15.7,19.87l-42.43-51.81h-22.16L1120-197.65l-43.59-51.17h-20.68l-42.61,51.17-43.08-51.17H949.38l-43.06,51.16-42.63-51.16H843l-43.57,51.15-42.12-51.15H735.16c-13.92,17-27.85,34-42.38,51.75-5.66-7.12-10.82-13.71-16.1-20.22-8.53-10.53-17.15-21-25.72-31.53H628.79l-42.33,51.14-43.35-51.14H522.43l-42.85,51.14-42.84-51.14H416.06l-43.33,51.15-42.36-51.15H308.21c-8.71,10.67-17.46,21.32-26.12,32C277-210.46,272-204,266.4-197L224-248.82H201.84l-42.11,51.14-43.58-51.14H95.47l-42.6,51.18L9.78-248.82H-.56v34q13.5,16.46,27,32.91c3.39,4.12,9.43,8.15,9.53,12.3.1,3.83-6.3,7.68-9.59,11.66C17.34-147,8.42-136-.56-125.06v67.94C8.6-46,17.7-34.79,26.94-23.69c3.18,3.81,6.72,7.41,10,11L-.56,32.66V100.6C8.57,111.76,17.63,123,26.86,134c3.17,3.81,6.77,7.37,10.11,11L-.56,190.39v67.94C5.28,265.47,11,272.66,17,279.73c5.7,6.78,11.77,13.36,17.31,20.22,1.16,1.44,1.84,4.33.87,5.55-11.29,14.11-22.93,28-34.51,42-.24.3-.79.42-1.2.62v67.95q13.71,16.69,27.42,33.4c3.25,4,9,7.82,9.16,11.81.09,3.65-6.05,7.34-9.21,11.15C17.62,483.53,8.56,494.7-.56,505.84v67.94C8.6,584.93,17.7,596.11,27,607.21c3.17,3.81,6.71,7.41,10,11L-.56,663.56v68c9.13,11.15,18.2,22.34,27.43,33.43,3.17,3.81,6.78,7.37,10.11,11L-.56,821.29v67.94C5.28,896.37,11,903.56,17,910.64c5.7,6.78,11.76,13.35,17.3,20.22,1.16,1.43,1.85,4.33.88,5.54-11.29,14.11-22.93,28-34.51,42-.24.29-.79.41-1.2.62V1047q13.5,16.45,27,32.9c3.39,4.12,9.43,8.16,9.53,12.31.1,3.82-6.3,7.68-9.59,11.65-9,10.94-18,21.94-26.95,32.92v67.94c9.16,11.16,18.25,22.34,27.49,33.44,3.18,3.81,6.72,7.41,10,11L-.56,1294.47v34H9.78l43.06-51.15,42.63,51.15h20.68l43.59-51.2,42.1,51.2H224l42.42-51.86c5.41,6.85,10.25,13.13,15.26,19.32,8.79,10.88,17.68,21.7,26.53,32.54h22.16l42.32-51.12,43.37,51.12h20.68l42.81-51.18,42.88,51.18h20.68l43.34-51.14,42.34,51.14H651c8.71-10.68,17.47-21.33,26.13-32,5.13-6.34,10.1-12.77,15.68-19.83,14.6,17.86,28.5,34.86,42.39,51.87h22.16l42.12-51.2,43.57,51.2h20.68l42.6-51.2,43.09,51.2h20.68l43.08-51.15,42.61,51.15h20.68l43.57-51.2,42.12,51.2h22.16q18.78-23.39,37.58-46.74a65.59,65.59,0,0,1,4.89-4.73c5.33,6.63,10.07,12.57,14.87,18.47q13.41,16.51,26.87,33h22.16l42.31-51.15c14.62,17.23,29,34.19,43.37,51.15H1397l42.83-51.15,42.85,51.15h20.69l43.35-51.18,42.33,51.18h22.16l42-51.63,42.23,51.63h22.16l42.08-51.18,43.61,51.18H1824l42.61-51.15q21.66,25.7,43.08,51.15H1920v-34q-13.29-16.21-26.58-32.42c-3.53-4.29-9.85-8.47-10-12.79-.12-4,6.47-8,9.91-12.19,8.94-10.77,17.77-21.59,26.65-32.39v-67.94c-9.15-11.14-18.23-22.32-27.47-33.41-3.17-3.81-6.71-7.41-10-11,8.34-10.11,16.53-20.06,24.75-30,4.23-5.12,8.5-10.22,12.75-15.32V979c-8.86-10.82-17.65-21.67-26.62-32.42-3.44-4.14-7.28-8.06-10.91-12.05L1920,889.23V821.29q-13.71-16.71-27.42-33.41c-3.26-4-9.08-7.81-9.19-11.79-.1-3.66,6.06-7.35,9.21-11.16,9.2-11.1,18.28-22.28,27.4-33.42v-68c-9-11-17.9-22-27-32.94-3.31-4-7-7.71-10.55-11.51L1920,573.78V505.84c-9.15-11.15-18.23-22.33-27.47-33.42-3.17-3.81-6.72-7.41-10-11.05,8.34-10.1,16.55-20.06,24.77-30,4.23-5.11,8.5-10.21,12.75-15.31V348.11c-8.86-10.81-17.65-21.66-26.62-32.42-3.44-4.14-7.27-8.07-10.9-12.06l37.52-45.3V190.39c-9-11-17.92-22-27-32.93-3.31-4-7-7.71-10.51-11.52L1920,100.6V32.66Q1906.71,16.45,1893.42.24c-3.53-4.29-9.86-8.47-10-12.79-.12-4,6.47-8,9.91-12.19,8.94-10.76,17.77-21.58,26.65-32.38v-67.94c-9.15-11.15-18.23-22.32-27.47-33.42-3.17-3.8-6.71-7.4-10-11.05,8.34-10.11,16.53-20.06,24.75-30C1911.48-204.65,1915.75-209.74,1920-214.85Zm-106.71-.44,36.92,45.22-36.9,45.39-36.9-45.15Q1794.37-191.94,1813.29-215.29ZM283.94,509.89c7.29,8.84,14.82,17.53,21.95,26.44,1.17,1.47,2,4.35,1,5.55-12.64,15.83-25.62,31.49-38.52,47.19-.55.67-1,1.37-2,2.68l-42.09-51.92,42-51.87C272.5,495.72,278.14,502.85,283.94,509.89ZM282.61,461l36.88-45.42,37,45.34-36.87,45.42Q300.84,483.34,282.61,461ZM319.55,573.3l36.87,45.42c-11.95,14.67-24.3,29.82-36.89,45.29l-36.95-45.35ZM331,539.81l41.9-51.69,42.06,51.75-42.16,51.44Zm58.35-78.89,36.94-45.36,36.88,45.35-36.84,45.4Zm37,112.24c3.54,4.41,6.89,8.68,10.37,12.89,8.14,9.85,16.42,19.62,24.41,29.56,1.07,1.33,1.82,4,.95,5C450.58,635,438.76,649.1,427,663.27c-.1.12-.44.11-1.16.27l-36.58-44.85ZM437.82,540l41.67-52,42,51.75c-13.68,16.88-27.49,33.92-41.91,51.73C465.24,573.79,451.42,556.78,437.82,540Zm59.85-81.73c10.71-13.53,21.75-26.88,32.72-40.27a30.24,30.24,0,0,1,2.61-2.41L569.82,461l-37.07,45.55c-3.6-4.55-6.94-8.9-10.45-13.16-8.13-9.84-16.46-19.57-24.39-29.53C496.83,462.47,496.64,459.6,497.67,458.3Zm-.25,158c11.12-14,22.53-27.83,33.89-41.69a7.92,7.92,0,0,1,1.79-1.16l36.78,45.2-37.22,45.58c-6.71-8.64-13-17-19.58-25.1-4.91-6-10.43-11.73-15.31-17.77C496.77,620.14,496.49,617.5,497.42,616.33Zm47-76.53,41.88-51.7,41.94,51.7-42,51.72ZM602.74,461l36.88-45.36,36.9,45.34L639.61,506.3ZM639.62,573.3l37,45.39-37,45.32-36.91-45.33Zm35.31-4c-7.15-8.69-14.57-17.23-21.58-26-1.2-1.49-2.15-4.38-1.22-5.55,12.84-16,26-31.84,39.16-47.69a11.32,11.32,0,0,1,2.16-1.4l41.46,51.16-42,51.82C686.54,583.72,680.82,576.46,674.93,569.3Zm34.45-108.39c12-14.73,24.28-29.76,36.91-45.26l37,45.28-37,45.37C733.85,491,721.59,475.92,709.38,460.91ZM746.3,573.3l37,45.42c-12,14.68-24.36,29.81-37,45.23l-36.89-45.24Zm11.49-33.54,41.83-51.65,42,51.63-41.95,51.84Zm58.32-78.85,36.9-45.3L890,460.9,853,506.32ZM853,573.34l37,45.34c-12.09,14.84-24.31,29.82-36.9,45.28L816.1,618.75Zm11.5-33.5,41.8-51.66,42.09,51.58-42,51.67Zm58.82-80.55c12-14.43,24.21-28.7,36.69-43.36l36.73,45-37.16,45.49c-4.43-5.61-8.5-11-12.85-16.21-7.33-8.82-14.92-17.49-22.21-26.33C923.47,462.65,922.53,460.21,923.29,459.29Zm1,156.86c10.74-13.47,21.89-26.73,32.94-40,.65-.78,1.43-1.5,2.55-2.67l36.94,45.19c-12.2,15-24.32,29.86-37.09,45.54-5-6.29-9.62-12.33-14.51-18.22-6.63-8-13.62-15.76-20.08-23.83C923.78,620.59,923.19,617.48,924.25,616.15Zm46.93-76.36,41.91-51.67c14.35,17.7,28.16,34.72,41.9,51.65l-41.91,51.7Zm58.34-78.87,36.88-45.33,36.93,45.34-36.92,45.37Zm36.91,112.44,37,45.34-37,45.22c-12.47-15.3-24.7-30.28-36.89-45.23Zm11.38-33.57,42-51.73,41.9,51.79-42,51.69C1105.42,573.87,1091.59,556.79,1077.81,539.79Zm58.35-78.88,36.95-45.28c12.49,15.32,24.72,30.3,37,45.29l-36.94,45.38Zm36.95,112.44,37,45.32-37,45.32-36.95-45.34Zm11.4-33.59c13.69-16.86,27.55-33.91,42.09-51.8,6.17,7.72,11.71,14.8,17.43,21.77,7.42,9,15.08,17.92,22.39,27,1.07,1.34,1.86,4,1,5-13,16.14-26.33,32.11-39.59,48.11A9.5,9.5,0,0,1,1226,591Zm58.4-78.81c12.13-14.93,24.38-30,36.87-45.37l36.94,45.34-36.88,45.36Zm36.9,112.31,36.89,45.46c-12,14.72-24.35,29.87-36.91,45.27-12.51-15.36-24.73-30.38-36.9-45.31Zm11.44-33.45c13.57-16.76,27.37-33.83,41.85-51.72l42,51.67-41.91,51.76Zm58.3-78.83,37.16-45.64c3.77,4.76,7.13,9.13,10.64,13.4,8,9.7,16.09,19.31,23.92,29.08,1.1,1.36,2,4,1.21,5.05-11.76,14.35-23.84,28.52-36.16,43.11Zm37.18,112c7.6,9.72,14.63,18.91,21.93,28,4.06,5,8.75,9.71,12.78,14.75,1,1.31,1.65,3.92.77,5-11.31,14.17-22.93,28.19-34.5,42.23-.22.27-.83.33-1.53.59-12.24-15-24.49-30-36.64-44.88Zm11.17-33.19,42-51.71,41.87,51.69-41.85,51.68ZM1456.3,461l36.86-45.36,37,45.32c-12.11,14.85-24.35,29.88-37,45.39Zm36.92,112.29,36.92,45.46-37,45.34q-18.62-22.9-36.88-45.34Zm11.47-33.53q20.13-24.8,41.88-51.58l41.92,51.65-41.9,51.69ZM1563,460.89l36.87-45.31,36.9,45.39-36.92,45.37Zm36.88,112.41,36.93,45.39L1599.91,664,1563,618.71Zm11.44-33.49,41.86-51.72,42,51.69-42,51.76Zm0-157.79,41.89-51.67,41.87,51.77-41.87,51.71Zm-11.44-33.49L1563,303.25l36.87-45.44,37,45.43Zm-11.45,33.52-41.88,51.79-42-51.78,41.94-51.73Zm-95.52-33.13c-6.81-8.81-13-17-19.45-25.05-4.9-6-10.42-11.75-15.31-17.79-1-1.29-1.54-3.94-.63-5.06,11.6-14.23,23.5-28.29,35.79-42.95l36.78,45.15Zm-11.15,33.17-41.88,51.65-42.05-51.64,42-51.75Zm-59.49-76.87c-11.29,14.17-22.89,28.18-34.44,42.2-.23.29-.82.37-1.65.72l-36.64-45,37.24-45.63c6,7.79,11.45,15.16,17.28,22.31,5.61,6.87,11.75,13.44,17.35,20.31C1422.51,301.48,1423.17,304.12,1422.3,305.22Zm-47.2,76.87c-13.65,16.82-27.48,33.85-41.95,51.69l-41.91-51.72,41.92-51.72ZM1279.72,348l-36.59-44.9,36.69-45.15,36.9,45.26C1304.59,317.85,1292.39,332.61,1279.72,348Zm-13.44,30.86c1.11,1.37,2.09,4,1.25,5.06-13.4,16.42-27.11,32.67-41.3,49.62l-41.68-51.41,41.88-51.43c5.71,7,10.69,13.11,15.76,19.21C1250.22,359.52,1258.39,369.09,1266.28,378.82Zm-93.11-30.47-37.07-45.07,37-45.37,36.92,45.38Zm-11.52,33.74-41.83,51.67-42-51.67c13.83-17,27.68-34.1,42-51.76Zm-95.27-33.57L1029.5,303.2l36.93-45.33,36.94,45.39C1091.46,317.82,1079.18,332.86,1066.38,348.52ZM1055,382.13l-41.94,51.67-41.93-51.73,42-51.75Zm-95.24-33.65-37.08-45.26,37-45.25,37,45.21ZM948.29,382.1l-41.91,51.75C892,416,878.27,399.07,864.53,382.07l41.83-51.78C920.64,348,934.51,365.07,948.29,382.1ZM853,348.54l-36.94-45.35L853,257.87l37,45.34Zm-11.41,33.52L799.52,434c-6.59-8.33-12.53-16.07-18.76-23.66-6.85-8.35-14.08-16.5-20.84-24.89-1.18-1.46-2-4.34-1.1-5.51,12.67-15.82,25.68-31.45,38.63-47.12a27.27,27.27,0,0,1,2.45-2.19Zm-95.56-33.24c-6.14-7.92-12-15.62-18-23.18-5.94-7.41-12.12-14.67-18.54-22.43l36.89-45,36.92,45ZM735,382l-42,51.73-41.89-51.6L693,330.5Zm-95.63-33.46c-4.09-5.15-8.1-10.35-12.3-15.44-7.31-8.85-14.85-17.56-22-26.48-1.18-1.48-2.08-4.36-1.15-5.54,11.27-14.19,22.9-28.18,34.47-42.21a6.23,6.23,0,0,1,1.46-.86c12.36,15.21,24.49,30.12,36.76,45.2Zm-11.43,33.73L586.3,433.85l-41.89-51.79,42-51.88Zm-95-33.58c-4.27-5.3-8.29-10.41-12.44-15.44-7.31-8.84-14.84-17.56-21.92-26.52-1.24-1.57-2-4.67-.9-6,10.93-13.89,22.27-27.56,33.52-41.28a12.57,12.57,0,0,1,2-1.43l36.76,45.12C558,317.76,545.77,332.82,532.84,348.73Zm-11.38,33.36c-13.5,16.68-27.31,33.75-41.86,51.71l-42-51.71,41.94-51.78Zm-95.23-33.48L389.3,303.22l37-45.41,36.83,45.43Q445.17,325.3,426.23,348.61ZM414.77,382.1l-41.89,51.74L331,382.08l41.92-51.76Zm-95.25-33.53-36.91-45.34,36.94-45.46,36.88,45.49C344.29,318.15,332,333.3,319.52,348.57ZM283.82,352c7.28,8.87,14.84,17.58,21.92,26.55,1.25,1.57,1.95,4.72.88,6-12.38,15.52-25.14,30.83-37.83,46.19a35.9,35.9,0,0,1-2.87,2.72l-41.65-51.43,42-51.87C272.48,337.92,278.07,345,283.82,352ZM213,348.36l-37.06-45.17,37-45.32,36.87,45.36Q231.32,325.85,213,348.36Zm36.81,112.56c-12.18,15-24.44,30-36.92,45.35l-37-45.31,36.95-45.32Zm0,157.74c-12.25,15-24.37,29.9-36.89,45.28l-37-45.23,37-45.38ZM213,731.24l36.8,45.11-36.88,45.36c-12.7-15.54-24.83-30.41-37.07-45.39Zm11.28-33.73,41.93-51.69,41.91,51.72-41.89,51.71ZM319.55,731c12.37,15.23,24.58,30.25,36.88,45.37l-36.9,45.37-36.91-45.39ZM331,697.52l41.9-51.69,42,51.71-42,51.67Zm95.24,33.56,36.94,45.25-36.88,45.48-37-45.46Zm11.46-33.54c13.79-17,27.5-34,41.89-51.74l42,51.72-42,51.74C465.27,731.6,451.45,714.56,437.66,697.54Zm59.08,77.29c11.9-14.49,24-28.84,36.38-43.57l36.75,45.12L532.75,822c-8.26-10.48-16-20.48-24-30.35-3.52-4.36-7.64-8.4-11.2-12.74C496.68,777.85,496,775.69,496.74,774.83Zm47.61-77.3c13.5-16.65,27.33-33.71,41.92-51.69l42,51.69c-13.51,16.65-27.38,33.72-41.94,51.65ZM639.64,731l36.64,45.53-36.67,45.18c-12.47-15.32-24.69-30.35-36.89-45.33ZM676,728.31c-7.58-9.17-15.34-18.24-22.73-27.51-1.15-1.44-1.87-4.31-.91-5.51,12.54-15.69,25.41-31.19,38.22-46.72a33.69,33.69,0,0,1,2.71-2.47c14.16,17.49,27.87,34.43,41.64,51.42l-42,51.57C686.84,741.61,681.45,734.93,676,728.31Zm70.21,2.75,37.09,45.29-36.95,45.39-36.58-45.32Zm11.6-33.51,41.84-51.77,42,51.76q-20.18,24.88-41.92,51.7Zm95.26,33.52c12.59,15.47,24.69,30.33,36.93,45.35L853,821.7c-12.49-15.39-24.69-30.4-36.87-45.4Zm11.32-33.54,42-51.73,41.84,51.7-41.8,51.77Zm95.38,33.56,36.94,45.34c-11.94,14.6-24.19,29.61-37,45.22l-37-45.28Zm11.37-33.58L1013,645.87l42,51.58-42,51.8Zm95.3,33.55,37,45.34-36.93,45.26-37-45.24C1041.58,761.55,1053.8,746.55,1066.42,731.06Zm11.38-33.56q20.37-25.08,42-51.68l41.92,51.72-42,51.71Zm95.34,33.5L1210,776.48l-36.72,45-37.14-45Zm11.41-33.46c13.68-16.91,27.52-34,42-51.89,6.18,7.7,11.74,14.78,17.48,21.76,7.42,9,15.08,17.92,22.39,27,1.08,1.35,1.86,4,1,5.08-12.59,15.65-25.48,31.14-38.33,46.65a29.63,29.63,0,0,1-3,2.65Zm95.42,34,36.8,44.79-37,45.43-37-45.38Zm11.47-34c13.75-17.08,27.4-34,41.68-51.74L1375,697.5c-13.51,16.73-27.31,33.79-41.88,51.81Zm95.26,33.34c4.46,5.62,8.48,10.83,12.69,15.95,7.15,8.69,14.53,17.27,21.54,26,1.21,1.51,2.32,4.4,1.41,5.53-11.68,14.39-23.74,28.58-36,43.18l-36.8-45.15Zm11.23-33.3,41.92-51.68,42,51.65-41.94,51.73ZM1493.18,731l37,45.35-36.94,45.42-36.93-45.42Zm11.46-33.51c13.63-16.81,27.45-33.86,41.91-51.72,14.37,17.72,28.16,34.73,41.94,51.74l-41.91,51.72ZM1599.9,731l36.94,45.37-36.91,45.38L1563,776.36Zm21.82-20.93c-3.48-4.33-9.86-8.48-10-12.82-.12-4,6.54-8,9.92-12.2,9.23-11.41,18.29-22.91,27.45-34.35,1.18-1.48,2.56-2.86,4.29-4.77,14.23,17.56,28.07,34.64,41.79,51.59l-42,51.88C1642.16,735.66,1632,722.85,1621.72,710.08Zm84.87,21,37,45.29c-12,14.62-24.23,29.63-37,45.25l-36.92-45.25Zm-36.95-112.44,36.95-45.28,37,45.28c-12,14.73-24.3,29.75-37,45.31Zm0-157.73,36.94-45.28,37,45.28-37,45.36Zm0-157.72,36.92-45.35,37,45.33-37,45.36Zm0-157.75,36.95-45.27c12.4,15.18,24.66,30.21,37,45.31l-37,45.28Zm25.55,78.9-42.07,51.87c-6.3-7.89-12-15.15-17.83-22.3-7.28-8.85-14.83-17.55-22-26.46-1.08-1.33-1.83-4-1-5.07,13.36-16.38,27-32.6,41.14-49.51Zm-95.28-33.57c-12.54-15.39-24.79-30.41-36.92-45.28l36.88-45.42,37,45.38Zm-11.44,33.57-41.86,51.72-42-51.72,42-51.75Zm-95.26-33.47-36.92-45.44,36.91-45.22,37,45.24Zm-11.42,33.48-41.92,51.72-42-51.76,42-51.66Zm-59.3-77.05c-11.75,14.38-23.81,28.59-36.15,43.25l-36.81-45,37.25-45.72c7.42,9.57,14.13,18.47,21.17,27.19,4.2,5.21,9.08,10.05,13.32,15.25C1422.39,143.61,1423.34,146.28,1422.5,147.32ZM1375,224.37l-41.84,51.7-41.93-51.71,41.94-51.73Zm-95.21-33.51c-12.54-15.42-24.78-30.47-36.9-45.39l36.89-45.33,36.92,45.35ZM1245,195.53c7.14,8.69,14.57,17.22,21.59,26,1,1.29,1.49,3.93.59,5.06-12.71,15.81-25.7,31.47-38.62,47.17l-2,2.41-42.07-51.75,42-51.91C1233.05,180.6,1238.94,188.12,1245,195.53Zm-71.89-4.71-37-45.31,36.9-45.36,37,45.28Zm-11.44,33.5-41.93,51.8-41.92-51.79,41.89-51.71Zm-95.25-33.56-37-45.27,36.92-45.31,37,45.29ZM1055,224.44c-13.56,16.72-27.41,33.78-41.9,51.63l-41.94-51.73,41.93-51.75Zm-95.2-33.71-37.1-45.26c12.23-14.84,24.52-29.77,37-44.94,12.47,15.09,24.78,30,37.07,44.89C984.78,160.07,972.53,175.09,959.76,190.73Zm-11.45,33.6-41.9,51.75-42-51.78,42-51.71ZM853,190.77l-37-45.31,37-45.29L890,145.49Zm-11.38,33.64-42,51.66-41.89-51.73,41.93-51.73Zm-95.31-33.57-36.9-45.33,36.87-45.33,37,45.26ZM734.9,224.33,693,276.06c-14.37-17.72-28.22-34.77-42-51.72l42-51.71Zm-95.24-33.49c-12.42-15.24-24.7-30.3-37-45.32l36.91-45.37,36.95,45.28C664.29,160.53,652.19,175.41,639.66,190.84ZM628.2,224.31l-41.89,51.76-41.95-51.69,41.87-51.73Zm-95.09-33.77c-12-14.37-23.55-27.94-34.73-41.69-1.22-1.5-1.7-4.64-.62-6,10.66-13.57,21.72-26.92,32.7-40.32a26.1,26.1,0,0,1,2.52-2.31l36.92,45.26Zm-11.6,33.83L479.6,276.09l-41.93-51.73,41.9-51.71C493.81,190.2,507.61,207.23,521.51,224.37Zm-95.28-33.51c-12.62-15.49-24.85-30.53-37-45.42l36.88-45.1c12.67,15.41,24.83,30.19,37.09,45.08Zm-11.4,33.49-41.94,51.7L331,224.35l41.92-51.73Zm-95.27-33.51-37-45.37,37-45.41,36.79,45.51C344,160.74,331.82,175.75,319.56,190.84Zm-35.85,3.24c7.39,9,15,17.91,22.23,27,1.11,1.38,2.18,4,1.35,5-13.35,16.39-27,32.61-41.29,49.69l-41.75-51.45,42-51.84C272.43,180.14,278,187.14,283.71,194.08Zm-70.83-3.29q-18.69-22.86-37-45.31l37-45.29,36.91,45.32Zm-35,4.68c7,8.52,14.32,16.85,21.22,25.41,1.19,1.48,2.18,4.38,1.25,5.52-13.37,16.37-27.07,32.56-41,49.2L117.5,224.44l42.12-52C166.05,180.55,171.86,188.08,177.92,195.47Zm-18.4,135.24c11.12,13.72,21.54,26.6,32,39.45,3.37,4.14,9.46,8.17,9.55,12.32.08,3.84-6.39,7.67-9.65,11.68C181.21,406.73,171.16,419.39,161,432a11.32,11.32,0,0,1-1.89,1.27l-41.63-51.2Zm.1,157.17c6.56,8.24,12.45,15.82,18.57,23.28,7,8.53,14.33,16.88,21.2,25.48,1.13,1.42,1.7,4.29.72,5.51-12.56,15.68-25.45,31.18-38.27,46.72-.55.66-1.25,1.23-2.49,2.45L117.52,539.8C131.2,522.93,145.05,505.86,159.62,487.88Zm-.1,157.89,41.84,51.75-42,51.4Q138.32,723,117.51,697.54Zm.07,157.61c4.43,5.44,8.32,10.25,12.24,15,8.93,10.87,18,21.67,26.7,32.66,1.4,1.77,2.61,5.13,1.54,6.49-11.91,15.07-24.28,29.89-36.54,44.76-1.1,1.33-2.34,2.58-4.13,4.53l-41.86-51.58Zm53.23,85.41,37,45.31-37,45.31-37-45.3Zm11.46-33.56,42-51.84c6,7.52,11.5,14.4,17.09,21.21,7.53,9.19,15.26,18.27,22.67,27.52,1.09,1.35,2,4,1.1,5-13.34,16.36-27,32.55-41.2,49.55Zm95.3,33.51,36.8,45.33-36.81,45.44q-18.75-23-37-45.38C294.63,919.36,306.9,904.31,319.58,888.74ZM331,855.27l41.89-51.76,41.89,51.71L372.89,907Zm95.25,33.48,36.89,45.37-36.9,45.41-36.89-45.41Zm11.43-33.54,41.95-51.66,41.9,51.73C507.92,872,494.1,889.09,479.57,907Zm59.25,77.18c11.86-14.49,24.05-28.79,36.3-43.29l36.64,45L532.77,979.7c-4.1-5.16-7.85-10-11.77-14.78-7.57-9.17-15.32-18.23-22.78-27.46C497.1,936.08,496.07,933.41,496.91,932.39Zm47.45-77.15c13.8-17,27.62-34,41.91-51.69l41.92,51.69L586.3,907ZM604.2,931.7C615,918,626.17,904.54,637.28,891a21.82,21.82,0,0,1,2.42-2.18l36.81,45.32-37,45.44c-4.39-5.48-8.52-10.76-12.81-16-7.16-8.66-14.57-17.19-21.52-26C603.92,936.12,603.16,933,604.2,931.7Zm57.7-63.41c-1.61-2-3.52-3.87-5.23-5.83-7.68-8.8-7.94-5.07-.18-14.41,10.23-12.29,20.14-24.76,30.23-37.13,1.88-2.31,4-4.51,6.24-7.06l42,51.31-42.08,52C682,893.53,672,880.9,661.9,868.29Zm84.41,20.48,37,45.3-37,45.38c-12.46-15.29-24.61-30.18-36.94-45.29Zm11.49-33.48,41.85-51.78,42,51.73-42,51.74Zm95.31,33.47,36.69,45.61L853,979.43l-36.85-45.34C828.17,919.32,840.43,904.3,853.11,888.76Zm11.35-33.49,41.91-51.77,41.94,51.74L906.36,907Zm95.22,33.6,37.05,45.22-37,45.3c-12.56-15.33-24.81-30.29-37.08-45.25Zm11.43-33.62L1013,803.49,1055,855.3,1013.07,907Zm95.27,33.57c12.45,15.26,24.69,30.26,37,45.34l-37,45.25-36.88-45.31Zm11.43-33.58,42-51.77,41.92,51.77L1119.79,907Zm95.27,33.54,37,45.34-37,45.31-37-45.28C1148.18,919.37,1160.44,904.32,1173.08,888.78Zm11.44-33.46,42-52c6.18,7.73,11.71,14.81,17.44,21.78,7.41,9,15.08,17.89,22.33,27,1.12,1.41,1.64,4.27.65,5.51-12.24,15.33-24.82,30.48-37.33,45.66-.8,1-1.76,1.87-3.29,3.47Zm95.3,33.43,36.9,45.39-36.91,45.3c-12.46-15.28-24.7-30.32-36.91-45.3Zm11.42-33.49,41.94-51.73c14.5,17.9,28.32,34.94,41.9,51.69L1333.14,907Zm95.44,33.44c5.61,7.12,10.59,13.69,15.87,20.08,5.93,7.19,12,14.33,18.3,21.26,2.57,2.81,3.12,4.55.34,7.77-10.37,12-20.12,24.39-30.13,36.62-1.32,1.61-2.77,3.15-4.47,5.07l-37.06-45.41C1361.55,919.39,1373.84,904.39,1386.68,888.7Zm11.25-33.45,41.91-51.67,42,51.67L1439.91,907C1425.7,889.46,1411.91,872.46,1397.93,855.25Zm61.24,74.45c11.52-13.28,22.53-26.85,34.12-40.79l36.92,45.25-36.88,45c-11.89-14.22-22.79-27.62-34.24-40.7C1456.08,935,1456.24,933.07,1459.17,929.7Zm45.48-74.5,41.93-51.67,41.89,51.74L1546.58,907Zm95.2,33.56,37,45.37-37,45.32L1563,934.06C1575.12,919.18,1587.47,904,1599.85,888.76Zm13.64-30.17c-1.12-1.38-2.17-4-1.34-5.06,13.36-16.41,27-32.65,41.31-49.75l41.75,51.48-42.09,51.88c-5.25-6.66-9.87-12.72-14.74-18.64C1630.14,878.5,1621.66,868.63,1613.49,858.59Zm93.11,30.18,37,45.32-37,45.33-37-45.29Zm11.47-33.46L1760,803.62q21.48,26.46,41.93,51.64L1760,907Zm32.13-117.7c-10.13-12.33-20.32-24.62-30.27-37.05-1.07-1.32-1.79-4-.91-5,13.37-16.37,27-32.58,41.14-49.45l41.95,51.69c-6.77,8-14,16.4-20.87,24.9s-13.53,17.15-21.21,26.92Zm9.72-146.06c-14.46-17.9-28.15-34.83-41.86-51.81l41.86-51.66,42,51.74Zm-.1-157.58c-4.39-5.45-8.22-10.25-12.13-15-9.18-11.19-18.48-22.32-27.5-33.6-1.08-1.35-1.72-4.05-.82-5.17,13.24-16.44,26.77-32.72,40.62-49.51L1801.91,382Zm.14-157.89c-14.23-17.56-28-34.54-41.93-51.7L1760,172.61l42,51.74Zm-.16-157.55c-6.57-8.26-12.47-15.87-18.61-23.35-6.85-8.36-14.07-16.53-20.77-25-1.24-1.57-2-4.68-1-6,12.23-15.37,24.84-30.54,37.37-45.75.82-1,1.81-1.88,3.27-3.38l41.78,51.57Zm-53.19-85.48-37-45.29,36.94-45.26,37,45.24Zm-11.43,33.57-42.06,51.88c-6-7.53-11.43-14.46-17-21.27-7.55-9.18-15.37-18.22-22.76-27.48-1.12-1.4-1.63-4.28-.64-5.51,12.38-15.5,25.08-30.82,37.72-46.18.68-.82,1.56-1.52,3-2.93ZM1600,33.09l-37-45.24,37-45.52,36.82,45.48Zm-11.49,33.56-41.9,51.69L1504.65,66.6l41.92-51.72ZM1493.21,33.1l-36.93-45.31q18.06-22.2,37-45.44l36.92,45.44Zm-11.46,33.5-41.84,51.73-42-51.7c13.68-16.87,27.5-33.89,42-51.73ZM1422.16-9.93c-11.64,14.15-23.52,28.16-35.79,42.75-12.28-15-24.61-30.06-36.82-45,12-14.8,24.34-29.94,36.8-45.25,12.27,14.65,24.13,28.71,35.75,42.89A4.3,4.3,0,0,1,1422.16-9.93Zm-47.1,76.56-41.91,51.72-41.89-51.73,41.9-51.75Zm-95.27-33.55-36.91-45.32,36.91-45.43,36.9,45.51Zm-34.48,5.05c7,8.52,14.26,16.88,21.15,25.45,1.07,1.33,1.8,4,.93,5.06-12.85,16-26,31.77-39.1,47.59a15.85,15.85,0,0,1-2.21,1.64l-41.53-51.25,42-51.9C1233.23,23,1239.16,30.64,1245.31,38.13Zm-72.2-5.06-37-45.32,36.93-45.27,37,45.29Zm-11.45,33.57-41.87,51.72-42-51.75,42-51.7Zm-59.49-76.72c-11.17,14-22.7,27.74-34.16,41.55a10.51,10.51,0,0,1-1.82,1.29l-36.72-45,37.18-45.57c4.43,5.69,8.43,11.08,12.75,16.29,7.16,8.67,14.64,17.15,21.7,25.88C1102.28-14.17,1103.12-11.27,1102.17-10.08ZM1055,66.67l-41.9,51.64-42-51.69,41.94-51.7C1027.44,32.66,1041.24,49.7,1055,66.67Zm-95.4-33.38c-4.94-6.23-9.43-12.13-14.2-17.87C938.61,7.28,931.5-.69,924.85-8.9c-1.16-1.44-1.89-4.34-.92-5.52,11.62-14.2,23.59-28.2,36-42.86l36.75,45ZM948.27,66.62l-41.89,51.74L864.44,66.62,906.39,14.9ZM853,33,816.14-12.19,853-57.57,890-12.2ZM841.64,66.63l-41.93,51.74-41.9-51.69,41.83-51.85C813.9,32.43,827.79,49.55,841.64,66.63Zm-95.3-33.57-37-45.27L746.3-57.6l37,45.41ZM734.91,66.64l-42.09,51.92c-6.54-8.24-12.31-15.71-18.31-23-7-8.54-14.3-16.9-21.17-25.5-1.17-1.46-2-4.34-1.09-5.52C664.94,48.64,678,33,690.9,17.26c.41-.5.86-1,2.1-2.39C707.37,32.61,721.08,49.56,734.91,66.64ZM639.64,33.11l-36.9-45.32,36.89-45.41c12.52,15.39,24.76,30.44,36.94,45.43Zm-11.4,33.53-42,51.66L544.37,66.62,586.24,15ZM532.7,33.32c-2.09-2.62-3.87-4.92-5.73-7.18-9.59-11.68-19.3-23.3-28.7-35.09-1.15-1.44-1.83-4.31-.86-5.53,11.21-14.2,22.79-28.21,34.3-42.25.23-.28.84-.35,1.48-.59l36.67,45.16ZM521.54,66.65c-13.54,16.67-27.38,33.73-42,51.71L437.67,66.61l41.89-51.69C493.93,32.64,507.75,49.66,521.54,66.65ZM426.23,33.07,389.29-12.21,426.21-57.6l37,45.34Zm-11.4,33.52-42,51.72L331,66.62l41.85-51.68ZM319.56,33.1l-37-45.31L319.52-57.6l36.93,45.33ZM308.07,66.64l-41.9,51.73L224.25,66.62,266.2,14.89ZM212.85,33.05c-12.5-15.29-24.75-30.28-37-45.27,12.29-15,24.55-30.07,37-45.35l36.9,45.39ZM191.61,54.82c3.23,4,9.47,7.82,9.49,11.74s-6.19,7.75-9.41,11.75c-10.56,13.13-21,26.32-32.07,40.22L117.53,66.59c13.7-16.87,27.69-34.08,42.1-51.84C170.6,28.52,181,41.7,191.61,54.82ZM105.9,33.33C99.7,25.41,94,17.93,88.07,10.63,82.59,3.94,76.65-2.49,71.2-9.2c-1.08-1.32-1.91-3.93-1.07-5,11.35-14.13,23-28.08,34.6-42.07a7.84,7.84,0,0,1,1.73-.94l36.66,45Zm.42,67.14,36.8,45C131,160.31,118.78,175.32,106,191c-6.1-7.72-11.68-15-17.54-22.12s-11.94-13.78-17.67-20.8c-1-1.17-1.51-3.57-.7-4.54C81.87,129.27,93.94,115.11,106.32,100.47ZM106,258c12,14.61,23.77,28.75,35.27,43a4.39,4.39,0,0,1-.14,4.65c-10.83,13.67-21.89,27.22-32.92,40.79a20.8,20.8,0,0,1-2.11,1.9L69.26,303.1Zm37.07,203-37,45.3L69.21,460.91c11.94-14.64,24.28-29.8,36.9-45.27ZM106.22,573.42l36.9,45.28-37.2,45.51c-5.91-7.52-11.42-14.77-17.23-21.85s-12-13.79-17.66-20.83c-1-1.28-1.61-3.89-.73-5,10.94-13.62,22.18-27.06,33.36-40.54C104.31,575.22,105.13,574.52,106.22,573.42Zm-.13,157.48,36.7,45.51-36.73,45.45C96.94,810.5,88,799.27,78.92,788.1c-3.24-4-9.4-7.85-9.39-11.76s6.18-7.76,9.43-11.76C87.92,753.57,96.76,742.49,106.09,730.9Zm0,157.93,37,45.3-37,45.29c-12.44-15.26-24.66-30.28-36.92-45.33Zm37,203c-11.91,14.6-24.3,29.76-37,45.31l-36.9-45.32,36.9-45.3ZM117.53,1013l42.11-52c6.76,8.53,12.67,16.18,18.83,23.69,6.85,8.36,14,16.54,20.82,24.93,1.13,1.38,2.22,4,1.4,5.05-13.4,16.39-27.1,32.61-41.4,49.67Q138.13,1038.34,117.53,1013Zm95.3,33.55,36.93,45.3-36.91,45.34-37-45.33ZM224.28,1013l42-51.89c6.17,7.68,11.7,14.7,17.41,21.63,7.43,9,15.11,17.91,22.38,27,1.14,1.44,1.74,4.34.76,5.58-12.4,15.51-25.13,30.85-37.79,46.22-.68.82-1.56,1.51-3.05,2.94Zm95.23,33.46,36.92,45.36-36.88,45.46c-12.43-15.3-24.62-30.32-36.93-45.46C294.72,1076.94,307,1061.88,319.51,1046.45ZM331,1013l41.91-51.72L414.78,1013l-41.88,51.75Zm95.27,33.49,36.92,45.35-36.86,45.39-37-45.35C401.37,1077,413.61,1062,426.22,1046.46ZM437.7,1013l41.86-51.71L521.49,1013l-41.95,51.74C465.09,1046.84,451.38,1029.9,437.7,1013Zm59.65,76.61c11-13.87,22.28-27.54,33.54-41.24a13,13,0,0,1,2.24-1.66q18.63,23,36.71,45.19l-37.09,45.51c-4-5.09-7.82-10-11.75-14.72-7.57-9.19-15.34-18.26-22.74-27.55C497.11,1093.66,496.39,1090.79,497.35,1089.58ZM544.41,1013l41.85-51.71c14.28,17.62,28.06,34.6,41.94,51.73l-41.93,51.73Zm95.18,33.53,36.94,45.28c-12.06,14.86-24.29,29.91-36.92,45.46l-36.85-45.39ZM651.07,1013,693,961.31l42,51.66q-20.37,25.1-41.92,51.68Zm95.22,33.5,37,45.32c-12,14.73-24.29,29.74-37,45.29l-36.92-45.33Zm22-20.88c-3.5-4.34-10.17-8.53-10.14-12.77s6.75-8.41,10.26-12.76c8.82-11,17.46-22,26.21-33,1.45-1.81,3-3.54,5.09-5.89l42,51.72-42.08,51.86C788.75,1051.29,778.56,1038.44,768.25,1025.66ZM853,1046.5,890,1091.84l-37,45.37-36.89-45.4ZM864.5,1013l41.88-51.78L948.27,1013l-41.83,51.73Zm59.09,76.9c11.82-14.31,24-28.44,36.39-43.05l36.73,45-37.23,45.52c-5.26-6.69-10-13-15-19.09-6.48-7.83-13.32-15.46-19.74-23.32C923.6,1093.61,922.73,1090.93,923.59,1089.89Zm47.54-76.83L1013,961.19l42,51.82-41.94,51.65Zm95.25,33.48c12.52,15.32,24.78,30.32,36.95,45.23l-36.89,45.42-37-45.31Zm11.44-33.61q20.48-25.2,42-51.69l41.88,51.73-41.91,51.78Zm95.31,33.59,36.92,45.34q-18.15,22.29-36.94,45.32l-36.95-45.38Zm11.42-33.55,42-51.83c6.19,7.72,11.88,15,17.75,22.08,7.28,8.86,14.79,17.59,22,26.51,1.11,1.37,2.07,4,1.23,5.07-13.38,16.41-27.07,32.66-41.27,49.63Zm95.25,33.52,36.92,45.34c-12,14.81-24.41,30-36.91,45.36l-36.9-45.36Zm11.45-33.51,41.9-51.72,42,51.75-42,51.67Zm95.3,33.48c12.31,15.19,24.49,30.19,36.81,45.38l-36.8,45.36-37-45.39Zm11.31-33.47,42-51.72,41.86,51.74-41.86,51.62Zm59.67,76.69c11.14-14,22.59-27.86,34-41.73a8.93,8.93,0,0,1,1.86-1.21l36.79,45.08-37.28,45.73c-6.49-8.44-12.33-16.33-18.55-24-5.18-6.38-11-12.42-16.14-18.79C1457.16,1093.46,1456.63,1090.81,1457.53,1089.68Zm46.92-77c7.11-8.46,14.36-16.84,21.29-25.4,6.77-8.36,13.21-16.91,20.57-26.37l42.17,52c-13.52,16.71-27.43,33.89-41.93,51.79Zm95.45,33.79,36.94,45.33-36.94,45.38L1563,1091.86Zm11.46-33.54,41.86-51.73c14.31,17.63,28.15,34.7,42,51.74l-42,51.73Zm95.24,33.55,37,45.3c-12.19,15-24.43,30-36.92,45.36l-37-45.33ZM1718,1013l41.89-51.74c14.26,17.56,28.12,34.63,42,51.72l-42,51.68Zm95.25,33.54c12.5,15.28,24.74,30.26,37,45.27l-37,45.3q-18.78-23-36.91-45.27Zm-37-112.47,37-45.26,37,45.33c-12,14.75-24.3,29.76-37,45.28Zm36.64-112c-3.77-5.19-7-10-10.67-14.59-7.63-9.38-15.66-18.54-23.23-27.95-1.15-1.43-1.79-4.32-.82-5.55,10.64-13.53,21.64-26.87,32.56-40.25.65-.8,1.45-1.51,2.54-2.65l36.85,45.34Zm.34-158.15-36.89-45.34,36.89-45.3c12.63,15.52,24.85,30.55,36.92,45.37Zm-37-203q17.94-22,37-45.29l37,45.26-37,45.3Zm37-112.43-36.66-45.32,36.66-45.43,36.93,45.57C1838.35,317.85,1826,333,1813.28,348.51Zm-36.86-203,36.86-45.34,36.92,45.29-36.92,45.34C1800.83,175.5,1788.63,160.52,1776.42,145.52Zm0-157.73,36.88-45.37,37,45.37-36.94,45.28Zm-16.57-130.12,41.58,51c-13.76,17.26-27.41,34.37-41.46,52l-41.85-51.83Zm-53.22-72.93,37,45.29-37.21,45.07L1669.67-170ZM1695.23-91.11l-42,51.76c-14.35-17.77-28-34.71-41.85-51.79l41.85-51.65Zm-95.33-124.2L1636.84-170l-37,45.41L1563-170ZM1588.47-91.13l-41.89,51.79-41.89-51.83,41.9-51.66Zm-95.28-124.23,36.94,45.42q-17.84,21.88-37,45.35L1456.3-170Zm-53.29,72.52,41.9,51.74-41.91,51.69-42-51.69C1411.58-107.95,1425.42-125,1439.9-142.84Zm-53.16-72.73c4.39,5.58,8.34,10.82,12.54,15.93,7.27,8.86,14.78,17.59,22,26.5,1.11,1.38,2.12,4,1.29,5.06-11.76,14.36-23.85,28.53-36.21,43.17l-36.76-45Zm-53.6,72.74,41.93,51.74q-20.21,24.91-41.89,51.69l-41.94-51.7Zm-53.35-72.48L1316.57-170c-11.91,14.69-24.21,29.85-36.71,45.28L1243-170.14Zm-35.69,94.16c7.44,9,15,17.87,22.26,27,1.12,1.4,1.6,4.27.6,5.51-12.4,15.49-25.13,30.8-37.78,46.15-.68.81-1.48,1.55-2.86,3L1184.61-91l41.87-51.56C1232.63-135.1,1238.33-128.11,1244.1-121.15Zm-71-94.15,37,45.35-36.94,45.3q-18.66-22.86-37-45.32ZM1161.61-91.11l-41.87,51.72L1077.8-91.12l42-51.69Zm-95.22-124.2C1079-199.88,1091.12-185,1103.32-170l-36.91,45.38-36.9-45.34ZM1055-91.13l-41.93,51.75L971.14-91.1l41.91-51.75Zm-131.37-80.8c11.81-14.31,23.95-28.43,36.38-43l36.71,45-37.1,45.41c-2.54-3-4.94-5.9-7.31-8.77-9.24-11.16-18.54-22.28-27.61-33.54C923.59-168.21,922.74-170.88,923.61-171.93Zm-17.23,29.09,42,51.73L906.4-39.38c-14.24-17.56-28-34.58-42-51.73ZM853-215.32,890-170,853-124.6l-37-45.36Zm-53.35,72.5,42,51.7-42,51.74L757.76-91.1Zm-53.4-72.51,37,45.35-37,45.36-36.85-45.23ZM693-142.18l41.74,51.31C721.15-74.1,707.33-57.07,693-39.45l-42-51.7Q671.35-115.78,693-142.18Zm-53.37-73.16,36.8,45.47-36.81,45.22c-12.37-15.21-24.57-30.23-36.88-45.36ZM628.21-91.09c-13.67,16.83-27.5,33.88-42,51.68C572-57.06,558.15-74.1,544.39-91.09c13.52-16.72,27.33-33.77,41.87-51.73ZM497.47-172.36c11-13.87,22.3-27.54,33.56-41.25a14,14,0,0,1,2-1.53l36.8,45.2L532.72-124.4c-3.73-4.71-7.08-9.1-10.6-13.38-8-9.68-16.17-19.26-24-29.05C497-168.25,496.48-171.12,497.47-172.36Zm24.07,81.22L479.62-39.42,437.65-91l41.89-51.78C493.81-125.28,507.62-108.27,521.54-91.14Zm-95.3-124.23C438.8-199.9,451-184.87,463.12-170l-36.85,45.39-37-45.4Zm-53.39,72.55L414.8-91.09q-20.26,25-41.93,51.74L331-91.12Zm-53.34-72.53L356.45-170c-12,14.73-24.3,29.92-36.91,45.43L282.62-170Zm-35.08,95c7.14,8.66,14.54,17.19,21.59,25.9,1.11,1.37,2.08,4,1.23,5.08C293.93-73,280.3-56.74,266-39.62L224.25-91.06l42-51.91C272.69-135,278.46-127.62,284.43-120.36Zm-71.6-94.91,37,45.3-37,45.39L176-170.13C188.06-184.89,200.29-199.89,212.83-215.27ZM190.48-104.22c2.86,3.51,6.49,6.62,9.13,10.23,1,1.42,1.3,4.22.27,5.51C188-73.67,175.85-59,163.74-44.34c-1.22,1.47-2.56,2.87-4.33,4.86L117.68-90.9l41.76-51.85C170.21-129.35,180.27-116.75,190.48-104.22ZM106.1-215.3l37,45.34c-11.92,14.59-24.3,29.74-37,45.28L69.22-169.95ZM10.87-91.12l41.9-51.7L94.64-91.24C81-74.37,67.25-57.34,52.77-39.42Zm0,157.74,41.9-51.71,42,51.7-42,51.76C38.31,100.51,24.61,83.58,10.87,66.62Zm0,157.76,41.89-51.75,42,51.72L52.78,276.06Zm0,157.7c13.47-16.62,27.31-33.71,41.95-51.76l41.87,51.75L52.81,433.82Zm0,157.69q20.28-25,41.93-51.68l42,51.72-42,51.71C38.51,573.92,24.7,556.87,10.85,539.77Zm0,157.75,41.91-51.7,41.95,51.69L52.81,749.25Zm0,157.74,41.9-51.75,41.95,51.78C81,872.22,67.24,889.16,52.81,907Zm0,157.73,41.91-51.75,42,51.72-41.94,51.77Zm41.92,209.45c-14.35-17.71-28.16-34.77-41.93-51.75L52.74,1119l42,51.61Zm53.19,72.5c-9.38-11.67-18.36-22.91-27.44-34.1-3.11-3.83-9-7.51-9-11.26s5.9-7.43,9-11.25c9.11-11.16,18.12-22.36,27.59-34.07l37,45.32Zm53.62-73.07c-14.49-17.68-28.31-34.53-41.94-51.17l41.84-51.86,41.77,52Zm53.22,73-36.54-45,36.59-45.5,36.92,45.22C237.82,1264.25,225.58,1279.26,212.82,1294.9ZM268,1220.34a14.63,14.63,0,0,1-2.22,1.6l-41.55-51.23c13.64-16.8,27.56-34,42.11-51.91,6.51,8.17,12.28,15.62,18.28,22.93,7,8.51,14.3,16.85,21.18,25.41,1.19,1.48,2.11,4.37,1.17,5.54C294.2,1188.68,281.08,1204.49,268,1220.34Zm51.55,74.57-37-45.31,36.93-45.4,36.92,45.33ZM331,1170.69l41.92-51.75,41.87,51.8-41.86,51.7Zm95.25,124.21-37-45.31,37-45.41,36.92,45.35Zm11.45-124.18,41.89-51.78,41.95,51.75-41.91,51.72Zm95.09,124.36c-3.84-4.85-7.4-9.52-11.17-14.08-7.71-9.34-15.63-18.56-23.19-28-1.18-1.48-2.07-4.37-1.12-5.53,11.63-14.39,23.62-28.59,35.79-43.15l36.81,45.26Zm53.49-72.67-41.88-51.74L586.3,1119l41.9,51.74C614.53,1187.56,600.7,1204.61,586.25,1222.41Zm53.49,72.5-36.89-45.45,36.83-45.33c12.36,15.27,24.51,30.31,36.74,45.43Zm35.46-94.32c-7.29-8.84-14.76-17.58-21.94-26.48-1.13-1.4-2.28-4.06-1.46-5.07,13.37-16.4,27.06-32.63,41.48-49.86,14,17.43,27.59,34.4,41.4,51.62l-41.76,51.65C686.72,1214.79,681,1207.66,675.2,1200.59Zm71.13,94.27-37-45.25,36.92-45.4,37,45.4Zm11.6-124.27,41.7-51.62,42,51.72-42,51.8C785.44,1204.82,771.75,1187.77,757.93,1170.59ZM853,1294.84l-36.95-45.18L853,1204.25l37,45.31C878,1264.29,865.75,1279.28,853,1294.84Zm11.41-124.19c13.7-16.89,27.54-33.93,41.94-51.67l41.94,51.73-41.94,51.72Zm95.3,124.21-37-45.31,37-45.24,36.94,45.24Zm53.3-72.38-41.92-51.78L1013,1119l41.93,51.59C1041.27,1187.51,1027.48,1204.61,1013.05,1222.48Zm53.36,72.39-36.93-45.28,36.91-45.31,37,45.3Zm53.34-72.41-41.9-51.78c13.4-16.54,27.09-33.42,41.86-51.63l42,51.62Zm53.36,72.41c-12.51-15.33-24.75-30.35-37-45.38l37.11-45.06,36.84,45.11Zm53.13-73.48-41.79-50.69,42.16-51.84c6.32,7.91,12,15.16,17.85,22.3,7.24,8.83,14.75,17.51,21.9,26.38,1.09,1.36,2,4,1.1,5.08C1254.09,1188.75,1240.42,1204.71,1226.24,1221.39Zm53.45,73.62-36.28-45.45c11.71-14.68,23.88-29.92,36.16-45.29l37.13,45.36Zm11.77-124.6,41.68-51.41c14.4,17.74,28.13,34.65,41.93,51.67l-41.81,51.7Zm131.1,80.92c-11.74,14.39-23.8,28.6-36.21,43.35l-36.78-45.1,37.15-45.64c4.07,5.15,7.8,10,11.72,14.78,7.56,9.2,15.3,18.3,22.75,27.55C1422.31,1247.66,1423.38,1250.32,1422.56,1251.33Zm-24.62-80.61,41.94-51.78,41.91,51.79-41.89,51.65Zm95.25,124.2-36.91-45.32q18.09-22.24,37-45.45l36.92,45.43C1518,1264.45,1505.8,1279.45,1493.19,1294.92Zm53.4-72.48-41.94-51.72,41.9-51.73,41.94,51.69Zm53.31,72.48-36.9-45.3q18-22.18,37-45.46l36.89,45.46Zm11.44-124.22,41.88-51.69,42,51.68-42,51.72Zm95.24,124.12-36.91-45.26,36.89-45.24,37,45.28ZM1718,1170.74l42-51.8,41.7,51.65-41.55,51.69C1745.72,1204.67,1731.85,1187.69,1718,1170.74Zm95.31,124.11c-12.43-15.25-24.64-30.21-37-45.3l37-45.32,36.89,45.39Zm95.25-124.11c-13.46,16.61-27.38,33.8-42,51.78l-41.53-51.77,41.54-51.85Zm.2-157.51c-7.09,8.45-14.33,16.82-21.25,25.38-6.77,8.35-13.2,16.88-20.6,26.4l-42.16-52,41.88-51.7Zm-.15-158-42,51.75c-14.41-17.82-28.13-34.78-41.83-51.7l41.81-51.77Zm0-157.69-42,51.7-41.77-51.71,41.8-51.73Zm-.06-157.72-41.85,51.72-41.94-51.7,41.89-51.77C1880.91,505.68,1894.7,522.71,1908.54,539.82Zm0-157.74c-13.63,16.81-27.44,33.84-41.94,51.74l-41.89-51.74c13.47-16.64,27.27-33.7,41.86-51.75Zm0-157.77-41.95,51.77-41.85-51.65,41.82-51.82Zm0-157.67-42,51.71-41.79-51.74c13.6-16.82,27.41-33.89,41.8-51.7Zm0-157.76-41.91,51.78-41.93-51.82,42.12-51.35Z"/></svg>