<svg xmlns="http://www.w3.org/2000/svg" viewBox="0 0 819.97 191.04"><defs><style>.cls-1{fill:#cb3641;}.cls-2{fill:#4e237c;}</style></defs><g id="Capa_2" data-name="Capa 2"><g id="Capa_1-2" data-name="Capa 1"><path class="cls-1" d="M223.69,191c0-105.51,85.53-191,191-191s191,85.53,191,191Z"/><path class="cls-2" d="M59.89,188.5C25.7,180.4,0,149.5,0,112.94S25.73,46.07,60,38.18c34.23,7.89,60,38.18,60,74.76s-25.73,67.5-60,75.57Z"/><path class="cls-1" d="M77.65,36.15a78.19,78.19,0,0,0-17.69,2c34.23,7.89,60,38.18,60,74.76s-25.73,67.5-60,75.57a77.09,77.09,0,0,0,17.69,2.08,77.94,77.94,0,0,0,77.65-77.65C155.3,70.28,120.31,36.15,77.65,36.15Z"/><path class="cls-2" d="M760.08,38.24c34.19,8.1,59.89,39,59.89,75.55s-25.73,66.87-60,74.77c-34.23-7.9-60-38.18-60-74.77s25.73-67.49,60-75.57Z"/><path class="cls-1" d="M742.32,190.59a78.77,78.77,0,0,0,17.69-2c-34.23-7.9-60-38.18-60-74.77s25.73-67.49,60-75.57a77.08,77.08,0,0,0-17.69-2.07,77.93,77.93,0,0,0-77.65,77.64C664.67,156.46,699.66,190.59,742.32,190.59Z"/></g></g></svg>