<svg xmlns="http://www.w3.org/2000/svg" viewBox="0 0 855.82 211.06"><defs><style>.cls-1{fill:#fff;}.cls-2{fill:#b03943;}</style></defs><g id="Capa_2" data-name="Capa 2"><g id="Capa_1-2" data-name="Capa 1"><path class="cls-1" d="M783,211.06H54.29a2.69,2.69,0,0,1-2.69-2.7V68a2.69,2.69,0,0,1,2.69-2.7H783a72.88,72.88,0,0,1,0,145.75Zm-726-5.4H783a67.48,67.48,0,0,0,0-134.95H57Z"/><path class="cls-2" d="M768.87,178.9H40.21V38.55H768.87A70.38,70.38,0,0,1,839,108.72h0A70.38,70.38,0,0,1,768.87,178.9Z"/><path class="cls-1" d="M768.87,181.59H40.21a2.68,2.68,0,0,1-2.69-2.69V38.55a2.69,2.69,0,0,1,2.69-2.7H768.87a72.87,72.87,0,1,1,0,145.74Zm-726-5.39h726a67.48,67.48,0,0,0,0-134.95h-726Z"/><circle class="cls-1" cx="38.45" cy="38.45" r="38.45"/></g></g></svg>