<svg xmlns="http://www.w3.org/2000/svg" viewBox="0 0 669.26 462.57"><defs><style>.cls-1{fill:#4e237c;}.cls-2{fill:#cc3641;}</style></defs><g id="Capa_2" data-name="Capa 2"><g id="Capa_1-2" data-name="Capa 1"><path class="cls-1" d="M519.49,429.37q-24.8-24.14-24.79-61.83t24.79-61.16Q544.29,282.91,582,282.9t62.49,23.48q24.79,23.47,24.79,61.16t-24.79,61.83Q619.66,453.51,582,453.5T519.49,429.37Z"/><path class="cls-2" d="M561.86,429.37q-24.79-24.14-24.8-61.83t24.8-61.16a83.23,83.23,0,0,1,41.3-21.4A105.3,105.3,0,0,0,582,282.9q-37.69,0-62.49,23.48T494.7,367.54q0,37.69,24.79,61.83T582,453.5a102.43,102.43,0,0,0,21.18-2.13A82.54,82.54,0,0,1,561.86,429.37Z"/><path class="cls-2" d="M373.81,311.62c0,77.09-60.89,151-197.59,151C113.38,462.57,46.65,447,0,417.87l46.65-96.53c36.28,24.62,82.92,37.57,125.68,37.57,43.41,0,71.91-16.84,71.91-47.29,0-27.21-20.08-44.06-69.32-44.06H121.15v-81l81-87.46H23.32V0H351.14V80.33L257.2,181.4C333.65,197.6,373.81,246.83,373.81,311.62Z"/></g></g></svg>