<svg xmlns="http://www.w3.org/2000/svg" viewBox="0 0 527 469.47"><defs><style>.cls-1{fill:#4e237c;}.cls-2{fill:#cc3641;}</style></defs><g id="Capa_2" data-name="Capa 2"><g id="Capa_1-2" data-name="Capa 1"><path class="cls-1" d="M377.23,445.34q-24.8-24.13-24.79-61.83t24.79-61.16q24.79-23.46,62.49-23.47t62.48,23.47Q527,345.83,527,383.51t-24.8,61.83q-24.79,24.15-62.48,24.13T377.23,445.34Z"/><path class="cls-2" d="M235.4,0V462.86h-156V117.7H0V0Z"/><path class="cls-2" d="M419.6,445.34q-24.8-24.13-24.8-61.83t24.8-61.16A83.31,83.31,0,0,1,460.9,301a105.31,105.31,0,0,0-21.18-2.07q-37.7,0-62.49,23.47t-24.79,61.16q0,37.69,24.79,61.83t62.49,24.13a102.43,102.43,0,0,0,21.18-2.13A82.38,82.38,0,0,1,419.6,445.34Z"/></g></g></svg>