<svg id="Capa_1" data-name="Capa 1" xmlns="http://www.w3.org/2000/svg" xmlns:xlink="http://www.w3.org/1999/xlink" viewBox="0 0 1920 1080"><defs><style>.cls-1{fill:none;}.cls-2{fill:#581e7f;}.cls-3{clip-path:url(#clip-path);}.cls-4{opacity:0.5;}.cls-5{fill:#43136a;}</style><clipPath id="clip-path"><polygon id="SVGID" class="cls-1" points="1 1079 1920 1077.99 1920 -9.64 1 -9.64 1 1079"/></clipPath></defs><rect class="cls-2" y="-10" width="1920" height="1090"/><g class="cls-3"><g class="cls-4"><path class="cls-5" d="M1247.63,1102.62h-16c-43.78-59-141.61-59.95-185.39,0h-18.31c.74-29.75-51.27-30.77-63.78-8.73-1.39,2-.27,5.78-.31,8.73H945.51c-43.32-59.18-141.7-59.87-185.39,0H741.81c.93-29.71-50.71-30.77-63.67-8.71-1.42,2-.34,5.76-.42,8.71H659.41c-43.21-59.35-141.8-59.86-185.4,0H458c-1.27-31.41-69.29-32.23-66.37,0H373.31c-42.94-59.63-141.78-59.56-185.4,0h-16c-1.16-31.46-68.58-32.35-66.37,0H87.21c-21.31-30-57.13-44.77-93.85-44.09V1040c18.64,4,29.88-4.79,36.67-22.71-9-11.91-20-20.66-36.67-19V984.29c19.46-.69,33.78,9.18,46.17,24.12l13.3-12.22c-14.34-20.49-35.3-31.08-59.47-32.78v-11.6c30.33-1.68,51.88,14.07,69.76,36.71A144.59,144.59,0,0,0,78.32,979c-21.09-30.42-48.65-47.14-85-48V917c42.11.8,72.72,24.43,98.34,56.87l14.71-4.76c-16.54-40.51-66.52-71.44-113-70.67V877.56c16.57,5.63,39.32-7.09,32.64-26.38-8.15-10.45-19.3-15.6-32.64-15.38V821.88c18.77,1.24,34.24,9.06,45.85,25.29l13.65-12.55c-15.44-20.17-34-32.46-59.5-31.31V789.39c29.74,0,52.17,14.34,69.71,37.74l14.43-8.66c-14.29-29.22-53.61-51.36-84.14-47.64V756.91c43.29-.86,73.69,21.7,97.07,55.76a117.16,117.16,0,0,0,17-6C81,762.36,44,737.93-6.64,736V717.47c17.88,2.11,30.37-4.82,36.43-23.06-7.85-13.8-21.2-19-36.43-21v-11.6c19.87-1.94,33.67,8.93,46.3,23.49L52.72,673.1c-15.13-20.93-34.58-31.56-59.36-32.2V627c29,1.93,52.44,14.41,69.73,38.63l15.58-9.54c-21.76-30.13-48.41-48.31-85.31-47.65V594.5c89.45,3.1,83.24,74.44,114.34,49.38C81.48,604.32,43,572.6-6.64,575.94V555.05c18.47,3.83,30-4.42,36.58-22.46C21.22,520.25,9.85,512-6.64,513.29V499.37c19.38-.38,33.82,9.34,46.22,24.26l12.59-11.52c-13.09-21.41-37.19-34-58.81-31.3V466.89c30.22-1.37,51.92,14.17,69.88,37.07l15.21-9.4c-21.12-31-49-47.27-85.09-48.55V432.09c40.32,2.52,75,22.18,96.68,57.45l16.11-5c-12.84-38.29-65.57-71.3-112.79-71V392.64c8.08-.55,18.27,1.86,23.83-2.21,27-19.4-1.43-38.18-23.83-39.55V337c18.62,1.69,34.38,9,45.85,25.59l13.61-12.71c-15.35-20.24-34-32.3-59.46-31.44V304.47c29.58.39,52.21,14.36,69.69,37.89l14.58-8.62c-14.75-29.42-52.45-50.69-84.27-47.83V272c43.21-.6,73.71,21.87,97.27,56.15l16.92-6.07c-26.45-44.6-63.76-68.65-114.19-71V232.55c18.18,2.76,30.25-4.83,36.49-22.85-7.93-13.85-21.38-19-36.49-21.23V176.86c19.79-1.7,33.67,9,46.3,23.64L52.6,188.39C37.64,167.19,18,157-6.64,156V142.06c28.71,2.34,52.42,14.14,69.39,38.83l15.87-9.41c-21.3-30.41-48.34-48.15-85.26-48V109.58c89.06,3.62,84.23,74,112.76,50.33C87.83,119.05,37.05,88-6.64,91V70.14c18.46,3.94,30-4.28,36.57-22.26C21.29,35.32,9.68,27.53-6.64,28.37V14.45c19.26-.07,33.87,9.36,46.12,24.42l13.6-12.36C37,7,19.2-6.41-6.64-4.11V-18c30.12-1.06,51.92,14.28,69.9,37.2L78.37,9.89c-21-31.43-49.12-47.06-85-48.8v-11.6c43.77-2.1,73.32,21.8,97.31,55.21l15.67-5C92-39.42,41.35-71.12-6.64-71.4V-92.28C10-86.58,32.65-98.67,26-118.38,17.93-129,6.45-133.54-6.64-134V-148c18.82,1.92,34.89,9.34,45.92,25.85l13-12.4c-14.12-21.28-34.34-32.15-58.94-32v-13.92c29.44.72,52.23,14.41,69.68,38l14.56-8.61C62.81-180.4,25.87-201.29-6.64-199v-13.92c87.57.8,84.74,74.73,113.27,49.27C82.1-207.44,42.82-231.24-6.64-233.81v-18.56c18.47,3.36,30-5.12,36.74-23.1C20.94-287,10.33-296.63-6.64-294.13V-308c19.67-1.34,33.73,9,46.17,23.77l13.09-12c-14.9-21.49-34.81-31.28-59.26-32.67v-11.6c30.56-2.55,51.53,14.12,69.91,36.36L81-314.61,41.43-349.82H64.32c6.22,7.17,12.74,14.09,18.6,21.55,8.75,11.15,10.47,11.56,24.26,2.35l-17.69-23.9h16c4.49,6,8.12,15.93,13.66,17.18a86.68,86.68,0,0,0,36.91,0c5.48-1.22,9.07-11.2,13.51-17.21h16q-8.67,12.3-17.35,24.58l1.53,3.42c6,0,14.27,2.54,17.71-.5,8.89-7.85,15.67-18.17,23.29-27.5h22.89l-39,35.23L212-304.3c37.82-49.83,100.17-49.39,137.61-.07L367-314.56l-39.44-35.26h22.89c6.17,7.15,12.64,14.06,18.44,21.5,9.06,11.61,10,11.91,23.43,2.85-4.13-9-11-16.33-16.69-24.35h16c4.48,6,8.1,15.94,13.62,17.18a86.72,86.72,0,0,0,36.92,0c5.49-1.22,9.09-11.19,13.54-17.19h16l-17.47,24.57,1.5,3.45c6.07,0,14.31,2.54,17.77-.5,8.92-7.86,15.72-18.18,23.37-27.52h22.89l-39.15,35.2,17.3,10.31c37.73-49.87,100.56-49.33,137.6,0l17.38-10.24-39.29-35.27h22.89c6.15,7.16,12.58,14.09,18.4,21.52,8.86,11.34,10.28,11.7,24.12,2.4q-8.7-12-17.34-23.92h16c6.47,15.16,17.74,18.42,33.71,19.14,16.51.73,23.74-7.11,30.38-19.14h16l-17.6,24.48,1.41,3.49c6.1,0,14.37,2.56,17.88-.5,9-7.82,15.8-18.14,23.48-27.47h22.89l-39.27,35.2,17.31,10.29c38.09-50,100.48-49.15,137.64.08l17.21-10.32-39-35.25h22.89c6.12,7.16,12.52,14.1,18.29,21.53,8.81,11.33,10.15,11.68,24.11,2.43l-17.22-24h16c9.67,26.11,54.33,25.67,64.09,0h16l-17.68,24.49c.44,1.16.89,2.32,1.34,3.48,6.11,0,14.39,2.56,17.92-.5,9-7.82,15.87-18.14,23.6-27.47H1092l-39.39,35.2L1070-304.33c37.33-49.45,99.84-49.7,137.58.05l17.21-10.29-38.93-35.25h22.89c6.09,7.17,12.43,14.12,18.2,21.54,8.82,11.35,10,11.67,24.09,2.47l-17.11-24h16c9.27,26.58,54.46,25.34,64.09,0h16l-17.77,24.42,1.53,3.55c6.07,0,14.3,2.55,17.79-.5,9-7.83,15.89-18.14,23.63-27.47h22.88l-39.57,35.2,17.75,10.44c18.29-22.4,39.43-38.75,69.89-36.36v11.6c-24.46,1.35-44.36,11.18-59.19,32.61l12.41,11.62c22-20.35,28-23.33,46.78-23.34v13.92c-16.91-2.39-27.71,6.86-36.52,18.68,6.51,18.11,17.9,26.09,36.52,23.08v18.56c-50.5,2.76-88.11,26.51-113.65,70.34,27.77,23.48,33-51.68,113.65-49.46V-199c-37.63-1.56-63.84,17.59-85.45,47.33l16,9.32c17.59-24.31,40.4-37.21,69.42-38.08v13.92c-25.35-.6-44.12,11.36-59.48,31.63l13.57,12.66c11.55-16.48,27.3-23.9,45.91-25.73V-134c-15.78.67-28.16,7.32-36.56,20.57,6.77,17.49,17.79,26.4,36.56,21.19V-71.4c-48,.24-98.79,32.08-113,71.07L1329,4.73c23-33,55.25-58.11,97.13-55.24v11.6c-36.21,1.82-64.46,17.59-85.08,49.08l15.19,8.77c25.11-28.34,41.86-37.1,69.89-37V-4.11c-23.14-2.15-48.94,11.88-58.38,32l12.4,10.91c12.11-15.06,26.74-24.42,46-24.38V28.37c-13.51-1.56-34.09,8.17-35.65,22.53,3.86,15.31,21.12,21.12,35.65,19.24V91c-40.93-4.64-97,29.17-112.38,70.48,7.1,1,13.43,8.87,20.69-1.75,22-32.27,53-48.8,91.69-50.17V123.5c-36.94-.17-63.94,17.65-85.32,47.94l15.85,9.48c17-24.76,40.78-36.47,69.47-38.86V156c-24.63,1-44.31,11.19-59.27,32.46l13.2,12.2c12.24-15.07,26.34-25.32,46.07-23.78v11.61c-15.11,2.27-28.59,7.33-36.7,21.62,7.24,16.76,17.48,25.47,36.7,22.46v18.56c-50.71,2.37-88,26.58-114.23,71.05a152.57,152.57,0,0,0,17.38,5.67c23.61-34.63,54.08-56.33,96.85-55.84v13.92c-31.65-3-69.56,18.43-84.27,47.85l14.73,8.54c17.87-23.89,40.32-37.43,69.54-37.83V318.4c-25.43-.87-44.1,11.26-59.47,31.44l13.64,12.71c11.45-16.57,27.19-23.94,45.83-25.59v13.92c-13.24.1-24.5,5.06-32.67,15.5-6.69,19.43,16.13,31.84,32.67,26.26v20.88c-47.28-.29-100,32.7-112.83,71l14.49,4.55c26.29-32.88,55.75-55.49,98.34-57V446c-36.33,1.44-64.36,17.49-85.06,48.95l15.42,8.86c18.24-23.27,39.82-38.23,69.64-36.93v13.92c-22.46-2.7-49,11.64-58.34,31.77L1380,523.5c12.31-14.79,26.75-24.53,46.13-24.13v13.92c-16.81-1-28.34,7.13-36.26,18.91,6.37,19.71,18.61,26.26,36.26,22.85v20.89c-38.24-5-95.62,26.6-112.23,69.71,25.81,20.1,31.76-51.32,112.23-51.15v13.92c-37.13-.47-64,17.54-85.25,47.87l15.85,9.29c17.4-24.79,40.85-36.56,69.4-38.6V640.9c-24.84.51-44.17,11.38-59.36,32.16l13,12.19c12.74-14.44,26.46-25.49,46.38-23.47v11.6c-15.21,2-28.58,7.2-36.54,21.29,7.21,17.65,17.21,25,36.54,22.8V736c-50.88,2-88,26.48-114.16,71a129.7,129.7,0,0,0,17.33,5.53c23.67-34.39,53.92-56.43,96.83-55.6v11.6c-35.51,2.86-65.4,18.22-85.06,49.54l15.52,9c17.9-23.76,40.21-37.53,69.54-37.64v13.92c-25.56-1.21-44.08,11.18-59.5,31.31l13.63,12.64c11.54-16.41,27.1-24.08,45.87-25.38V835.8c-11.73-1.3-42.49,11.8-33.55,27,7.54,14.82,18.92,17.92,33.55,14.79v20.88c-46-3-98.52,32.82-112.41,71.15L1329.3,974c29.76-39.73,45.52-48.92,96.86-57v13.92c-36.55,1-64.21,17.66-85.18,48.65l15.49,9c18.35-23.07,39.73-38.41,69.69-36.73v11.6c-24.42,2.28-45,11.31-59.16,33.26l13.28,11.77c11.94-15.24,26.47-24.72,45.88-24.15v13.92c-16.58-1.51-27.86,6.88-36.63,19.11,6.65,18,18,26.6,36.63,22.65v18.56c-39.18-1.29-70.18,15.74-96.13,44.09h-16c-.33-24.84-37.61-30.6-53.9-17.49C1254.65,1089.16,1251.72,1096.69,1247.63,1102.62ZM249.45,888.37c-38.47-92.5-185-92.48-223.38,0l15.87,5.06c48.3-74.41,142.73-75,191.66,0ZM1108.94,80.14c-46-92.28-183.34-92.54-224.52-.4,10.19,6.91,16.69,5,24.71-5.59,54.24-70.2,132.48-49.93,186.39,6.6l-3.87,4.56Zm60.21,807c11.82,7.78,18.18,5.29,26.17-5.21,49-65.23,139.67-56.55,182,11.57,6.51-2.11,10.86-3.19,17.26-5.79C1347.87,795.45,1216.21,795.32,1169.15,887.09ZM328.25,893c49-74.74,143-73.85,191.42.43l15.85-5c-37.71-92.47-186.34-91.88-223.42,0C317.46,889.86,322.72,892.44,328.25,893Zm572.05.51c41.81-73.77,149.39-73.39,191.12.12l17.35-5.84c-47.39-92.5-178.68-92.5-225.84-.18C889.37,890.42,893.64,891.32,900.3,893.47Zm-286,0c42.1-74,149.31-73.28,191.25.06l17.23-5.93c-47.78-92.44-179-92.55-225.9.34Zm412-1056.86c11.18,7.49,17.66,6.12,25.89-4.81,45.38-60.23,128.25-60.08,173.53.22,8.18,10.9,14.76,12.1,25.44,4.46C1204.67-254.79,1073.08-254.82,1026.23-163.34Zm-632.49.78c-46.81-92.27-178.64-92.51-225.4-.85,11.46,7.71,17.83,5.9,25.94-4.93,48.21-65.87,140.13-55.79,182.31,11.55Zm428,242c-42.83-93.55-187.56-88.83-223,.86,14.87,5.46,14.87,5.46,24.51-6.93C669,14.45,751,14.35,796.31,74,804.32,84.57,810.73,86.77,821.7,79.43Zm347.49,484.41c10.72,6.49,17.21,6.85,25.29-4.11,48.37-67.16,141.21-56.44,183.28,10.38l15.91-4.92C1353,473.05,1213.63,472.72,1169.19,563.84Zm-572-161.67c11.56,7.85,18,5.81,26-4.92,48.49-66.49,140.65-54.72,182.71,11.3l16.86-5.35C776,310.69,644.53,310.42,597.23,402.17Zm82.63-79.88c-47.58-92.69-179-92.85-226,0L471.23,328c42.07-73.86,149.43-73.38,191.22.09ZM597.2,563.61c10.91,7.09,17.39,6.73,25.4-4,45.62-61,127.95-60.86,174.39-.61,9.88,12.81,9.88,12.81,25.08,4.4C775.29,472.61,644.29,472.76,597.2,563.61ZM249.59,403.49c-40.23-93.62-186.34-91.26-223.26.24l15.75,4.94c48.07-73.95,142.52-75.58,191.69,0Zm286,.13c-37.91-92.46-186.18-92-223.45,0l15.91,5c48.6-74.47,142.56-75,191.59,0Zm143-404C640-93.16,492.09-92.13,455.24-.27L471,4.61c46.71-72.92,141.93-76.36,191.81,0Zm286,0c-39-93.92-189-90.57-222.88.22l14.94,4.75c47.52-74.21,144.07-75.18,192.26,0ZM757.05,327.94c46.7-72.49,141.32-77.13,191.9-.14l15.86-5.22c-42.81-94.74-186.87-90-223.36.3Zm-380.27.13,16.88-6c-47.57-92.59-178.76-92.35-225.9.29l17.09,5.46C233.71,252.7,328.58,253.58,376.78,328.07ZM883.3,402.12c11.61,8.12,18.09,5.6,26-4.95,54-70,133-50.84,184.14,8.76-.59.93-1.19,1.85-1.78,2.77l17.14-5.58C1062.14,310.77,930.39,310.4,883.3,402.12ZM535.55,564.38c-40.09-91.51-185.36-91-222.95.31,9.6,5.82,16.1,5.48,24.06-5.16,45.61-60.89,128.26-60.93,174.07-.16C518.55,569.75,525,570.89,535.55,564.38Zm-509.12,0c14.78,6.94,14.78,6.94,23.65-4.78,45.69-60.35,128.82-60.7,174.74-.74,9.81,12.8,9.81,12.8,25.35,4.69C204.79,472.7,66.93,473.11,26.43,564.34ZM1394.5-82.28c-47.21-91.87-178.67-92.09-225.8.66l17.52,5.7c42.53-74.11,149.14-73.5,191.15,0C1383.84-78.3,1388.7-78.88,1394.5-82.28Zm-571.56.6c-48-92.67-178.83-92.72-226.21.07l17.59,5.67c41.9-74.14,149.41-73.31,191.15,0ZM328.16-76.51c47.93-73.74,141.81-75,191.52.53l17.16-5.73c-47.82-92.76-178.84-92.57-226,0C317.68-79.67,322.09-77,328.16-76.51ZM883,564.12c16.38,6.59,16.38,6.59,26.15-5.89,46.49-59.35,128.75-58.87,174,1,9.55,12.63,10.39,12.79,24.83,4C1060.93,472.56,930,472.75,883,564.12Zm286.33-162c11.63,8.21,18,5.47,25.93-5,48.91-65.19,140-56.64,182.1,11.67l17.36-5.67C1348.17,310.82,1216.4,310.36,1169.34,402.1Zm81.22,405.23c-40.46-93.47-186-91.06-223.28.29l16,5.06c42.16-74.06,149.56-73.07,191.22.19ZM393.79,807c-47.69-92.83-178.78-92.64-226,.07l17.59,5.64c41.88-74,149.51-73.24,191.13.13ZM679-162.21c-46.54-94.14-178.91-91.42-225-.33a132.87,132.87,0,0,0,17.61,5.37c42.32-73.8,149.1-72.76,190.89.43ZM1043.23,4.85c42.35-68.59,133.71-76.65,182.91-11.18,9.67,12.64,9.67,12.64,23.87,4.59C1209.71-94,1063.69-91.22,1027.37-.21Zm-666.89,0,16.22-5.3c-38.36-92.61-187-91.44-223.24.18l15.64,5C233.46-70.14,328.06-69.78,376.34,4.82ZM169.21,484.05c15.33,5.72,15.12,5.53,25.07-6.68,46-63.89,143.29-55.6,181.74,12.19l16.2-5.08C356.1,392.43,206.36,392.37,169.21,484.05Zm571,160.57c10.64,6.59,17.08,7.06,25.24-4,45.19-61.34,129.48-60.85,175.25.14,9,12,10.17,12.16,24.21,3C917.88,553.52,786.81,553.66,740.24,644.62Zm511.4-322.36c-47-92.8-178.61-92.56-225.68-.31a101,101,0,0,0,17.58,5.67c42.34-73.7,148.91-72.92,190.83.42ZM1170.28,79.7c11.37,7.53,17.68,3.89,25.43-6.19C1248.37,4.63,1332,22.54,1380,84.65l13.4-4.18C1355.45-11.72,1208.92-11.65,1170.28,79.7ZM536.33,79c-46.87-91-178.46-91.18-225.09.12,15.92,7.36,15.92,7.36,25.49-5,45.79-59.37,126.91-60,173.09-.59C517.53,83.35,523.72,87.43,536.33,79ZM42.28-76c41.88-73.92,149.43-73.49,191.2.16L250.77-82c-47.83-92.46-179-92.27-226,.38ZM965.86,807.09c-47.54-92.73-178.75-92.83-226-.09l17.36,5.81c41.86-73.79,149.38-73.7,191.18,0ZM899.94-76c48.89-74.77,142.8-75,191.74-.12l16-5.09c-39.57-93.09-186.35-91.43-223.42-.14C889.41-79.11,894.13-78,899.94-76Zm65.34-87.57c-47.22-91.3-178.75-91.31-225.53,1.18l17.47,5.5c42.89-68.48,133.63-76.75,182.48-11C948-156.92,954.53-156,965.28-163.58ZM249.62,79.36C207.35-13.57,62.7-9.81,26.71,80c10.51,6.84,16.88,4,24.81-6.34C97.14,14.05,178.65,14.25,224.25,74,232.18,84.4,238.6,87,249.62,79.36Zm776.66,565.12c11.45,7.5,17.79,6,25.53-4.46,45-60.62,129.32-60.38,174.27.62,8.21,11.14,14.65,10.34,25.14,4C1204.46,553.31,1073.24,553.43,1026.28,644.48ZM662.33,812.77l16.45-5.42c-42.08-94.8-187.76-89.75-223.24.4l15.65,4.88C520.18,737.29,614.62,738.66,662.33,812.77Zm381-323.24c41.45-68.06,133.87-76.76,181.87-11.61,8,10.68,14.32,12.93,24.66,5.89-34.57-91.16-188.11-91.49-222.16.87Zm-301.68-5.68c10.35,7,16.72,4.7,24.73-5.94,48.52-65.49,140-56.12,182.12,11.6l16.08-5.15C925.2,391.54,778.48,392.66,741.63,483.85ZM454.48,644.15c15.26,8.66,15.26,8.66,24.51-3.67,45.61-60.8,130-60.77,175.59.06,9.23,12.3,9.41,12.33,24.43,3.53C632.42,553.52,501,553.65,454.48,644.15Zm0-484.4c10.8,7.21,17.13,6.58,25.1-4.11,45.66-61.26,129.18-60.65,175.18.46,8.89,11.81,10.57,12.05,23.21,3.33C636.68,69.15,498.23,69.19,454.49,159.75ZM678.43,484.39c-38.29-92.56-186.23-92.13-222.95.12L471,489.39c59.06-76,126.48-75.91,191.93,0Zm-510,160.11c10.77,7.19,17.13,6.73,25.11-4.09,45.18-61.25,129.41-60.62,175.35.49,8.85,11.77,10.21,12,24.07,3C346.15,553.58,214.77,553.59,168.41,644.5Zm653.82,80.81c-46.89-91.42-178.27-91.18-224.93,0,15.62,8.06,15.62,8.06,25.2-4.53,45.64-60,128.43-60.51,173.78-.27C804.34,731.18,810.8,733.23,822.23,725.31Zm143-565.85C917.86,68.71,787,68.64,740.32,159.9c10.74,6.72,17.13,6.69,25.18-4.22,44.87-60.81,129.3-60.88,174.27-.27C947.5,165.82,953.89,167.34,965.23,159.46ZM535.68,726.61c-41.46-94.32-186.43-90.09-223.11-.34,10.26,6.51,16.72,4.81,24.76-5.94,48.83-66.72,140.58-54.34,182.89,11.41Zm573-.49C1061.81,634,930,633.61,883.4,725.46c11.38,7.72,17.82,5.72,25.86-5,48.5-66.81,140.39-54.35,183,11.26Zm-858.61.36C202.85,632.12,71.63,635,24.7,726.29l17.58,5.56c47.54-73.34,141.2-76.16,191.39,0Zm919-.91c16.15,7.14,16.15,7.14,25.78-5.42,49.07-65,140.69-56,182.63,11.83l17.18-5.84C1347.51,633.86,1216.66,633.56,1169.12,725.57ZM392.21,160.18c-38.9-92.12-188.56-89.57-222,.74,10.21,7,16.39,4,23.86-6C239,95,322.67,95.08,367.61,155.14,375.24,165.34,381.48,167.57,392.21,160.18ZM1026,968.34c16.76,6.18,16.76,6.18,25.74-5.57,46.08-60.31,129.94-59.5,175.4,1.69,8.37,11.27,10.7,11.55,23.65,2.25C1203.3,876.29,1072.75,876.67,1026,968.34Zm223.94-807.75c-35.69-91.47-187.75-90.5-222,0,9.77,6.78,16,5.26,23.81-5.19,45-60.55,129.66-60.45,174.24.27C1234,166.53,1240.33,166.73,1249.91,160.59ZM169.42,968.43c10.45,6.6,16.83,5,24.5-5.28,44.92-60.42,129.48-60.22,174,.45,7.91,10.78,14.27,11.12,23.79,4.9C355.08,877.07,207.06,877.19,169.42,968.43Zm508.52.17c-35.8-92.33-189.43-90.33-221.72.4,10,6.41,16.27,4.11,23.84-6,44.85-60,128.4-60,173.35-.1C660.88,972.84,667.13,975.59,677.94,968.6Zm63.76-.08c9.41,5.8,15.82,6.11,23.85-4.8,44.82-60.84,128.45-61.12,174-.69,7.93,10.53,14.39,12.23,24.39,5.25C926.57,877.1,778.21,877.39,741.7,968.52ZM25.3-244.24c15.6,7.84,15.6,7.84,25.36-4.81,46.4-60.12,129.3-60.08,174.41,1,8.12,11,14.62,10.64,25.21,4C203.67-335.33,71.92-335.32,25.3-244.24Zm875.93,1298c42.15-72.49,147.5-71.69,189.28.06l15.74-5.56c-37.26-90.05-183.91-89.51-221-.3C890,1050.87,895.09,1051.37,901.23,1053.71Zm-571.94,0c42.46-72.53,147.17-71.92,189.07.08l16.28-5.69c-38.91-90-185-89.66-221.07.45Zm839.82-812.9c16.29,7.15,16.29,7.15,25.23-4.66,45.66-60.39,128.27-60.42,174.74-.07,9.81,12.74,9.81,12.74,25,4.23C1347.29,149.25,1216,149.39,1169.11,240.81ZM42,247.15c43.31-68.84,135-76.76,184.06-9.93,8.62,11.55,10,11.74,23.81,2.68C202.65,149,71.47,149.52,24.78,241.44ZM1169.21-244c10.45,6.17,16.94,7.16,25.19-4,45.2-61.14,128.08-61.5,174.09-.88,8.06,10.62,14.64,12.46,25.77,4.55C1347.51-335.23,1215.83-335.39,1169.21-244Zm-60.69-.11c-47.09-91-178.42-91.44-225.31,0,10.34,6.1,16.86,7.4,25.17-3.85,45.41-61.49,129.52-61.52,174.75-.08C1091.36-236.85,1097.9-237.85,1108.52-244.11Zm0,484.89c-46.79-91.3-178.51-91.52-225.16-.26,11.22,7.72,17.69,6.12,25.85-4.71,48.63-66,140.66-56.2,182.23,11.12C1097.8,244.91,1102.65,244.54,1108.47,240.78Zm-286.24-.28c-46.43-91-178.71-91.25-224.81.15,11.35,7.79,17.8,5.57,25.83-5C669,175.46,751.5,176,797,236,806.63,248.62,806.63,248.62,822.23,240.5ZM248.46,1048.33c-36-89.47-185-89.88-221.27,0l16,5.38c42.05-72.36,147.48-71.67,189.23,0Zm572.15.05c-39.92-91.37-183.85-89-221.37.12l15.73,5c58.89-73.91,125.71-73.81,189.93-.09C810.23,1051.75,814.68,1050.27,820.61,1048.38ZM536.46-243.92c-46.84-91.36-178.56-91.56-225.14-.19,10.61,6.84,17.11,6.85,25.17-4,45.54-61.43,129.05-61.31,174.79.37C519.77-236.31,526.31-238.57,536.46-243.92Zm285.13.21c-43.71-92.17-179.4-90.69-224.29-.39,10.92,6.77,17.41,6.42,25.4-4.26,45.56-61,128.51-61,174-.12C804.59-238,811.09-237.09,821.59-243.71Zm570.64,1292c-35.74-89.58-185-89.56-221.21.13l16.33,5.3c41.78-72.48,147.55-71.71,189.12.09Zm-1081-807.71c11.46,7.85,17.89,5.84,26-4.84,46.08-60.59,128.93-60,174.12,1.34,8.44,11.46,15,9.18,25.06,3.79C489.55,149.31,358.39,149.19,311.22,240.54ZM641.57,584.78c32.64-49.6,104.19-49,136.49-.09l15.54-9.28c-38.86-63.5-129.45-63.66-167.54.17ZM507.7,575.47c-39.14-63.62-129.33-63.6-167.77.11l15.72,9c32.6-49.42,104-48.7,136.49,0C497.41,581.51,501.92,578.87,507.7,575.47Zm842.47,8.92a81.44,81.44,0,0,0,15.1-9.64c-38.67-62.63-129.43-62.84-167.27.9l15.28,8.78C1252,534.27,1313.05,535.66,1350.17,584.39ZM1079.56,575c-39-62.74-130-63.29-167.45.77l15.53,8.77c32.64-49.23,104.14-48.64,136.33,0C1070.65,580.71,1073.29,579.48,1079.56,575Zm-.08-484.35C1041,27.13,950.2,27,912,90.77l15.56,9.11c32.52-49.2,104.1-48.82,136.4-.17C1070.25,96.4,1072.88,94.72,1079.48,90.63ZM221.62,575.31C182.87,512,92.05,511.8,54,575.66L69.7,584.6c32.47-49.64,104.64-48.47,136.56.13ZM507.76,90.7C468.89,27.28,378,26.89,340.09,90.84l15.39,9.1c32.26-49.12,104.38-49,136.57-.08ZM936.54,9.87c-38.33-63.54-130-63.58-167.45.28l15,8.65c35.82-47.68,98.27-51.52,137.61,0Zm285.38.32c-38.77-64.18-131-63.87-166.12.31L1070,18.93c34.86-46.93,97.28-52.5,137.71-.11ZM793.62,90.76C755,27.1,664.27,27,626,90.77l15.17,8.94c35.14-46.52,96.28-52.5,137.55-.24ZM364.53,10c-38-63.54-130.16-63.88-167.27.21L212,18.82c38.33-50.08,100.43-49.21,137.61.07ZM1365.61,90.66c-38.27-63.25-130.1-64-167.37.37L1213,99.52c39.42-50.69,100.89-48.06,137.08-.39C1355.87,97.5,1358.94,94.32,1365.61,90.66ZM793.52-232.41c-37.88-63.43-129.6-63.4-167.52-.05l15.59,9.32A81.12,81.12,0,0,1,778-223.21ZM498.6,504c32-49.57,104.62-48.77,136.63,0,5.41-3.31,10.15-6.22,14.93-9.13-44.64-68.59-131.55-59.56-165.83-.36C487.62,499,493.05,500.09,498.6,504Zm724-170.88c-38.29-63.26-130.17-63.4-167.5.19l14.71,8.62c50.35-50.4,84-50.37,138.06-.07ZM221.08,91.06C179.32,25.15,92.56,28.36,54.7,91.2l14.78,8.63c32.42-49,104.32-48.75,136.68,0Zm-9.25,897.26c39.51-51.82,102.59-47.31,137.55,0a156.05,156.05,0,0,0,15-9.16c-37.89-63.15-129.81-63.3-167.18.36ZM507.64-232.52c-38.74-63.26-129.47-63.33-167.61,0l15.63,9.36C388-273,459.77-272.57,492-223.2ZM650.7,817.87c-38.43-63.35-129.91-63.3-167.73,0l14.87,8.77c39.22-50.41,100.35-48.9,137.81-.06Zm419.8,170.9c32.41-49.75,104.64-48.67,136.88,0l14.71-9.37c-46.39-70.37-133.84-57.19-166,.61Zm0-484.82c32.66-49.66,104.58-48.58,136.81,0l15.08-9.45c-37.87-63.36-129.85-63.52-167.17.27ZM650.3,9.52c-37.86-63-129.95-63.35-167.21.68l15.25,8.7c35.67-47.8,97.64-51.43,137-.12C640.68,15.63,645.22,13.57,650.3,9.52ZM792.65,1058.74c-38.3-61.48-127.95-61.64-165.76.23l15.6,9.32c31.85-48.06,102.84-47.31,134.84,0ZM212.13,342.13C249.4,293.7,309.72,291,349.63,342l14.9-8.95c-37.83-63.42-130-63.12-167.58,0Zm9.52-574.72c-38.29-62.92-129.91-63.48-167.56.29l15.54,9.13c32-49.85,104.41-49.17,136.59,0Zm-9.53,90c35.86-47,96.3-52.49,137.63-.23l14.9-8.84c-38.2-63.39-129.8-63-167.78-.07ZM783.88,826.65c37.53-48.81,98.68-50.38,137.9.09l14.81-9.08c-38.43-63.09-130-63.08-167.63.31Zm-572-323.07c39.11-51.22,101.82-48,137.59,0,5-3.34,10.59-4.78,14.54-9.79-37.53-62.43-129.87-62.65-166.74,1ZM769.25,495l15.26,8.89c32.45-49.46,104.66-48.65,136.81.1l14.78-9.26C894.37,430.74,810.87,430.78,769.25,495ZM220.81,897.38c-38.29-62.23-129.22-62-166.81,1.39l15.58,9.1c32.23-49.52,104.41-48.65,136.59-.13C212,903.6,217.11,903.24,220.81,897.38Zm-.18,161.35C181.84,997,92.74,997.1,54.94,1059l15.51,9.26c31.79-47.92,103-47.52,134.85,0Zm992.86-797.31c32.42-49.47,104.49-49.1,136.71.15l15.32-9.33c-37.9-63.21-129.85-63.36-167.48.19Zm-562.86,718c-38.34-63.46-129.88-63.69-167.51.13L498,988.37c37-49.23,100-50,137.6,0ZM1054.86,818l15.45,8.78c35.35-46.67,95.8-52.5,137.3,0l14-8.45C1187.69,754.27,1091,755,1054.86,818Zm24.24,80c-38.42-62.94-129.18-62.7-167.1.77l15.49,9.14c32.46-49.4,104.4-48.79,136.68-.1C1070.27,903.9,1074.15,902.81,1079.1,898Zm.53-1130.47c-38.61-63.27-129.39-63.28-167.61,0l15.09,9.06c32.59-44,93.62-55.07,137.71-.17ZM497.81-142.93c36.94-48.09,98.21-51,138,.12l14.8-8.95c-38.42-63.26-129.81-63-167.77.12Zm438.9-8.69c-38.33-63.37-129.83-63.19-167.9,0l15.38,8.91c34.67-45.7,95-53.59,137.47-.21Zm285.77,0c-37.27-63.24-130.26-63.42-167.41.08l15.51,9.12c32.17-49.71,104.45-49,136.61-.09Zm-724,494c32.74-49.8,104.4-48.87,136.86-.07l14.36-8.79c-34.06-63.89-130.51-63.07-166.7-.5Zm-277.2-90.52c-37.76-62.73-130.17-63.16-167,.71l15.29,8.95c32.29-49.68,104.5-49,136.63-.13C212.93,257.32,215.55,256.69,221.25,251.84Zm.29,162.07c-38.26-63.55-129.82-63.69-167.47.19l15.51,9c32.6-49.78,104.45-48.53,136.7-.1ZM936.17,979.57c-44.33-68.23-131-60-166.4.44l14.71,8.62c32.21-49.26,104.73-48.75,136.73,0Zm277.2-71.88c37.1-49.37,99.18-50,136.74-.18a104.14,104.14,0,0,0,15.27-9.21c-37.41-62.62-129.58-63.35-166.5-.59C1202.52,903.2,1207.72,903.76,1213.37,907.69Zm-705.71-9.06C469,835.14,377.8,835,340.08,898.81L355,907.49c48.46-50.43,86.95-50.45,137.85,0Zm706-1121.69c32.42-50.14,104.17-49.37,136.41-.11l15.61-9.42c-38.78-63.19-129.51-63.31-167.61.13Zm-14.36,1282.21,14.77,8.93c36-46.17,96-50,135.79-.13l14-8.58C1328.06,1000.55,1243.13,993,1199.27,1059.15ZM936.64,333.08c-38-63.17-130-63.33-167.68.07l15.56,9.2c32.55-49.75,104.48-48.86,136.72-.13Zm-572,484.82c-37.87-63.42-130-63.25-167.82,0l15.74,9c32.18-49.29,104.51-48.91,136.52.06ZM926.82,422.83c38.85-49.87,99.43-49.49,137.82,0l14.8-9c-38.12-63.5-129.82-63.4-167.25.13ZM641.57,423c32.32-49.26,104.31-48.76,136.63.08l15.43-9.29C754.75,350.34,664,350.63,625.94,414Zm437.23,635.89c-38.75-61.64-127.65-61.83-165.93.08L928,1068c37.49-47.42,97.09-48.77,135.67-.17Zm-723,9.19c38.13-48.08,97.94-48.11,135.89-.08l14.92-9.18c-38.31-61.6-127.42-61.58-165.66-.07Zm151.82-815.8C469.54,189,378,189,339.93,252.29l15.69,9.28c32.62-49.9,104.12-49.22,136.48,0Zm286-.28c-38.84-62.86-129.52-63-167.59.27l15.52,9.35a81.21,81.21,0,0,1,136.37-.23C784.39,258,786.83,256.24,793.62,252Zm286,.19c-38.24-62.89-130-63.51-167.54.29L926.82,261c44.73-55.11,105-43.48,137.53.31ZM507.49,414c-38.18-64-129.55-63.56-167.54-.08l15.42,9.13c34.21-46.41,95.84-53.2,137-.35Zm714.84-242.86c-37.74-63.07-129.8-63-167.36.47l15.24,8.82c36.61-48.16,98.21-51,137.3-.1C1212.73,177.34,1217.3,175,1222.33,171.17Zm-285.76.29c-38.07-63.37-129.73-63.41-167.6.14l15.26,8.85c36.53-48,97.83-51.16,137.41,0Zm286,484.74c-38.15-63.2-129.92-63.47-167.61.21,5.78,3.34,10.58,6.12,15.24,8.8,35-46.15,95.75-53,137.48-.07ZM212.47,665.61c32.27-49.82,104.63-49.28,136.65-.09l15.4-9.19C326.77,592.85,235,593.07,197,656.12ZM221.52-70.8c-38-63.59-129.66-63.71-167.45.06l15.47,9.12C102-111.27,174-110.45,206.22-61.71ZM641.43,908c32.58-49.53,104.44-49,136.84-.07l15.19-9.33c-38.57-63.6-129.25-63.53-167.3,0ZM1365-70.51c-36.57-64.34-130.28-63.13-166.92-.13l15.47,8.89c32.42-49.33,104.42-48.86,136.64.08ZM635.52,665.42,650,656.25c-39.9-64-129.67-63.63-166.36.41l14.33,8.52C537.44,614.32,598.4,616.9,635.52,665.42Zm-423-484.66c32.18-49.65,104.65-49.08,136.72.07l14.89-9.21c-41.14-64.39-129.38-64-166.51.3Zm437.65-9c-40.66-64.31-128.34-64.06-166.65.12l15,9c32.11-49.63,104.69-49.22,136.65-.08Zm715.56,242.1c-38.83-63.33-129.77-63.45-167.67.23l15.46,9c32.34-49.2,104.39-48.93,136.63.05Zm-1010,332.45c32-49.58,104.3-49.28,136.38.08l15.56-9.48c-38.77-63.11-129.75-63.22-167.62.28ZM1365.57,737c-38-63.24-129.55-63.2-167.6,0,5.75,3.43,10.51,6.27,15.7,9.35,32.21-50.09,104.36-49,136.53-.09Zm-286.87.46c-33.38-63.44-131.16-63.85-166.46-.2L927.05,746c36.41-47.84,97.41-51.45,137.27-.38C1069.51,743.44,1073.32,740.61,1078.7,737.47ZM507.77-71c-39-63.12-129.81-63.37-167.69.23l15.42,9c32.3-49.26,104.35-49,136.58,0Zm419.28,8.85c36.25-47.39,96.89-51.56,137.72.13,5.18-3,9.2-5.64,14.55-9.31-38.23-63-129.66-62.7-167.27.48C918.34-67.13,921.66-64.85,927.05-62.13ZM793.72,737c-38.6-63.22-129.67-63.29-167.76,0l15.3,9c33.5-45,94.24-54.39,137.44-.19ZM641.25-61.71c37.07-49.09,98.43-50.68,136.86-.35a122.62,122.62,0,0,0,15.21-9c-37.79-63.23-129.6-63.33-167.23.29ZM221.56,737C183.4,673.81,92,673.8,53.91,737.05l15.61,9.25c32.5-49.77,104.41-49.11,136.72,0Zm562.58-71.62c36.71-48,97.7-51.43,137.41-.29,5.15-3,10.17-5,14.74-9.3-37.75-62.66-129.84-62.77-167.26.6Zm555.33-396.07c-30.54-42.79-88.47-42.52-115.08.43l12.76,11.74a53.63,53.63,0,0,1,89.27,0Zm-286.31.55c-29.63-47-92.73-39.38-114.53.26l12.36,11c23.56-29.56,61.12-34.31,89.75,0Zm183.42-473.68c34-32.32,54-32.31,90.61-.07l12.63-11.87c-27.69-41.88-89.31-42.28-116,.49ZM182.63,281.24l12.71-11.75c-28.78-42.9-86.62-42.84-115.15,0L92.53,280.9C126.77,248.93,152.67,248.81,182.63,281.24ZM767.47-215.37c-30.17-43-89-42.62-115.05.39l12.81,11.74c21.33-32.2,67.73-31.49,89.32-.2Zm-285.88,0c-31.21-43.17-90.68-42.48-115,.59l12.24,11.09c31.73-32.5,58.12-32.49,89.9-.06ZM378.84,281.22c25.61-31.46,63.09-32.68,89.84-.12l12.44-11.32c-28.64-45.87-91.57-40.48-114.45.08Zm661.9-484.71,12.72-12c-30.67-42.86-89.06-42.49-115,.57l12.38,11.27C978.18-236.7,1015.58-234.44,1040.74-203.49ZM664.93,766c22.31-28.33,59.5-35.91,89.89-.2l12.91-12.06c-27.34-42-89-42-116,.16ZM92.78-203.61c25.42-30.8,62-33.12,90-.17,4.17-3.78,8.34-7.54,12.38-11.19-26.45-43.21-90.3-42.94-114.5.09ZM950.86,766c24.48-30.51,61.95-33.82,89.86-.12l12.8-11.86c-31.08-42.9-91.45-42.19-114.85.61ZM767.43,269.44c-29.45-42.92-87.93-42.76-115.11.17l12.76,11.78a53.75,53.75,0,0,1,89.35,0ZM1339.49,754c-30.65-42.77-89.56-42.4-115,.54,4,3.72,8.18,7.56,12.81,11.84,21.15-32.71,67.92-31.91,89.2-.17ZM1093.83,200.67c22.62-31.9,67.05-31.87,89.88,0l12.45-11.92c-27.86-43.11-90.51-42.6-114.41.25Zm-755.37-12c-33.53-48.51-94.91-36.58-114.65.69l12.29,11.34c22.22-32.24,67.42-31.42,89.52-.18Zm857.71-484.5c-27-43.15-91.09-42.68-114.48.3l12.38,11.29c23.16-31.93,66.6-31.45,89.56,0ZM338.22-296c-30.27-46.26-92.66-39.13-114.46.55l12.41,11.37c22.17-32.33,67.28-31.25,89.49-.21Zm143.3,1050.2c-30.66-43-90.81-42.35-114.94.5l12.27,11.24c26.88-32.59,64.12-31.52,89.78,0ZM807.57,200.32c23.39-27.65,57.91-36,90.68-.24l11.82-11.35c-26.9-42.89-90.1-42.53-114.44.3ZM624.83,188.19c-27.48-41.74-89.54-42.68-115.71.52l13,11.74c22.8-32.13,67-31.08,89.7,0ZM808.12-284.14c22.51-32.32,67.4-31.22,89.64,0l12.5-12.06c-33.58-48.93-95.74-35.74-114.42.77ZM338.57,350.15c-30.86-42.85-87.62-42.49-115.34.27l12.71,11.78c22.29-32.25,67.75-31.82,89.64,0ZM195.73,753.87c-27.28-42.17-89-42.07-116,.11l13.2,12c23.66-29.37,60.45-34.78,89.88-.11ZM522-284.11c22.64-32.2,67.26-31.42,89.75-.08,4.59-4.42,8.56-8.26,12.34-11.91-27.82-43.18-92.26-42.6-114.25.61ZM910.31,673.52c-28.51-43.19-90.12-42.85-114.74.34l12.48,11.51c22.23-32,67.48-31.58,89.55,0ZM1081.1,350.2c4,3.77,8.1,7.6,12.92,12.14,21.83-32.38,67.86-32.06,89.56-.08l12.57-11.84C1169.27,307.51,1110.61,307.39,1081.1,350.2ZM508.87,673,522,685.46c22.3-32.28,67.57-31.68,89.57-.08l12.83-12.11C594.53,631,542.35,630.54,508.87,673Zm22.61,22.28c13.27,21.75,13.28,21.17,47.44,21.69,15.9.25,15-15.09,23.79-20.76C583.45,667,549.51,667.15,531.48,695.25ZM808-122.48c21.91-32.22,67.87-32.08,89.56,0l12.93-12.19c-30.66-42.84-86.08-42.66-115.34.09Zm9.33,817.9c14.46,21.92,14.47,21.45,48.36,21.5,15.25,0,14.31-15.08,22.93-20.62C870.58,667.26,836.37,667,817.31,695.42Zm276.81-10.23a54.11,54.11,0,0,1,88.91-.82l13.72-10.63c-31-43.3-87.66-42.91-115.21-.63C1085.23,677.81,1089.31,680.85,1094.12,685.19ZM245.51,695.25c13.19,21.83,13.21,21,46.15,21.76,16.36.36,16.45-14.43,24.89-21C297.65,667.07,263.48,667.17,245.51,695.25Zm795.4-575.88,12.73-11.66c-36.53-50.66-98.12-33.56-114.8,1l11.73,10.6C978.65,87.1,1013.73,87.9,1040.91,119.37Zm-273.64-11.2c-27.81-43.15-88.25-43-114.91.07l12.33,11.14c25.9-30.44,61.14-33.3,90.29-.09Zm40.79,900.28c22.45-31.91,67.19-31.57,89.55,0l13-12.3c-27-41.88-89.81-42.43-115.46.46ZM897.83,38.53,910.66,26.9c-26.7-42.27-89.1-42-115.9-.07l13,11.73C839.66,6.52,865.45,6.53,897.83,38.53Zm-286.15.28L624.5,26.87C593.44-15.73,534.86-15,509,28.18a121.44,121.44,0,0,1,12.7,10C555.67,6.43,581.1,6.39,611.68,38.81Zm196.5,323.63c21.54-32.91,67.72-31.8,89.51-.28l12.6-11.8c-27.92-42.86-86.17-43-115.14-.09Zm-184-12c-28.69-45.73-92.3-40.29-114.51.49L522,362.11c22.92-32.29,67-31.64,89.83,0ZM481.27,108.17c-28.2-43.2-88.23-43-114.86,0l12.23,11.2c25.74-30.06,60.63-33.76,90.39-.13C473,115.73,476.88,112.16,481.27,108.17ZM236.12,685.58c22.17-32.68,67.5-31.51,89.56-.26l12.82-12.09c-35.43-50-96.39-34.62-114.7.88ZM338.41-134.55c-29.33-42.87-88.16-42.77-115.09.34L235.55-123c24.51-28.25,58.33-35.45,90.66-.1Zm286.18,0c-31.28-42.94-91-42.4-115,.63l12.62,11.32c22.21-32.38,67.62-31.75,89.4.09Zm571.55.33a67.15,67.15,0,0,0-114.81,0l12.79,11.74c22-32.62,67.65-31.63,89.58-.14ZM1053.61,592.56c-35-49.36-96-35.47-114.94.76l12.45,11.18c23.1-32.23,66.67-31.28,89.51-.13Zm-961,11.58c28.41-32.88,64.23-30.84,90.24.14l12.92-11.88c-27.21-42.33-89.38-42.5-115.86.18Zm429.45,404.47c23.24-32.5,66.54-31.52,89.62-.25l12.88-11.94c-26.35-42.39-89.14-42.51-115.55,0ZM1094,38.93c23.34-32,66.37-31.84,89.63-.07l12.58-11.61c-27.31-42.9-89.35-42.63-114.74,0ZM338.76,26.76C311.52-15.15,249.24-15.5,223,27.14l12.72,11.17c25.25-28.31,57.56-35,89.93-.53C330.82,35.66,333.5,31,338.76,26.76Zm835.67,669.36c-17.94-29.23-55.18-29.06-70-1.73,6,27.24,26.6,21.17,44.76,22.62C1165.78,718.32,1166,702.83,1174.43,696.12ZM1326.92,119.5l12.52-11.7c-30.43-43.13-91.75-42.43-114.77.69l12.12,11C1268,87.2,1295,87.22,1326.92,119.5Zm12.61,473.2c-33.77-48.86-95.17-36.37-114.88.56l12.45,11.28c23.09-32.29,66.57-31.26,89.57-.24C1331.2,600.22,1335.14,596.67,1339.53,592.7Zm-857.7-.35c-27.43-42.29-89.23-42.35-116,.19L378.54,604c29.83-34,65.42-29.43,90.27.18C473,600.44,477.08,596.67,481.83,592.35ZM92.71-41.92c31.33-32.67,58.18-32.65,90.11-.16L195.1-53.51c-26.19-43.08-91.46-42.82-114.41.22ZM235.92,1008.29c23.82-31.78,66.1-31.51,89.77,0l12.85-12c-26.56-42.32-89.17-42.21-115.61.15ZM338.54,835c-30.38-42.93-90.44-42.4-115.08.43l12.72,11.38c22.33-32.35,67.44-31.56,89.39.06ZM92.6,119.47c24.71-29,59.32-34.89,90.46-.22L195.19,108c-28.33-43.08-88.46-42.85-114.75.14ZM195.33,431c-29.59-42.75-88.92-42.28-115,.31L93,443c22.14-32.27,67.6-31.88,89.67-.05ZM338.8,511.62c-27.16-42.11-89.56-42.43-115.81.2l12.7,11.31C261,494.51,293.84,488.41,326,523Zm755.3,11.84c23.81-32.1,66-31.2,89.75.14l12.76-12.34c-27.06-41.62-89.57-41.94-115.67.62ZM1237-41.74c22-32.22,67.93-32.11,89.56.14l12.83-12.25c-29.79-42.69-89.18-42.25-114.93.38C1228.49-49.72,1232.59-45.88,1237-41.74Zm-285.86.13c21.6-32.63,67.66-31.85,89.5-.18l12.7-12c-28.9-42.77-88.29-42.54-115,.15Zm-286.41-.28c30.61-32.68,58.84-32.62,90-.1l13-12c-27-42-88.87-41.78-116-.18Zm-63.5,250.36c-14.54-25.46-56.83-25.34-70.44,3.11,8.93,6.24,8.48,21.56,23.83,20.61C573,231.05,594.21,237.93,601.24,208.47ZM767.4,592.79c-29.23-43.26-89.93-42.83-114.9.36l12.18,11c32.09-32.29,54.07-32.28,90.55-.32Zm-572.12,323c-28.95-42.8-87.82-42.55-115,.15l12.78,12c21.75-32.49,67.55-31.9,89.59-.26Zm612.69-69c23-32.23,66.84-31.73,89.71,0l12.66-11.7c-28.44-43-92.14-42.64-114.69.62ZM378.58,927.48c31.84-32.27,58.78-32.27,90.28-.07l12.2-11.31c-25.29-43-89.24-43-114.62,0ZM481.29,431.17c-30.15-46.57-93.74-38.89-114.56.6l12.16,10.88c30.47-32.37,54.47-32.33,90.31-.3Zm183.3,11.54c31.54-32.37,58.22-32.36,90.31-.1l12.21-11.31c-25.72-42.92-89.41-42.87-114.61,0Zm531.5,554.18c-26.71-43.16-90.77-42.79-114.5.18,4,3.61,8,7.33,12.52,11.43,22.31-32.07,67.11-31.48,89.41-.2Zm-245.29-554c23.06-28.51,59.34-35.92,90.07-.18l12.33-11.49c-26.87-43-91.57-42.75-114.5.28Zm376.22-.32,12.24-11.35c-27.36-43-92.38-42.65-114.52.42l12.06,11.14C1267.23,410.31,1293.67,410.38,1327,442.55ZM1175,211.27c-14.51-27.82-56.52-28.59-70.66-2.49,6.57,29.13,27.85,22.22,46.25,23.41C1166.59,233.23,1165.87,217.31,1175,211.27Zm-286,.21c-15.32-28.75-56.5-29-71.73-1,14.31,21.81,14.32,21,47.12,21.84C880.4,232.69,879.7,217.39,889,211.48Zm-642.62-2.39c6.86,29.49,28.72,22.12,47.36,23,15.12.69,14.29-15,22.93-20.51C298.19,182.36,264.11,182.22,246.34,209.09Zm990.52,718.68c22.23-32.07,67.7-32,89.79,0l12.7-11.91c-28.79-42.8-88-42.62-114.95.09ZM1094.14,847c22.27-32.56,67.35-31.92,89.38-.15l12.53-11.47c-25.24-43.17-89.7-43.08-114.61.09ZM522.24,523.74c22.51-32.52,67.18-31.2,89.44-.1l13.05-12.2c-27-41.77-89.44-42.3-115.71.34C513.62,515.93,517.52,519.46,522.24,523.74ZM481.38-53.8c-29.86-42.75-89.7-42.27-114.95.37l12.65,11.72c21.88-32.38,67.56-31.81,89.59-.11ZM754.8,927.54l13-12.13c-27.5-41.95-89.15-41.82-115.93.15l12.58,11.68C698.52,895.09,724,895,754.8,927.54Zm196.34.29c22.49-32.78,67.31-31.49,89.56-.13l13.1-12.29c-27.14-41.82-89-41.77-116.08.06ZM509,835.08,522.35,847c22-32.78,67.21-31.46,89.25-.15l12.55-11.46C598.43,792.58,539.09,792,509,835.08ZM898,523.36l12.68-12c-26.88-41.81-89.39-42.12-115.73.35l13,11.72C838.61,491.07,864.86,491.1,898,523.36ZM532.24-275.58c7.12,28.8,28.61,22.21,47.4,23,15.27.62,14.25-15,22.89-20.49C585.2-302.13,550.15-302.38,532.24-275.58Zm355.12.3c-17.35-27.07-51.75-27.14-70.43,1.85,8.56,6.44,8.5,21.63,24.93,21.06C860.86-253,880.93-248.79,887.36-275.28Zm216.93-.25c7.67,30.15,30.31,22.57,49.41,22.61,13.52,0,12.83-15.08,21-20.62C1154.77-302.37,1121.61-302.25,1104.29-275.53ZM194.58,1076.27c-29-41.59-87.24-41.37-113.4.35l12.19,11.23c26.11-28.84,59.92-32.06,88.95,0Zm572.15,0c-30.31-41.81-88.39-41.33-113.46.38l12.06,11.16c33.07-30.65,50.13-30.6,89.29-.34Zm551.06-1268.9c-14.41-28.25-56.37-28.76-70.46-2.45,7,29.18,28.58,22.31,47.29,23.06C1309.78-171.38,1309.12-186.6,1317.79-192.59ZM1031.48-193c-19.93-28.89-54.94-28.31-69.94-1.63,5.32,27.07,25.44,21.32,43.31,22.91C1021.75-170.18,1023.22-184.76,1031.48-193Zm-785.23-82.4c6.45,27.9,27.63,22.13,46.64,22.84,15.93.6,15-15.1,23.8-20.84C297.55-302.5,263.12-302.34,246.25-275.36Zm133,1363.29c26.71-29.08,59.79-32,89.2-.09l12.13-11.59c-29-41.59-86.82-41.36-113.39.27Zm661.15-.19,12.22-11.45c-28.77-41.47-85.67-41.41-113.59.06l12.21,11.56C978.36,1058.15,1011.14,1056.65,1040.37,1087.74ZM459-192.92c-14.39-28.7-59.3-28.6-69.25.81,3.45,7.3,8.67,17.36,15,18.9,12.2,3,25.62,1,38.53.66C450.29-176.43,454-186.73,459-192.92Zm-356.38-.27c13.55,22.19,13.55,22,48.66,21.2,14.67-.32,14-14.95,22.22-20.78C154.13-221.81,119.25-221.43,102.66-193.19Zm1236,1269.51c-30.09-41.82-88.6-41.37-113.41.4l12.57,11.54c22.09-30.55,65.84-30.13,88-.1ZM675.15-194.59c7.64,29.33,30.18,22.39,49.45,22.3,13.49-.06,13.12-14.77,21-20.58C725.56-221.52,693.82-221.53,675.15-194.59Zm70,324.61c-15.78-28.47-59.88-28.44-69.18,1.5,12.53,24.19,27,21.31,50.43,19.45C735.92,149,739.51,136.81,745.12,130ZM420.94,636c24.58,0,24.81.14,34.67-16.2,1.58-2.62,1.61-8.23-.13-10.54-15.64-20.74-47.77-20.81-63.31-.14-1.76,2.35-1.57,7.56-.34,10.66C397.64,634.39,408.75,639.31,420.94,636Zm539.59-21.8c6.33,17.41,19.22,23.72,37.59,22.42,13.26-.85,22.83-2.86,29.45-15.67C1038.68,597.85,982.38,577.78,960.53,614.17Zm-644,405.23c-18.36-29.32-54.73-29.07-70.82-.5,13.9,21.74,13.9,21.42,48.36,21.23C309,1040.05,308.09,1025.09,316.49,1019.4Zm286,.06c-18.23-29.37-54.71-29.12-70.2-1.71,6.65,27.65,27.92,21.42,46.6,22.43C594.84,1041,593.86,1025.2,602.53,1019.46ZM960.31,130c10.24,21.93,16.72,19.09,38.14,21.27,13.76,2.39,22.74-3,29.28-15.38C1038.36,112.33,980.86,93.43,960.31,130ZM817.38,1018.28c13.63,21.82,13.65,21,46.31,22.06,16.45.53,16.28-14.48,24.72-21C870.7,990.51,836.93,990.1,817.38,1018.28Zm285.32.84c9,6.74,8.75,22,25.33,21.27,18.85-.87,38.78,3.51,45.28-22.73C1157.07,990.68,1123.3,990.16,1102.7,1019.12ZM745,614.26c-16.95-27.89-58.6-27.37-69.42,1.25,4.07,7.43,9.29,17.78,15.92,19.42,12.15,3,26.08,2.62,38.31-.37C735.91,632.68,741,621.4,745,614.26Zm571-1.12c-16.9-26.86-51.52-26.8-70.08,2.23,8.4,5.78,7.77,21.09,22.71,20.67C1287.39,635.51,1308.91,642.18,1316.06,613.14ZM422.44,150.34c17.12,6.43,38.73-7.16,32.95-26a39.92,39.92,0,0,0-62.57-.76c-2,2.49-2.18,8.31-.8,11.51C397.84,148.52,407.58,155.55,422.44,150.34ZM532.22,532.62c5.62,19.28,17.92,22.48,35.07,23.25,18.68.84,27.84-7.27,34.61-22.3C584,505.54,549.46,505.55,532.22,532.62Zm-359,82c-16.7-28.23-60.41-28.15-69.12,1.91,12.42,24,27.36,21,50.57,19.26C164.22,633.75,167.49,621.28,173.25,614.6Zm73.06-82c5.51,19.53,17.95,22.5,35,23.3,18.72.88,27.82-7.29,34.49-22.38C297.82,505.45,263.35,505.55,246.31,532.57Zm571,1.14c14.46,21.81,14.46,21.36,48.35,21.55,15.17.09,14.36-14.82,22.83-20.39C871.07,505.74,836.76,505.44,817.26,533.71Zm286.9-1.34c7.26,29,29.19,22.3,48.23,22.71,14.85.31,13.73-15.28,22.42-20.73C1154.45,505.68,1122.87,505.59,1104.16,532.37ZM173.23,129.85c-16.5-28.22-60.44-28.2-69.1,1.86,12.37,24.09,27.32,21,50.52,19.29C164.23,149.06,167.45,136.54,173.23,129.85ZM1281.81,959c22,0,22.27.18,31.78-16.12,1.63-2.79,1.09-9-1-11.55-15.85-21.59-57.3-19.27-65.16,7.95C1250.38,953.27,1268.42,961.1,1281.81,959ZM424.22-10.73c21.75,0,22,.14,31.66-16.28,1.52-2.57,1.15-8.21-.69-10.58C439.57-59.75,396.9-57.79,389.58-30,392.86-15.55,410.45-8.85,424.22-10.73Zm822.14,140.08c13,21.83,13,21.83,37.22,21.83,13.54,2.38,22.86-1.9,29.71-14.58C1325.37,113.51,1269.18,92.84,1246.36,129.35ZM137.58-11.51c16.65,6.68,36.93-7.36,32-25.53-14.8-20.7-47.89-20.94-63.23-.47-1.82,2.44-1.91,7.65-.7,10.73C111.43-12.09,122.63-7.41,137.58-11.51ZM992.78,959c24.93,0,25.22.17,34.7-15.93,1.67-2.82,1.28-9-.73-11.59-17.42-27.22-74.26-11.1-62.78,12.59C970.81,958.17,981.53,961.7,992.78,959Zm-285.85,0c24.84,0,25.07.13,34.65-16,1.59-2.68,1.6-8.31-.15-10.72-15-20.68-48.06-20.73-63.27-.08-1.77,2.4-1.55,7.63-.31,10.76C683.67,957.64,694.81,962.41,706.93,959ZM1279.15-55.31c-8.8,5.22-18.84,10.7-28.33,17-4.85,3.23-3.88,7.31-.92,12.74,6.44,11.83,14.84,17.4,28.29,15,4.42-.81,9.1-.11,13.65-.13,9.4,0,24.59-10.58,23.72-19.39C1311-46,1295.77-50.29,1279.15-55.31ZM818.33,47.5c7,29,28.59,22,47.28,22.87C880.79,71,880,55.61,888.44,50,870.9,20.94,836.71,20.65,818.33,47.5ZM601.2,46.78c-14.35-25-56.32-24.75-70,2.18,14.19,21.2,14.19,21.38,23.46,21.23C573,69.91,594.21,76.38,601.2,46.78ZM134.72,959c24.86,0,25.14.17,34.68-15.87,1.67-2.82,1.38-9-.62-11.54-17.49-27.23-74-11.46-62.84,12.41C112.9,957.84,123.33,961.92,134.72,959Zm288.43-.81c17,6.89,38-7.93,31.88-26.33-15.49-20.13-47.18-20.14-62.51,0-1.93,2.53-1.66,8.26-.3,11.63C397.92,957.5,408.65,962.44,423.15,958.19Zm569-484.12c26.11,0,26.35.14,35.65-16.09,1.53-2.67,1.29-8.29-.52-10.71-15.07-20.17-46.71-20.45-62.5-.49-2,2.53-2,8.32-.68,11.61C969.77,472.16,980.13,477.85,992.1,474.07Zm-676-426c-15-26-55.58-26.27-70-.68,5.71,19.71,18,23,35.15,23.67C299.7,71.71,309.29,64.25,316.09,48Zm858.25.88c-16.45-23.24-42.1-27.82-61.61-11-3.73,3.21-9.21,9.92-8.13,12.25,3.43,7.35,8.61,17.5,14.91,19,12.23,3,26,2.68,38.47.11C1164.44,67.36,1169.49,55.68,1174.34,48.9ZM709.51-11.53c15.32,4.63,26.47-.84,32.63-15.63,1.15-2.78,1.11-7.53-.51-9.81-14.72-20.71-47.73-21.08-63.2-.66C671.73-19.67,692.85-5.1,709.51-11.53Zm286.4.8c22.18,0,22.42.12,31.8-16,1.54-2.65,1.35-8.26-.44-10.67C1012-59.67,969-57.79,961.43-30.24,964.78-16,982.56-8.53,995.91-10.73Zm-572.38,484c16.68,6.64,37-7.41,32-25.61-14.77-20.69-47.81-20.89-63.2-.4-1.81,2.42-1.88,7.64-.67,10.71C397.46,472.61,408.59,477.41,423.53,473.29Zm282.71.78c4.27,0,5.86-.3,7.3.05,15.3,5,32.93-11.37,28.37-26.08-14.29-21.1-49-21.27-64-.31-1.62,2.28-1.64,7.07-.46,9.86C683.34,471.68,693.69,478,706.24,474.07Zm-565.61,0c12.18,3.66,23.17-1.39,29.07-15.9,1.25-3.08,1.39-8.31-.38-10.72-15.17-20.57-48.19-20.46-63.38-.06-9.12,11.71,11,26.45,21.63,26.68Zm1144.13,0c12.28,3.53,23.26-1.59,29.08-16.1,1.23-3.07,1.2-8.33-.62-10.73-15.26-20.13-46.75-20.25-62.67-.49-10.15,12.11,10,27.21,21.26,27.32Zm-611.18,303c9,5.8,8.25,21.08,23.56,20.27,18.65-1,40.19,6,47.16-22.86C729.75,748.09,688.24,748.67,673.58,777.08Zm358.46-.21c-15-28-56.2-28.7-70.79-2.56,7.28,30.17,29.72,22,48.48,22.83C1024,797.74,1023.23,782.6,1032,776.87Zm-573.71-1.81c-20.26-35.67-77.21-16.2-66.47,7.29,6.47,13,16.25,14.88,29.46,15.34C439,798.31,452.74,795.43,458.33,775.06ZM961.1,290.49c6.2,20.39,19.94,23,37.63,22.63,13.77-.29,23.61-3.25,28.75-16.26,1.31-3.31,1.38-9-.58-11.45C1008.91,262.75,976.63,265.8,961.1,290.49ZM246.23,855.24c7.18,30.43,30.12,22.38,49.24,22.73,13.9.25,13.06-14.89,21.17-20.5C296.58,828.83,265.65,828.73,246.23,855.24Zm-74-80.37c-18.62-35.55-79.56-16.12-65.24,9.19,6.49,11.82,15.25,13.07,27,13.5C151.48,798.2,166.69,797,172.18,774.87Zm1001.71,80.76c-14.52-25.75-56.18-26-70,.06C1112.78,887.75,1164.33,887.41,1173.89,855.63ZM1173.35-114c-19-27.15-52.81-26.72-70.46,2.82,9,4.83,7.79,20.61,23.22,19.76C1144.81-92.42,1166.37-85.42,1173.35-114Zm-641.2,970c6.77,27.24,27.92,21.33,46.73,22.27,16,.79,15.22-14.7,23.63-20.78C583.3,828.6,549.22,828.74,532.15,856.06ZM317-111.84c-21.29-29.37-55-28.7-70.73-1.69,6.92,28,28.39,21.26,47.15,22.13C308.62-90.7,308.1-105.82,317-111.84Zm500.94,968c9.13,31.35,60.91,30.59,69.8.43C870.16,828.74,836.32,828.59,817.93,856.19ZM1247.2,775c5.59,20.54,19.42,25,37.06,22.17,13.75,2.64,22.84-2.38,29.42-14.89C1324.72,759.35,1267.12,739.06,1247.2,775ZM818.12-113.87c8,30.42,31.6,23.08,50.68,21.31,7.53-.7,14.08-12.31,20.72-18.6C867.94-140.77,837-140.65,818.12-113.87Zm-285.88,0C539.8-84.64,562-92.17,580.86-91.59c14.24.43,13.48-14.64,21.69-20.1C584-140.78,550.17-140.93,532.24-113.86ZM245.63,372c12.52,21.51,12.53,20.92,47.21,21.43,15.77.23,15.51-14.33,23.64-20.69C297.18,343.82,263.58,343.94,245.63,372Zm212.51-81.76c-15.8-27.3-53.08-27.31-69.52,1.43,13.17,20.59,13.17,20.8,22.6,20.73C429.53,312.28,450.63,318.75,458.14,290.25ZM818,371.45c9.15,31.5,60.79,30,69.87.45C869.78,343.91,835.73,343.91,818,371.45Zm-216.67-.61c-18.55-27.06-52.16-26.78-70.26,2.3,8.15,5.52,7.51,20.48,21.75,20C571.7,392.6,593.89,400.1,601.31,370.84ZM1246.84,291c6.31,17,17.51,25.38,35.71,21.56,14.45,2.49,25.53-1.52,30.93-15.74,1.33-3.27,1.29-9-.69-11.48C1294.6,262.7,1262,265.92,1246.84,291ZM1103.28,372c14.85,22.91,14.85,22.92,50.39,21.17,13.73-.68,13.06-15,21.08-20.64C1154.08,344.05,1123.12,344.1,1103.28,372ZM102.47,291.36c13.16,21.05,13.16,21.19,24,21.11,18.43-.15,39.55,5.66,45.69-22.27C156.14,263.36,121.47,262.87,102.47,291.36ZM744.16,290c-18.25-27.07-53.11-26.61-69.52,1.65,12.91,20.78,12.91,20.93,23.63,20.85C716.67,312.33,737.81,318.32,744.16,290Z"/><path class="cls-5" d="M499.19,1102.62c41.79-33.41,93.82-33.41,135,0H609.05c-22.32-15.64-62.18-15.64-84.68,0Z"/><path class="cls-5" d="M215.38,1102.62c36-34.92,96.1-32.12,132.75,0H323c-22-15.65-61.78-15.65-84.68,0Z"/><path class="cls-5" d="M785.29,1102.62c41.48-33.44,93-33.44,135,0H895.16c-22.58-15.64-62.4-15.64-84.69,0Z"/><path class="cls-5" d="M1071.39,1102.62c38.87-32.08,95.86-34.87,132.75,0h-22.88c-22.81-15.63-62.61-15.63-84.69,0Z"/><path class="cls-5" d="M1357.5,1102.62c19.68-17.36,43.23-24,68.66-25.52V1091c-15.4.36-30.55,1.74-43.49,11.6Z"/><path class="cls-5" d="M-6.64,1077.1c25.44,1.46,49,8.15,68.67,25.52H36.85c-12.94-9.87-28.09-11.2-43.49-11.6Z"/></g><g class="cls-4"><path class="cls-5" d="M2680.81,1102.62h-16c-43.78-59-141.61-59.95-185.39,0h-18.31c.74-29.75-51.26-30.77-63.77-8.73-1.39,2-.27,5.78-.32,8.73h-18.31c-43.31-59.18-141.69-59.87-185.39,0H2175c.93-29.71-50.71-30.77-63.67-8.71-1.41,2-.34,5.76-.42,8.71h-18.31c-43.21-59.35-141.8-59.86-185.39,0h-16c-1.28-31.41-69.29-32.23-66.38,0h-18.31c-42.94-59.63-141.78-59.56-185.39,0h-16c-1.16-31.46-68.58-32.35-66.38,0h-18.31c-21.3-30-57.13-44.77-93.84-44.09V1040c18.63,4,29.87-4.79,36.67-22.71-9-11.91-20-20.66-36.67-19V984.29c19.45-.69,33.78,9.18,46.16,24.12L1486,996.19c-14.35-20.49-35.31-31.08-59.47-32.78v-11.6c30.32-1.68,51.88,14.07,69.75,36.71a143.56,143.56,0,0,0,15.2-9.56c-21.08-30.42-48.65-47.14-85-48V917c42.11.8,72.71,24.43,98.34,56.87l14.7-4.76c-16.53-40.51-66.51-71.44-113-70.67V877.56c16.57,5.63,39.31-7.09,32.64-26.38-8.15-10.45-19.31-15.6-32.64-15.38V821.88c18.77,1.24,34.24,9.06,45.85,25.29L1486,834.62c-15.44-20.17-34-32.46-59.49-31.31V789.39c29.73,0,52.16,14.34,69.7,37.74l14.43-8.66c-14.28-29.22-53.61-51.36-84.13-47.64V756.91c43.28-.86,73.68,21.7,97.07,55.76a117,117,0,0,0,17-6c-26.49-44.31-63.49-68.74-114.08-70.64V717.47c17.87,2.11,30.37-4.82,36.42-23.06-7.84-13.8-21.19-19-36.42-21v-11.6c19.87-1.94,33.66,8.93,46.29,23.49l13.07-12.17c-15.14-20.93-34.59-31.56-59.36-32.2V627c29,1.93,52.44,14.41,69.73,38.63l15.57-9.54c-21.75-30.13-48.4-48.31-85.3-47.65V594.5c89.45,3.1,83.23,74.44,114.34,49.38-26.23-39.56-64.7-71.28-114.34-67.94V555.05c18.46,3.83,30-4.42,36.58-22.46-8.73-12.34-20.1-20.55-36.58-19.3V499.37c19.37-.38,33.82,9.34,46.21,24.26l12.59-11.52c-13.08-21.41-37.19-34-58.8-31.3V466.89c30.22-1.37,51.91,14.17,69.88,37.07l15.21-9.4c-21.12-31-49-47.27-85.09-48.55V432.09c40.31,2.52,75,22.18,96.68,57.45l16.11-5c-12.84-38.29-65.58-71.3-112.79-71V392.64c8.07-.55,18.26,1.86,23.83-2.21,27-19.4-1.43-38.18-23.83-39.55V337c18.61,1.69,34.38,9,45.84,25.59L1486,349.84c-15.36-20.24-34-32.3-59.46-31.44V304.47c29.58.39,52.21,14.36,69.68,37.89l14.58-8.62c-14.74-29.42-52.45-50.69-84.26-47.83V272c43.21-.6,73.7,21.87,97.26,56.15l16.92-6.07c-26.45-44.6-63.76-68.65-114.18-71V232.55c18.18,2.76,30.25-4.83,36.48-22.85-7.93-13.85-21.37-19-36.48-21.23V176.86c19.79-1.7,33.66,9,46.3,23.64l12.94-12.11c-15-21.2-34.62-31.43-59.24-32.41V142.06c28.7,2.34,52.41,14.14,69.39,38.83l15.86-9.41c-21.3-30.41-48.33-48.15-85.25-48V109.58c89.06,3.62,84.23,74,112.75,50.33C1521,119.05,1470.23,88,1426.54,91V70.14c18.45,3.94,30-4.28,36.56-22.26-8.63-12.56-20.24-20.35-36.56-19.51V14.45c19.26-.07,33.86,9.36,46.11,24.42l13.6-12.36C1470.19,7,1452.37-6.41,1426.54-4.11V-18c30.11-1.06,51.92,14.28,69.89,37.2l15.11-9.28c-21-31.43-49.11-47.06-85-48.8v-11.6c43.76-2.1,73.31,21.8,97.3,55.21l15.67-5c-14.38-39.07-65-70.77-113-71.05V-92.28c16.6,5.7,39.28-6.39,32.63-26.1-8.06-10.63-19.54-15.16-32.63-15.66V-148c18.81,1.92,34.89,9.34,45.91,25.85l13-12.4c-14.13-21.28-34.34-32.15-58.94-32v-13.92c29.44.72,52.22,14.41,69.68,38l14.55-8.61C1496-180.4,1459-201.29,1426.54-199v-13.92c87.57.8,84.74,74.73,113.26,49.27-24.52-43.78-63.8-67.58-113.26-70.15v-18.56c18.46,3.36,30-5.12,36.73-23.1-9.15-11.56-19.76-21.16-36.73-18.66V-308c19.67-1.34,33.72,9,46.16,23.77l13.09-12c-14.9-21.49-34.8-31.28-59.25-32.67v-11.6c30.55-2.55,51.53,14.12,69.91,36.36l17.73-10.43-39.58-35.21h22.89c6.23,7.17,12.75,14.09,18.6,21.55,8.75,11.15,10.48,11.56,24.27,2.35l-17.69-23.9h16c4.49,6,8.13,15.93,13.66,17.18a86.72,86.72,0,0,0,36.92,0c5.48-1.22,9.06-11.2,13.51-17.21h16l-17.35,24.58c.5,1.14,1,2.28,1.52,3.42,6,0,14.27,2.54,17.71-.5,8.89-7.85,15.67-18.17,23.3-27.5h22.88l-39,35.23,17.27,10.29c37.83-49.83,100.18-49.39,137.62-.07l17.4-10.19-39.44-35.26h22.89c6.17,7.15,12.64,14.06,18.45,21.5,9,11.61,10,11.91,23.42,2.85-4.13-9-11-16.33-16.69-24.35h16c4.48,6,8.1,15.94,13.62,17.18a86.72,86.72,0,0,0,36.92,0c5.5-1.22,9.09-11.19,13.55-17.19h16l-17.46,24.57,1.5,3.45c6.06,0,14.3,2.54,17.76-.5,8.92-7.86,15.73-18.18,23.38-27.52H1953l-39.15,35.2,17.3,10.31c37.74-49.87,100.57-49.33,137.61,0l17.37-10.24-39.28-35.27h22.88c6.16,7.16,12.59,14.09,18.4,21.52,8.87,11.34,10.28,11.7,24.12,2.4l-17.34-23.92h16c6.47,15.16,17.74,18.42,33.71,19.14,16.52.73,23.75-7.11,30.38-19.14h16l-17.6,24.48,1.41,3.49c6.1,0,14.38,2.56,17.88-.5,9-7.82,15.8-18.14,23.49-27.47h22.89l-39.28,35.2,17.31,10.29c38.1-50,100.48-49.15,137.64.08L2372-314.57l-39-35.25h22.89c6.11,7.16,12.51,14.1,18.29,21.53,8.8,11.33,10.15,11.68,24.11,2.43l-17.23-24h16c9.67,26.11,54.33,25.67,64.09,0h16q-8.83,12.26-17.68,24.49l1.35,3.48c6.11,0,14.39,2.56,17.91-.5,9-7.82,15.87-18.14,23.6-27.47h22.89l-39.4,35.2,17.37,10.29c37.34-49.45,99.84-49.7,137.58.05l17.21-10.29L2619-349.82h22.89c6.08,7.17,12.43,14.12,18.19,21.54,8.83,11.35,10,11.67,24.1,2.47l-17.12-24h16c9.27,26.58,54.46,25.34,64.08,0h16l-17.77,24.42c.51,1.19,1,2.37,1.54,3.55,6.07,0,14.3,2.55,17.79-.5,9-7.83,15.89-18.14,23.62-27.47h22.89l-39.58,35.2,17.76,10.44c18.28-22.4,39.42-38.75,69.88-36.36v11.6c-24.46,1.35-44.36,11.18-59.19,32.61l12.41,11.62c22-20.35,28-23.33,46.78-23.34v13.92c-16.9-2.39-27.7,6.86-36.52,18.68,6.51,18.11,17.9,26.09,36.52,23.08v18.56c-50.49,2.76-88.11,26.51-113.65,70.34,27.77,23.48,33-51.68,113.65-49.46V-199c-37.62-1.56-63.84,17.59-85.44,47.33l16,9.32c17.59-24.31,40.39-37.21,69.41-38.08v13.92c-25.34-.6-44.12,11.36-59.48,31.63l13.57,12.66c11.55-16.48,27.3-23.9,45.91-25.73V-134c-15.77.67-28.16,7.32-36.56,20.57,6.77,17.49,17.8,26.4,36.56,21.19V-71.4c-48,.24-98.79,32.08-112.95,71.07l15.83,5.06c23-33,55.24-58.11,97.12-55.24v11.6c-36.21,1.82-64.46,17.59-85.08,49.08l15.19,8.77c25.12-28.34,41.86-37.1,69.89-37V-4.11c-23.13-2.15-48.94,11.88-58.38,32l12.4,10.91c12.11-15.06,26.74-24.42,46-24.38V28.37c-13.5-1.56-34.09,8.17-35.64,22.53,3.86,15.31,21.12,21.12,35.64,19.24V91c-40.93-4.64-97,29.17-112.37,70.48,7.1,1,13.43,8.87,20.68-1.75,22-32.27,53-48.8,91.69-50.17V123.5c-36.93-.17-63.93,17.65-85.32,47.94l15.86,9.48c17-24.76,40.77-36.47,69.46-38.86V156c-24.62,1-44.31,11.19-59.26,32.46l13.19,12.2c12.25-15.07,26.35-25.32,46.07-23.78v11.61c-15.1,2.27-28.59,7.33-36.69,21.62,7.23,16.76,17.47,25.47,36.69,22.46v18.56c-50.71,2.37-88,26.58-114.23,71.05a152.57,152.57,0,0,0,17.38,5.67c23.61-34.63,54.08-56.33,96.85-55.84v13.92c-31.65-3-69.56,18.43-84.27,47.85l14.73,8.54c17.87-23.89,40.32-37.43,69.54-37.83V318.4c-25.42-.87-44.1,11.26-59.47,31.44l13.64,12.71C2825,346,2840.7,338.61,2859.33,337v13.92c-13.23.1-24.5,5.06-32.66,15.5-6.69,19.43,16.13,31.84,32.66,26.26v20.88c-47.28-.29-100,32.7-112.82,71l14.48,4.55c26.29-32.88,55.75-55.49,98.34-57V446C2823,447.45,2795,463.5,2774.27,495l15.42,8.86c18.25-23.27,39.82-38.23,69.64-36.93v13.92c-22.46-2.7-49,11.64-58.34,31.77l12.21,10.92c12.32-14.79,26.76-24.53,46.13-24.13v13.92c-16.81-1-28.34,7.13-36.26,18.91,6.37,19.71,18.61,26.26,36.26,22.85v20.89c-38.24-5-95.62,26.6-112.22,69.71,25.8,20.1,31.76-51.32,112.22-51.15v13.92c-37.13-.47-64,17.54-85.24,47.87l15.85,9.29c17.4-24.79,40.84-36.56,69.39-38.6V640.9c-24.84.51-44.17,11.38-59.35,32.16l13,12.19c12.75-14.44,26.47-25.49,46.38-23.47v11.6c-15.21,2-28.58,7.2-36.53,21.29,7.2,17.65,17.21,25,36.53,22.8V736c-50.87,2-88,26.48-114.15,71a128.78,128.78,0,0,0,17.33,5.53c23.67-34.39,53.92-56.43,96.82-55.6v11.6c-35.51,2.86-65.4,18.22-85.06,49.54l15.53,9c17.89-23.76,40.2-37.53,69.53-37.64v13.92c-25.56-1.21-44.07,11.18-59.5,31.31l13.64,12.64c11.53-16.41,27.09-24.08,45.86-25.38V835.8c-11.73-1.3-42.48,11.8-33.55,27,7.54,14.82,18.92,17.92,33.55,14.79v20.88c-46-3-98.52,32.82-112.4,71.15l15.55,4.42c29.76-39.73,45.51-48.92,96.85-57v13.92c-36.55,1-64.2,17.66-85.18,48.65l15.5,9c18.35-23.07,39.72-38.41,69.68-36.73v11.6c-24.42,2.28-45,11.31-59.15,33.26l13.27,11.77c12-15.24,26.48-24.72,45.88-24.15v13.92c-16.58-1.51-27.86,6.88-36.63,19.11,6.65,18,18,26.6,36.63,22.65v18.56c-39.17-1.29-70.18,15.74-96.13,44.09h-16c-.33-24.84-37.61-30.6-53.9-17.49C2687.83,1089.16,2684.89,1096.69,2680.81,1102.62ZM1682.62,888.37c-38.46-92.5-184.95-92.48-223.37,0,5.37,1.71,10.72,3.41,15.86,5.06,48.3-74.41,142.73-75,191.66,0Zm859.5-808.23c-46-92.28-183.34-92.54-224.52-.4,10.19,6.91,16.69,5,24.7-5.59,54.24-70.2,132.49-49.93,186.39,6.6l-3.86,4.56Zm60.2,807c11.82,7.78,18.18,5.29,26.17-5.21,49-65.23,139.67-56.55,182,11.57,6.52-2.11,10.86-3.19,17.26-5.79C2781,795.45,2649.38,795.32,2602.32,887.09ZM1761.42,893c49-74.74,143-73.85,191.42.43l15.86-5c-37.72-92.47-186.35-91.88-223.43,0C1750.64,889.86,1755.89,892.44,1761.42,893Zm572,.51c41.82-73.77,149.4-73.39,191.12.12l17.35-5.84c-47.39-92.5-178.68-92.5-225.84-.18C2322.54,890.42,2326.81,891.32,2333.47,893.47Zm-286,0c42.11-74,149.31-73.28,191.25.06l17.23-5.93c-47.78-92.44-179-92.55-225.9.34Zm412-1056.86c11.18,7.49,17.65,6.12,25.89-4.81,45.37-60.23,128.24-60.08,173.52.22,8.18,10.9,14.77,12.1,25.45,4.46C2637.84-254.79,2506.26-254.82,2459.41-163.34Zm-632.49.78c-46.82-92.27-178.64-92.51-225.4-.85,11.46,7.71,17.83,5.9,25.94-4.93,48.2-65.87,140.13-55.79,182.31,11.55Zm427.95,242c-42.83-93.55-187.55-88.83-223,.86,14.88,5.46,14.88,5.46,24.51-6.93,45.83-58.91,127.8-59,173.11.66C2237.49,84.57,2243.91,86.77,2254.87,79.43Zm347.5,484.41c10.72,6.49,17.2,6.85,25.28-4.11,48.38-67.16,141.21-56.44,183.29,10.38l15.9-4.92C2786.21,473.05,2646.8,472.72,2602.37,563.84Zm-572-161.67c11.57,7.85,18,5.81,26-4.92,48.49-66.49,140.65-54.72,182.72,11.3L2256,403.2C2209.15,310.69,2077.7,310.42,2030.4,402.17ZM2113,322.29c-47.57-92.69-179-92.85-226,0l17.35,5.62c42.06-73.86,149.43-73.38,191.22.09Zm-82.66,241.32c10.92,7.09,17.4,6.73,25.4-4,45.62-61,127.95-60.86,174.4-.61,9.88,12.81,9.88,12.81,25.08,4.4C2208.47,472.61,2077.47,472.76,2030.37,563.61ZM1682.76,403.49c-40.22-93.62-186.34-91.26-223.26.24l15.75,4.94c48.07-73.95,142.52-75.58,191.7,0Zm286,.13c-37.92-92.46-186.18-92-223.45,0l15.91,5c48.6-74.47,142.56-75,191.58,0Zm143-404c-38.55-92.81-186.49-91.78-223.34.08l15.77,4.88c46.71-72.92,141.94-76.36,191.81,0Zm286,0c-39-93.92-189-90.57-222.88.22l14.94,4.75c47.52-74.21,144.07-75.18,192.26,0ZM2190.23,327.94c46.7-72.49,141.31-77.13,191.89-.14l15.86-5.22c-42.8-94.74-186.86-90-223.36.3Zm-380.28.13,16.88-6c-47.56-92.59-178.76-92.35-225.9.29L1618,327.8C1666.88,252.7,1761.76,253.58,1810,328.07Zm506.52,74.05c11.62,8.12,18.09,5.6,26-4.95,54-70,133-50.84,184.14,8.76l-1.79,2.77,17.15-5.58C2495.32,310.77,2363.57,310.4,2316.47,402.12ZM1968.73,564.38c-40.1-91.51-185.37-91-223,.31,9.6,5.82,16.09,5.48,24.06-5.16,45.6-60.89,128.26-60.93,174.06-.16C1951.72,569.75,1958.21,570.89,1968.73,564.38Zm-509.12,0c14.78,6.94,14.78,6.94,23.65-4.78,45.69-60.35,128.81-60.7,174.74-.74,9.8,12.8,9.8,12.8,25.34,4.69C1638,472.7,1500.1,473.11,1459.61,564.34ZM2827.67-82.28c-47.21-91.87-178.67-92.09-225.79.66l17.51,5.7c42.53-74.11,149.14-73.5,191.15,0C2817-78.3,2821.87-78.88,2827.67-82.28Zm-571.55.6c-48-92.67-178.84-92.72-226.21.07l17.58,5.67c41.9-74.14,149.42-73.31,191.16,0Zm-494.79,5.17c47.94-73.74,141.81-75,191.52.53L1970-81.71c-47.83-92.76-178.85-92.57-226,0C1750.86-79.67,1755.27-77,1761.33-76.51Zm554.85,640.63c16.38,6.59,16.38,6.59,26.15-5.89,46.49-59.35,128.75-58.87,174,1,9.55,12.63,10.39,12.79,24.84,4C2494.11,472.56,2363.17,472.75,2316.18,564.12Zm286.34-162c11.63,8.21,18,5.47,25.93-5,48.9-65.19,140-56.64,182.09,11.67l17.37-5.67C2781.34,310.82,2649.58,310.36,2602.52,402.1Zm81.21,405.23c-40.46-93.47-186-91.06-223.28.29l16.05,5.06c42.15-74.06,149.56-73.07,191.21.19ZM1827,807c-47.68-92.83-178.78-92.64-226,.07l17.59,5.64c41.89-74,149.52-73.24,191.13.13Zm285.18-969.22c-46.54-94.14-178.92-91.42-225-.33a132.3,132.3,0,0,0,17.6,5.37c42.32-73.8,149.1-72.76,190.9.43ZM2476.41,4.85c42.34-68.59,133.7-76.65,182.9-11.18C2669,6.31,2669,6.31,2683.19-1.74,2642.89-94,2496.86-91.22,2460.54-.21Zm-666.9,0,16.23-5.3c-38.36-92.61-187-91.44-223.25.18l15.64,5C1666.64-70.14,1761.23-69.78,1809.51,4.82ZM1602.39,484.05c15.33,5.72,15.11,5.53,25.07-6.68,46-63.89,143.28-55.6,181.74,12.19l16.19-5.08C1789.28,392.43,1639.53,392.37,1602.39,484.05Zm571,160.57c10.63,6.59,17.07,7.06,25.24-4,45.18-61.34,129.47-60.85,175.25.14,9,12,10.16,12.16,24.21,3C2351.05,553.52,2220,553.66,2173.42,644.62Zm511.39-322.36c-46.94-92.8-178.6-92.56-225.68-.31a101,101,0,0,0,17.58,5.67c42.34-73.7,148.91-72.92,190.83.42ZM2603.46,79.7c11.36,7.53,17.68,3.89,25.43-6.19,52.66-68.88,136.23-51,184.3,11.14l13.41-4.18C2788.63-11.72,2642.09-11.65,2603.46,79.7ZM1969.51,79c-46.88-91-178.47-91.18-225.1.12,15.92,7.36,15.92,7.36,25.49-5,45.79-59.37,126.91-60,173.09-.59C1950.7,83.35,1956.9,87.43,1969.51,79ZM1475.45-76c41.89-73.92,149.43-73.49,191.2.16L1683.94-82c-47.82-92.46-178.94-92.27-226,.38ZM2399,807.09c-47.55-92.73-178.76-92.83-226-.09l17.35,5.81c41.86-73.79,149.39-73.7,191.18,0ZM2333.12-76c48.88-74.77,142.8-75,191.73-.12l16-5.09c-39.57-93.09-186.35-91.43-223.42-.14C2322.58-79.11,2327.3-78,2333.12-76Zm65.34-87.57c-47.22-91.3-178.76-91.31-225.53,1.18l17.47,5.5c42.88-68.48,133.62-76.75,182.48-11C2381.13-156.92,2387.71-156,2398.46-163.58ZM1682.8,79.36c-42.28-92.93-186.93-89.17-222.92.66,10.52,6.84,16.88,4,24.82-6.34,45.61-59.63,127.12-59.43,172.72.32C1665.35,84.4,1671.77,87,1682.8,79.36Zm776.66,565.12c11.44,7.5,17.79,6,25.52-4.46,45-60.62,129.33-60.38,174.27.62,8.22,11.14,14.65,10.34,25.15,4C2637.64,553.31,2506.41,553.43,2459.46,644.48Zm-364,168.29,16.45-5.42c-42.07-94.8-187.75-89.75-223.23.4l15.64,4.88C1953.36,737.29,2047.8,738.66,2095.5,812.77Zm381-323.24c41.46-68.06,133.87-76.76,181.87-11.61,8,10.68,14.32,12.93,24.66,5.89-34.57-91.16-188.11-91.49-222.15.87Zm-301.67-5.68c10.35,7,16.71,4.7,24.72-5.94,48.52-65.49,140-56.12,182.12,11.6l16.08-5.15C2358.37,391.54,2211.66,392.66,2174.81,483.85Zm-287.16,160.3c15.26,8.66,15.26,8.66,24.51-3.67,45.61-60.8,129.95-60.77,175.6.06,9.23,12.3,9.4,12.33,24.42,3.53C2065.6,553.52,1934.21,553.65,1887.65,644.15Zm0-484.4c10.81,7.21,17.13,6.58,25.1-4.11,45.66-61.26,129.18-60.65,175.18.46,8.9,11.81,10.58,12.05,23.22,3.33C2069.86,69.15,1931.4,69.19,1887.66,159.75ZM2111.6,484.39c-38.28-92.56-186.23-92.13-222.94.12l15.55,4.88c59.06-76,126.48-75.91,191.94,0Zm-510,160.11c10.77,7.19,17.13,6.73,25.12-4.09,45.17-61.25,129.4-60.62,175.34.49,8.85,11.77,10.21,12,24.08,3C1779.32,553.58,1647.94,553.59,1601.58,644.5Zm653.82,80.81c-46.88-91.42-178.27-91.18-224.92,0,15.61,8.06,15.61,8.06,25.19-4.53,45.64-60,128.43-60.51,173.78-.27C2237.51,731.18,2244,733.23,2255.4,725.31Zm143-565.85c-47.37-90.75-178.26-90.82-224.91.44,10.74,6.72,17.13,6.69,25.18-4.22,44.88-60.81,129.3-60.88,174.28-.27C2380.68,165.82,2387.06,167.34,2398.4,159.46ZM1968.86,726.61c-41.46-94.32-186.43-90.09-223.11-.34,10.25,6.51,16.72,4.81,24.75-5.94,48.83-66.72,140.58-54.34,182.89,11.41Zm573-.49c-46.9-92.13-178.76-92.51-225.31-.66,11.38,7.72,17.83,5.72,25.86-5,48.5-66.81,140.39-54.35,183,11.26Zm-858.61.36c-47.24-94.36-178.47-91.52-225.4-.19l17.59,5.56c47.53-73.34,141.19-76.16,191.38,0Zm919-.91c16.14,7.14,16.14,7.14,25.78-5.42,49.06-65,140.69-56,182.62,11.83l17.18-5.84C2780.69,633.86,2649.84,633.56,2602.3,725.57ZM1825.38,160.18c-38.89-92.12-188.55-89.57-222,.74,10.21,7,16.39,4,23.86-6,44.88-59.92,128.6-59.83,173.54.23C1808.42,165.34,1814.66,167.57,1825.38,160.18Zm633.76,808.16c16.77,6.18,16.77,6.18,25.75-5.57,46.08-60.31,129.94-59.5,175.39,1.69,8.37,11.27,10.71,11.55,23.65,2.25C2636.48,876.29,2505.93,876.67,2459.14,968.34Zm224-807.75c-35.69-91.47-187.75-90.5-222,0,9.76,6.78,16,5.26,23.8-5.19,45-60.55,129.66-60.45,174.25.27C2667.13,166.53,2673.5,166.73,2683.09,160.59ZM1602.59,968.43c10.46,6.6,16.84,5,24.5-5.28,44.93-60.42,129.49-60.22,174,.45,7.92,10.78,14.28,11.12,23.79,4.9C1788.26,877.07,1640.23,877.19,1602.59,968.43Zm508.53.17c-35.81-92.33-189.43-90.33-221.73.4,10,6.41,16.28,4.11,23.85-6,44.84-60,128.4-60,173.34-.1C2094.05,972.84,2100.3,975.59,2111.12,968.6Zm63.75-.08c9.42,5.8,15.82,6.11,23.85-4.8,44.82-60.84,128.45-61.12,174-.69,7.94,10.53,14.4,12.23,24.4,5.25C2359.74,877.1,2211.39,877.39,2174.87,968.52ZM1458.47-244.24c15.6,7.84,15.6,7.84,25.37-4.81,46.4-60.12,129.29-60.08,174.4,1,8.12,11,14.62,10.64,25.22,4C1636.84-335.33,1505.1-335.32,1458.47-244.24Zm875.94,1298c42.15-72.49,147.5-71.69,189.27.06l15.74-5.56c-37.25-90.05-183.91-89.51-221-.3C2323.2,1050.87,2328.26,1051.37,2334.41,1053.71Zm-571.94,0c42.45-72.53,147.16-71.92,189.06.08l16.28-5.69c-38.9-90-185-89.66-221.07.45Zm839.81-812.9c16.3,7.15,16.3,7.15,25.23-4.66,45.66-60.39,128.28-60.42,174.75-.07,9.81,12.74,9.81,12.74,25,4.23C2780.46,149.25,2649.2,149.39,2602.28,240.81ZM1475.2,247.15c43.3-68.84,135-76.76,184-9.93,8.62,11.55,10,11.74,23.81,2.68-47.24-90.9-178.41-90.38-225.11,1.54ZM2602.39-244c10.44,6.17,16.94,7.16,25.19-4,45.19-61.14,128.08-61.5,174.08-.88,8.06,10.62,14.65,12.46,25.78,4.55C2780.68-335.23,2649-335.39,2602.39-244Zm-60.69-.11c-47.1-91-178.43-91.44-225.32,0,10.35,6.1,16.86,7.4,25.17-3.85,45.41-61.49,129.52-61.52,174.76-.08C2524.53-236.85,2531.08-237.85,2541.7-244.11Zm0,484.89c-46.79-91.3-178.52-91.52-225.17-.26,11.23,7.72,17.69,6.12,25.85-4.71,48.63-66,140.66-56.2,182.23,11.12C2531,244.91,2535.82,244.54,2541.65,240.78Zm-286.25-.28c-46.43-91-178.7-91.25-224.81.15,11.35,7.79,17.81,5.57,25.84-5,45.71-60.19,128.24-59.64,173.77.32C2239.8,248.62,2239.8,248.62,2255.4,240.5Zm-573.77,807.83c-36-89.47-185-89.88-221.27,0l16.05,5.38c42-72.36,147.48-71.67,189.23,0Zm572.15.05c-39.91-91.37-183.85-89-221.37.12l15.74,5c58.88-73.91,125.71-73.81,189.92-.09C2243.41,1051.75,2247.86,1050.27,2253.78,1048.38ZM1969.64-243.92c-46.84-91.36-178.57-91.56-225.15-.19,10.61,6.84,17.12,6.85,25.18-4,45.54-61.43,129-61.31,174.78.37C1952.94-236.31,1959.48-238.57,1969.64-243.92Zm285.12.21c-43.71-92.17-179.4-90.69-224.29-.39,10.93,6.77,17.41,6.42,25.4-4.26,45.57-61,128.51-61,174-.12C2237.77-238,2244.27-237.09,2254.76-243.71Zm570.65,1292c-35.75-89.58-185-89.56-221.22.13l16.34,5.3c41.78-72.48,147.55-71.71,189.11.09Zm-1081-807.71c11.46,7.85,17.89,5.84,26-4.84,46.07-60.59,128.92-60,174.11,1.34,8.44,11.46,15,9.18,25.06,3.79C1922.73,149.31,1791.57,149.19,1744.39,240.54Zm330.36,344.24c32.63-49.6,104.19-49,136.49-.09l15.54-9.28c-38.87-63.5-129.46-63.66-167.55.17Zm-133.88-9.31c-39.14-63.62-129.33-63.6-167.77.11l15.72,9c32.61-49.42,104-48.7,136.49,0Zm842.48,8.92a81.77,81.77,0,0,0,15.1-9.64c-38.68-62.63-129.43-62.84-167.28.9l15.28,8.78C2685.13,534.27,2746.23,535.66,2783.35,584.39ZM2512.74,575c-39-62.74-130-63.29-167.45.77l15.52,8.77c32.64-49.23,104.15-48.64,136.33,0C2503.83,580.71,2506.47,579.48,2512.74,575Zm-.08-484.35c-38.46-63.5-129.29-63.6-167.5.14l15.56,9.11c32.53-49.2,104.1-48.82,136.4-.17C2503.43,96.4,2506.05,94.72,2512.66,90.63ZM1654.79,575.31c-38.74-63.31-129.57-63.51-167.67.35l15.75,8.94c32.48-49.64,104.65-48.47,136.56.13ZM1940.94,90.7c-38.87-63.42-129.79-63.81-167.67.14l15.38,9.1c32.26-49.12,104.38-49,136.58-.08ZM2369.72,9.87c-38.34-63.54-130-63.58-167.46.28l15,8.65c35.82-47.68,98.27-51.52,137.62,0Zm285.38.32c-38.78-64.18-131-63.87-166.13.31l14.25,8.43c34.86-46.93,97.28-52.5,137.71-.11ZM2226.79,90.76c-38.62-63.66-129.34-63.73-167.59,0l15.17,8.94c35.14-46.52,96.29-52.5,137.55-.24ZM1797.7,10c-38-63.54-130.15-63.88-167.27.21l14.74,8.66c38.33-50.08,100.44-49.21,137.61.07ZM2798.79,90.66c-38.28-63.25-130.11-64-167.38.37l14.71,8.49c39.43-50.69,100.89-48.06,137.08-.39C2789,97.5,2792.11,94.32,2798.79,90.66ZM2226.7-232.41c-37.88-63.43-129.61-63.4-167.53-.05l15.6,9.32a81.12,81.12,0,0,1,136.39-.07ZM1931.77,504c32-49.57,104.63-48.77,136.64,0l14.92-9.13c-44.64-68.59-131.55-59.56-165.83-.36C1920.79,499,1926.23,500.09,1931.77,504Zm724-170.88c-38.29-63.26-130.17-63.4-167.5.19L2503,341.9c50.34-50.4,84-50.37,138.06-.07Zm-1001.54-242c-41.75-65.91-128.52-62.7-166.37.14l14.77,8.63c32.42-49,104.33-48.75,136.68,0ZM1645,988.32c39.51-51.82,102.59-47.31,137.56,0a157.18,157.18,0,0,0,15-9.16c-37.88-63.15-129.81-63.3-167.18.36ZM1940.81-232.52c-38.74-63.26-129.46-63.33-167.61,0l15.63,9.36c32.36-49.93,104.11-49.45,136.36-.08ZM2083.87,817.87c-38.43-63.35-129.9-63.3-167.73,0l14.88,8.77c39.21-50.41,100.34-48.9,137.8-.06Zm419.8,170.9c32.41-49.75,104.65-48.67,136.88,0l14.72-9.37c-46.39-70.37-133.85-57.19-166,.61Zm0-484.82c32.66-49.66,104.59-48.58,136.82,0l15.07-9.45c-37.87-63.36-129.85-63.52-167.16.27ZM2083.48,9.52c-37.87-63-130-63.35-167.22.68l15.25,8.7c35.68-47.8,97.65-51.43,137-.12C2073.86,15.63,2078.39,13.57,2083.48,9.52Zm142.35,1049.22c-38.31-61.48-127.95-61.64-165.76.23l15.59,9.32c31.86-48.06,102.84-47.31,134.85,0ZM1645.31,342.13c37.27-48.43,97.58-51.11,137.5-.12l14.9-8.95c-37.84-63.42-130-63.12-167.58,0Zm9.52-574.72c-38.29-62.92-129.92-63.48-167.56.29l15.53,9.13c32-49.85,104.42-49.17,136.6,0C1644.83-226.51,1649.32-229.24,1654.83-232.59Zm-9.54,90c35.86-47,96.3-52.49,137.63-.23l14.9-8.84c-38.19-63.39-129.8-63-167.77-.07Zm571.77,969.24c37.53-48.81,98.67-50.38,137.9.09l14.8-9.08c-38.42-63.09-130-63.08-167.63.31ZM1645,503.58c39.11-51.22,101.81-48,137.59,0,5-3.34,10.58-4.78,14.53-9.79-37.52-62.43-129.87-62.65-166.74,1ZM2202.42,495l15.26,8.89c32.45-49.46,104.67-48.65,136.81.1l14.79-9.26C2327.55,430.74,2244,430.78,2202.42,495ZM1654,897.38c-38.28-62.23-129.22-62-166.8,1.39l15.57,9.1c32.23-49.52,104.42-48.65,136.59-.13C1645.21,903.6,1650.28,903.24,1654,897.38Zm-.18,161.35C1615,997,1525.91,997.1,1488.12,1059l15.51,9.26c31.79-47.92,103-47.52,134.85,0Zm992.86-797.31c32.42-49.47,104.49-49.1,136.71.15l15.33-9.33c-37.91-63.21-129.86-63.36-167.48.19Zm-562.86,718c-38.34-63.46-129.87-63.69-167.51.13l14.86,8.83c37-49.23,100-50,137.61,0ZM2488,818l15.46,8.78c35.35-46.67,95.79-52.5,137.29,0l14-8.45C2620.86,754.27,2524.15,755,2488,818Zm24.24,80c-38.41-62.94-129.18-62.7-167.1.77l15.49,9.14c32.46-49.4,104.4-48.79,136.69-.1C2503.44,903.9,2507.32,902.81,2512.27,898Zm.53-1130.47c-38.6-63.27-129.38-63.28-167.61,0l15.09,9.06c32.6-44,93.62-55.07,137.71-.17ZM1931-142.93c36.94-48.09,98.21-51,138.05.12l14.79-8.95c-38.42-63.26-129.81-63-167.76.12Zm438.91-8.69c-38.34-63.37-129.84-63.19-167.91,0l15.39,8.91c34.66-45.7,95-53.59,137.47-.21C2359.35-145.53,2363.92-148.18,2369.89-151.62Zm285.76,0c-37.27-63.24-130.25-63.42-167.41.08l15.51,9.12c32.18-49.71,104.45-49,136.61-.09Zm-724,494c32.73-49.8,104.4-48.87,136.85-.07l14.36-8.79c-34.06-63.89-130.5-63.07-166.69-.5Zm-277.21-90.52c-37.76-62.73-130.17-63.16-167,.71l15.28,8.95c32.3-49.68,104.51-49,136.63-.13C1646.1,257.32,1648.72,256.69,1654.42,251.84Zm.3,162.07c-38.27-63.55-129.82-63.69-167.47.19l15.5,9c32.6-49.78,104.45-48.53,136.7-.1Zm714.62,565.66c-44.33-68.23-131-60-166.4.44l14.71,8.62c32.21-49.26,104.74-48.75,136.74,0Zm277.2-71.88c37.1-49.37,99.19-50,136.74-.18a104.14,104.14,0,0,0,15.27-9.21c-37.41-62.62-129.58-63.35-166.5-.59C2635.7,903.2,2640.89,903.76,2646.54,907.69Zm-705.71-9.06c-38.63-63.49-129.85-63.65-167.58.18l14.87,8.68c48.47-50.43,87-50.45,137.86,0Zm706-1121.69c32.43-50.14,104.17-49.37,136.41-.11l15.61-9.42c-38.77-63.19-129.51-63.31-167.61.13Zm-14.35,1282.21,14.76,8.93c36-46.17,96-50,135.8-.13l14-8.58C2761.23,1000.55,2676.31,993,2632.45,1059.15ZM2369.82,333.08c-38-63.17-130-63.33-167.69.07l15.57,9.2c32.54-49.75,104.47-48.86,136.71-.13Zm-572,484.82c-37.88-63.42-130-63.25-167.82,0l15.73,9c32.18-49.29,104.51-48.91,136.52.06ZM2360,422.83c38.85-49.87,99.43-49.49,137.82,0l14.79-9c-38.11-63.5-129.82-63.4-167.24.13Zm-285.26.17c32.32-49.26,104.32-48.76,136.63.08l15.44-9.29c-38.89-63.45-129.62-63.16-167.69.19ZM2512,1058.89c-38.75-61.64-127.65-61.83-165.92.08l15.15,9.06c37.5-47.42,97.09-48.77,135.67-.17Zm-723,9.19c38.14-48.08,97.94-48.11,135.89-.08l14.93-9.18c-38.32-61.6-127.43-61.58-165.67-.07Zm151.82-815.8c-38.07-63.26-129.66-63.3-167.69,0l15.69,9.28c32.62-49.9,104.12-49.22,136.48,0C1930.6,258.36,1935.12,255.67,1940.79,252.28Zm286-.28c-38.84-62.86-129.51-63-167.59.27l15.52,9.35a81.22,81.22,0,0,1,136.38-.23C2217.57,258,2220,256.24,2226.79,252Zm286,.19c-38.24-62.89-130-63.51-167.55.29L2360,261c44.74-55.11,105-43.48,137.54.31ZM1940.66,414c-38.17-64-129.54-63.56-167.54-.08l15.42,9.13c34.22-46.41,95.84-53.2,137-.35Zm714.85-242.86c-37.74-63.07-129.81-63-167.37.47l15.25,8.82c36.6-48.16,98.21-51,137.3-.1C2645.9,177.34,2650.47,175,2655.51,171.17Zm-285.76.29c-38.08-63.37-129.74-63.41-167.61.14l15.27,8.85c36.52-48,97.82-51.16,137.4,0Zm286,484.74c-38.15-63.2-129.91-63.47-167.61.21l15.24,8.8c35-46.15,95.76-53,137.48-.07Zm-1010.14,9.41c32.26-49.82,104.62-49.28,136.65-.09l15.39-9.19c-37.74-63.48-129.56-63.26-167.55-.21Zm9-736.41c-38-63.59-129.66-63.71-167.45.06l15.47,9.12c32.4-49.65,104.44-48.83,136.67-.09ZM2074.6,908c32.58-49.53,104.44-49,136.84-.07l15.19-9.33c-38.57-63.6-129.24-63.53-167.3,0ZM2798.16-70.51c-36.57-64.34-130.28-63.13-166.91-.13l15.46,8.89c32.43-49.33,104.42-48.86,136.65.08ZM2068.69,665.42l14.44-9.17c-39.9-64-129.67-63.63-166.35.41l14.32,8.52C1970.62,614.32,2031.58,616.9,2068.69,665.42Zm-423-484.66c32.18-49.65,104.65-49.08,136.73.07l14.88-9.21c-41.14-64.39-129.38-64-166.51.3Zm437.65-9c-40.65-64.31-128.34-64.06-166.64.12l15,9c32.1-49.63,104.68-49.22,136.65-.08Zm715.56,242.1c-38.82-63.33-129.76-63.45-167.67.23l15.46,9c32.34-49.2,104.39-48.93,136.63.05Zm-1010,332.45c32-49.58,104.3-49.28,136.39.08l15.55-9.48c-38.77-63.11-129.75-63.22-167.61.28ZM2798.74,737c-38-63.24-129.55-63.2-167.6,0l15.7,9.35c32.22-50.09,104.36-49,136.54-.09Zm-286.87.46c-33.37-63.44-131.15-63.85-166.46-.2l14.81,8.72c36.41-47.84,97.42-51.45,137.28-.38C2502.68,743.44,2506.49,740.61,2511.87,737.47ZM1940.94-71c-39-63.12-129.81-63.37-167.68.23l15.42,9c32.3-49.26,104.34-49,136.58,0Zm419.28,8.85c36.25-47.39,96.9-51.56,137.72.13,5.18-3,9.2-5.64,14.56-9.31-38.24-63-129.67-62.7-167.28.48C2351.52-67.13,2354.83-64.85,2360.22-62.13ZM2226.89,737c-38.59-63.22-129.67-63.29-167.75,0l15.29,9c33.51-45,94.24-54.39,137.44-.19ZM2074.42-61.71c37.07-49.09,98.44-50.68,136.86-.35a123.45,123.45,0,0,0,15.22-9c-37.79-63.23-129.61-63.33-167.24.29ZM1654.73,737c-38.15-63.14-129.54-63.15-167.64.1l15.61,9.25c32.5-49.77,104.4-49.11,136.71,0Zm562.59-71.62c36.7-48,97.69-51.43,137.41-.29,5.14-3,10.16-5,14.73-9.3-37.74-62.66-129.84-62.77-167.26.6Zm555.33-396.07c-30.54-42.79-88.48-42.52-115.08.43l12.75,11.74a53.64,53.64,0,0,1,89.28,0Zm-286.32.55c-29.63-47-92.73-39.38-114.53.26l12.36,11c23.56-29.56,61.13-34.31,89.76,0Zm183.42-473.68c34-32.32,54-32.31,90.62-.07L2773-215.81c-27.69-41.88-89.31-42.28-116,.49C2661.9-210.93,2665.85-207.39,2669.75-203.87ZM1615.8,281.24l12.71-11.75c-28.78-42.9-86.62-42.84-115.14,0,4,3.74,8.19,7.59,12.33,11.41C1560,248.93,1585.85,248.81,1615.8,281.24Zm584.85-496.61c-30.17-43-89-42.62-115.06.39l12.81,11.74c21.33-32.2,67.74-31.49,89.33-.2C2192.32-207.69,2196.21-211.28,2200.65-215.37Zm-285.88,0c-31.21-43.17-90.69-42.48-115,.59L1812-203.68c31.72-32.5,58.11-32.49,89.89-.06ZM1812,281.22c25.61-31.46,63.09-32.68,89.84-.12l12.44-11.32c-28.63-45.87-91.56-40.48-114.44.08Zm661.9-484.71,12.73-12c-30.67-42.86-89.06-42.49-115,.57L2384-203.67C2411.35-236.7,2448.75-234.44,2473.91-203.49ZM2098.1,766c22.31-28.33,59.51-35.91,89.9-.2l12.91-12.06c-27.34-42-89-42-116,.16ZM1526-203.61c25.41-30.8,62-33.12,90-.17L1628.34-215c-26.46-43.21-90.31-42.94-114.51.09ZM2384,766c24.47-30.51,61.94-33.82,89.86-.12l12.79-11.86c-31.08-42.9-91.44-42.19-114.85.61ZM2200.6,269.44c-29.45-42.92-87.93-42.76-115.1.17l12.76,11.78a53.74,53.74,0,0,1,89.34,0ZM2772.66,754c-30.65-42.77-89.55-42.4-115,.54l12.81,11.84c21.15-32.71,67.91-31.91,89.19-.17ZM2527,200.67c22.61-31.9,67-31.87,89.87,0l12.46-11.92c-27.86-43.11-90.52-42.6-114.42.25Zm-755.37-12c-33.53-48.51-94.92-36.58-114.65.69l12.28,11.34c22.22-32.24,67.42-31.42,89.52-.18Zm857.7-484.5c-27-43.15-91.09-42.68-114.48.3l12.39,11.29c23.15-31.93,66.6-31.45,89.56,0ZM1771.39-296c-30.26-46.26-92.66-39.13-114.45.55l12.4,11.37c22.17-32.33,67.29-31.25,89.5-.21Zm143.3,1050.2c-30.66-43-90.81-42.35-114.93.5L1812,765.9c26.88-32.59,64.12-31.52,89.77,0Zm326.06-553.84c23.38-27.65,57.9-36,90.67-.24l11.83-11.35c-26.91-42.89-90.11-42.53-114.44.3C2232.52,192.55,2236.36,196.18,2240.75,200.32ZM2058,188.19c-27.48-41.74-89.53-42.68-115.71.52l13,11.74c22.8-32.13,67-31.08,89.7,0Zm183.29-472.33c22.51-32.32,67.41-31.22,89.65,0l12.49-12.06c-33.58-48.93-95.73-35.74-114.42.77ZM1771.75,350.15c-30.86-42.85-87.62-42.49-115.35.27l12.71,11.78c22.29-32.25,67.75-31.82,89.65,0ZM1628.91,753.87c-27.28-42.17-89-42.07-116,.11l13.2,12c23.66-29.37,60.46-34.78,89.89-.11Zm326.26-1038c22.65-32.2,67.27-31.42,89.76-.08l12.34-11.91c-27.83-43.18-92.27-42.6-114.26.61Zm388.32,957.63c-28.52-43.19-90.13-42.85-114.74.34l12.48,11.51c22.22-32,67.48-31.58,89.55,0C2335.23,681.21,2339.08,677.62,2343.49,673.52ZM2514.27,350.2l12.93,12.14c21.83-32.38,67.86-32.06,89.56-.08l12.57-11.84C2602.44,307.51,2543.79,307.39,2514.27,350.2ZM1942.05,673l13.17,12.49c22.3-32.28,67.56-31.68,89.57-.08l12.82-12.11C2027.7,631,1975.52,630.54,1942.05,673Zm22.6,22.28c13.28,21.75,13.29,21.17,47.44,21.69,15.9.25,15-15.09,23.79-20.76C2016.62,667,1982.69,667.15,1964.65,695.25Zm276.5-817.73c21.91-32.22,67.87-32.08,89.56,0l12.94-12.19c-30.67-42.84-86.09-42.66-115.35.09Zm9.34,817.9c14.46,21.92,14.46,21.45,48.36,21.5,15.24,0,14.3-15.08,22.92-20.62C2303.76,667.26,2269.55,667,2250.49,695.42Zm276.8-10.23a54.11,54.11,0,0,1,88.91-.82l13.73-10.63c-31-43.3-87.67-42.91-115.22-.63C2518.4,677.81,2522.48,680.85,2527.29,685.19Zm-848.61,10.06c13.2,21.83,13.21,21,46.15,21.76,16.36.36,16.45-14.43,24.9-21C1730.82,667.07,1696.66,667.17,1678.68,695.25Zm795.4-575.88,12.73-11.66c-36.53-50.66-98.11-33.56-114.8,1l11.73,10.6C2411.82,87.1,2446.91,87.9,2474.08,119.37Zm-273.63-11.2c-27.81-43.15-88.25-43-114.92.07l12.33,11.14c25.91-30.44,61.15-33.3,90.3-.09Zm40.78,900.28c22.45-31.91,67.19-31.57,89.55,0l13-12.3c-27-41.88-89.81-42.43-115.46.46ZM2331,38.53l12.82-11.63c-26.7-42.27-89.09-42-115.89-.07,4.86,4.39,9,8.1,13,11.73C2272.83,6.52,2298.62,6.53,2331,38.53Zm-286.16.28,12.82-11.94C2026.61-15.73,1968-15,1942.18,28.18a123.57,123.57,0,0,1,12.7,10C1988.84,6.43,2014.27,6.39,2044.85,38.81Zm196.5,323.63c21.54-32.91,67.72-31.8,89.51-.28,4.93-4.61,8.81-8.24,12.6-11.8-27.91-42.86-86.17-43-115.14-.09Zm-184-12c-28.69-45.73-92.29-40.29-114.51.49l12.25,11.16c22.92-32.29,67-31.64,89.83,0ZM1914.45,108.17c-28.21-43.2-88.24-43-114.87,0l12.23,11.2c25.75-30.06,60.63-33.76,90.4-.13ZM1669.29,685.58c22.17-32.68,67.5-31.51,89.56-.26l12.83-12.09c-35.43-50-96.4-34.62-114.7.88Zm102.29-820.13c-29.32-42.87-88.16-42.77-115.09.34L1668.73-123c24.5-28.25,58.32-35.45,90.65-.1Zm286.18,0c-31.28-42.94-91-42.4-115,.63l12.61,11.32c22.21-32.38,67.62-31.75,89.4.09Zm571.55.33a67.15,67.15,0,0,0-114.81,0c4,3.69,8.11,7.45,12.8,11.74,22-32.62,67.64-31.63,89.57-.14ZM2486.78,592.56c-35-49.36-96-35.47-114.93.76l12.44,11.18c23.11-32.23,66.67-31.28,89.52-.13Zm-961,11.58c28.4-32.88,64.22-30.84,90.23.14l12.92-11.88c-27.21-42.33-89.38-42.5-115.85.18Zm429.44,404.47c23.25-32.5,66.54-31.52,89.62-.25l12.88-11.94c-26.35-42.39-89.13-42.51-115.54,0ZM2527.15,38.93c23.34-32,66.37-31.84,89.64-.07l12.57-11.61c-27.3-42.9-89.34-42.63-114.74,0ZM1771.94,26.76c-27.24-41.91-89.53-42.26-115.77.38l12.73,11.17c25.24-28.31,57.56-35,89.92-.53C1764,35.66,1766.68,31,1771.94,26.76ZM2607.6,696.12c-17.94-29.23-55.18-29.06-70-1.73,6,27.24,26.6,21.17,44.76,22.62C2599,718.32,2599.16,702.83,2607.6,696.12ZM2760.1,119.5l12.51-11.7c-30.42-43.13-91.74-42.43-114.77.69l12.13,11C2701.15,87.2,2728.12,87.22,2760.1,119.5Zm12.6,473.2c-33.77-48.86-95.16-36.37-114.87.56l12.44,11.28c23.09-32.29,66.57-31.26,89.58-.24Zm-857.7-.35c-27.43-42.29-89.23-42.35-116,.19l12.74,11.5c29.83-34,65.42-29.43,90.27.18C1906.13,600.44,1910.25,596.67,1915,592.35ZM1525.89-41.92c31.32-32.67,58.17-32.65,90.1-.16l12.28-11.43c-26.19-43.08-91.45-42.82-114.4.22Zm143.2,1050.21c23.83-31.78,66.1-31.51,89.77,0l12.85-12c-26.56-42.32-89.17-42.21-115.6.15ZM1771.71,835c-30.38-42.93-90.44-42.4-115.08.43,4.09,3.66,8.25,7.37,12.72,11.38,22.33-32.35,67.44-31.56,89.39.06ZM1525.77,119.47c24.71-29,59.33-34.89,90.46-.22L1628.37,108c-28.34-43.08-88.46-42.85-114.76.14ZM1628.5,431c-29.59-42.75-88.91-42.28-115,.31L1526.17,443c22.14-32.27,67.61-31.88,89.67-.05C1620.45,438.62,1624.28,435,1628.5,431ZM1772,511.62c-27.16-42.11-89.56-42.43-115.8.2l12.69,11.31c25.33-28.62,58.16-34.72,90.34-.11Zm755.3,11.84c23.81-32.1,66-31.2,89.76.14l12.75-12.34c-27.06-41.62-89.57-41.94-115.67.62Zm142.92-565.2c22-32.22,67.92-32.11,89.55.14l12.83-12.25c-29.78-42.69-89.17-42.25-114.92.38Zm-285.87.13c21.6-32.63,67.66-31.85,89.5-.18l12.71-12c-28.9-42.77-88.29-42.54-115,.15C2375.55-49.81,2379.68-45.94,2384.32-41.61Zm-286.41-.28c30.61-32.68,58.85-32.62,90-.1l13-12c-27-42-88.86-41.78-116-.18C2089.62-49.75,2093.48-46.1,2097.91-41.89Zm-63.5,250.36c-14.54-25.46-56.83-25.34-70.43,3.11,8.92,6.24,8.47,21.56,23.82,20.61C2006.15,231.05,2027.39,237.93,2034.41,208.47Zm166.16,384.32c-29.23-43.26-89.92-42.83-114.9.36l12.18,11c32.1-32.29,54.08-32.28,90.55-.32Zm-572.12,323c-28.94-42.8-87.82-42.55-115,.15l12.79,12c21.75-32.49,67.55-31.9,89.58-.26Zm612.69-69c23-32.23,66.84-31.73,89.71,0l12.67-11.7c-28.45-43-92.14-42.64-114.7.62Zm-429.38,80.64c31.83-32.27,58.78-32.27,90.27-.07l12.2-11.31c-25.29-43-89.23-43-114.62,0Zm102.7-496.31c-30.15-46.57-93.73-38.89-114.55.6l12.15,10.88c30.47-32.37,54.47-32.33,90.32-.3Zm183.31,11.54c31.53-32.37,58.21-32.36,90.3-.1l12.22-11.31c-25.73-42.92-89.41-42.87-114.62,0Zm531.49,554.18c-26.71-43.16-90.77-42.79-114.5.18l12.53,11.43c22.3-32.07,67.1-31.48,89.4-.2C2621.13,1004.28,2625,1000.74,2629.26,996.89ZM2384,442.87c23.06-28.51,59.35-35.92,90.07-.18l12.34-11.49c-26.88-43-91.58-42.75-114.5.28Zm376.22-.32c4.09-3.79,8.22-7.61,12.24-11.35-27.35-43-92.37-42.65-114.52.42L2670,442.76C2700.41,410.31,2726.84,410.38,2760.19,442.55Zm-152-231.28c-14.51-27.82-56.52-28.59-70.65-2.49,6.57,29.13,27.85,22.22,46.24,23.41C2599.77,233.23,2599,217.31,2608.16,211.27Zm-286,.21c-15.32-28.75-56.5-29-71.72-1,14.3,21.81,14.32,21,47.12,21.84C2313.57,232.69,2312.87,217.39,2322.13,211.48Zm-642.62-2.39c6.86,29.49,28.73,22.12,47.36,23,15.12.69,14.29-15,22.94-20.51C1731.37,182.36,1697.28,182.22,1679.51,209.09ZM2670,927.77c22.22-32.07,67.69-32,89.78,0l12.7-11.91c-28.78-42.8-88-42.62-114.95.09ZM2527.31,847c22.28-32.56,67.35-31.92,89.39-.15l12.52-11.47c-25.24-43.17-89.69-43.08-114.6.09C2518.46,839,2522.4,842.57,2527.31,847Zm-571.9-323.29c22.51-32.52,67.19-31.2,89.45-.1,4.66-4.37,8.52-8,13-12.2-27-41.77-89.44-42.3-115.7.34ZM1914.56-53.8c-29.87-42.75-89.71-42.27-115,.37l12.64,11.72c21.89-32.38,67.57-31.81,89.59-.11C1906.43-46.14,1910.28-49.78,1914.56-53.8ZM2188,927.54l13-12.13c-27.51-41.95-89.16-41.82-115.94.15l12.58,11.68C2131.69,895.09,2157.17,895,2188,927.54Zm196.34.29c22.49-32.78,67.3-31.49,89.56-.13L2487,915.41c-27.13-41.82-89-41.77-116.08.06ZM1942.2,835.08,1955.52,847c22-32.78,67.22-31.46,89.26-.15l12.54-11.46C2031.6,792.58,1972.27,792,1942.2,835.08Zm389-311.72,12.68-12c-26.87-41.81-89.38-42.12-115.73.35l13,11.72C2271.79,491.07,2298,491.1,2331.15,523.36ZM1965.42-275.58c7.11,28.8,28.61,22.21,47.39,23,15.27.62,14.25-15,22.89-20.49C2018.38-302.13,1983.32-302.38,1965.42-275.58Zm355.11.3c-17.35-27.07-51.75-27.14-70.43,1.85,8.56,6.44,8.5,21.63,24.94,21.06C2294-253,2314.1-248.79,2320.53-275.28Zm216.93-.25c7.67,30.15,30.32,22.57,49.41,22.61,13.52,0,12.83-15.08,21-20.62C2587.94-302.37,2554.78-302.25,2537.46-275.53Zm-909.7,1351.8c-29-41.59-87.24-41.37-113.41.35l12.19,11.23c26.12-28.84,59.92-32.06,89,0Zm572.14,0c-30.3-41.81-88.39-41.33-113.46.38l12.06,11.16c33.08-30.65,50.13-30.6,89.3-.34ZM2751-192.59c-14.41-28.25-56.36-28.76-70.45-2.45,7,29.18,28.57,22.31,47.29,23.06C2743-171.38,2742.29-186.6,2751-192.59Zm-286.3-.37c-19.94-28.89-54.94-28.31-69.95-1.63,5.33,27.07,25.44,21.32,43.32,22.91C2454.93-170.18,2456.4-184.76,2464.66-193Zm-785.23-82.4c6.44,27.9,27.63,22.13,46.64,22.84,15.92.6,15-15.1,23.79-20.84C1730.72-302.5,1696.29-302.34,1679.43-275.36Zm133,1363.29c26.71-29.08,59.79-32,89.21-.09,4.07-3.9,8.14-7.78,12.13-11.59-29-41.59-86.82-41.36-113.4.27Zm661.15-.19,12.22-11.45c-28.77-41.47-85.67-41.41-113.59.06l12.22,11.56C2411.54,1058.15,2444.31,1056.65,2473.54,1087.74ZM1892.22-192.92c-14.4-28.7-59.3-28.6-69.26.81,3.46,7.3,8.68,17.36,15,18.9,12.21,3,25.63,1,38.53.66C1883.46-176.43,1887.16-186.73,1892.22-192.92Zm-356.38-.27c13.55,22.19,13.54,22,48.65,21.2,14.68-.32,14-14.95,22.23-20.78C1587.3-221.81,1552.42-221.43,1535.84-193.19Zm1236,1269.51c-30.09-41.82-88.59-41.37-113.41.4l12.57,11.54c22.09-30.55,65.85-30.13,88-.1ZM2108.32-194.59c7.64,29.33,30.19,22.39,49.45,22.3,13.5-.06,13.12-14.77,21-20.58C2158.74-221.52,2127-221.53,2108.32-194.59Zm70,324.61c-15.79-28.47-59.89-28.44-69.19,1.5,12.53,24.19,27,21.31,50.44,19.45C2169.1,149,2172.68,136.81,2178.3,130ZM1854.11,636c24.59,0,24.81.14,34.68-16.2,1.57-2.62,1.6-8.23-.14-10.54-15.63-20.74-47.76-20.81-63.3-.14-1.77,2.35-1.57,7.56-.34,10.66C1830.81,634.39,1841.92,639.31,1854.11,636Zm539.6-21.8c6.33,17.41,19.21,23.72,37.58,22.42,13.26-.85,22.84-2.86,29.45-15.67C2471.85,597.85,2415.56,577.78,2393.71,614.17Zm-644,405.23c-18.36-29.32-54.73-29.07-70.82-.5,13.9,21.74,13.9,21.42,48.37,21.23C1742.17,1040.05,1741.27,1025.09,1749.66,1019.4Zm286,.06c-18.23-29.37-54.71-29.12-70.2-1.71,6.66,27.65,27.93,21.42,46.61,22.43C2028,1041,2027,1025.2,2035.7,1019.46ZM2393.49,130c10.24,21.93,16.71,19.09,38.13,21.27,13.76,2.39,22.75-3,29.28-15.38C2471.54,112.33,2414,93.43,2393.49,130Zm-142.94,888.31c13.63,21.82,13.66,21,46.31,22.06,16.45.53,16.28-14.48,24.72-21C2303.88,990.51,2270.1,990.1,2250.55,1018.28Zm285.32.84c9,6.74,8.75,22,25.34,21.27,18.84-.87,38.77,3.51,45.28-22.73C2590.24,990.68,2556.48,990.16,2535.87,1019.12ZM2178.19,614.26c-17-27.89-58.6-27.37-69.42,1.25,4.07,7.43,9.29,17.78,15.92,19.42,12.15,3,26.08,2.62,38.32-.37C2169.08,632.68,2174.13,621.4,2178.19,614.26Zm571-1.12c-16.9-26.86-51.52-26.8-70.08,2.23,8.39,5.78,7.77,21.09,22.7,20.67C2720.57,635.51,2742.08,642.18,2749.24,613.14Zm-893.62-462.8c17.12,6.43,38.72-7.16,32.94-26a39.91,39.91,0,0,0-62.56-.76c-2,2.49-2.19,8.31-.8,11.51C1831,148.52,1840.75,155.55,1855.62,150.34ZM1965.4,532.62c5.61,19.28,17.91,22.48,35.06,23.25,18.69.84,27.85-7.27,34.62-22.3C2017.2,505.54,1982.64,505.55,1965.4,532.62Zm-359,82c-16.7-28.23-60.41-28.15-69.12,1.91,12.42,24,27.36,21,50.57,19.26C1597.39,633.75,1600.67,621.28,1606.42,614.6Zm73.06-82c5.51,19.53,18,22.5,35,23.3,18.73.88,27.82-7.29,34.49-22.38C1731,505.45,1696.52,505.55,1679.48,532.57Zm571,1.14c14.45,21.81,14.45,21.36,48.34,21.55,15.17.09,14.36-14.82,22.83-20.39C2304.24,505.74,2269.94,505.44,2250.44,533.71Zm286.89-1.34c7.26,29,29.2,22.3,48.23,22.71,14.85.31,13.74-15.28,22.42-20.73C2587.62,505.68,2556,505.59,2537.33,532.37ZM1606.4,129.85c-16.5-28.22-60.44-28.2-69.1,1.86,12.38,24.09,27.32,21,50.52,19.29C1597.4,149.06,1600.63,136.54,1606.4,129.85ZM2715,959c22,0,22.27.18,31.78-16.12,1.63-2.79,1.08-9-1-11.55-15.84-21.59-57.29-19.27-65.16,7.95C2683.56,953.27,2701.59,961.1,2715,959ZM1857.4-10.73c21.74,0,22,.14,31.66-16.28,1.51-2.57,1.14-8.21-.69-10.58-15.62-22.16-58.29-20.2-65.62,7.57C1826-15.55,1843.63-8.85,1857.4-10.73Zm822.14,140.08c12.94,21.83,12.94,21.83,37.22,21.83,13.53,2.38,22.86-1.9,29.7-14.58C2758.54,113.51,2702.35,92.84,2679.54,129.35ZM1570.75-11.51c16.66,6.68,36.93-7.36,32-25.53-14.81-20.7-47.89-20.94-63.24-.47-1.82,2.44-1.9,7.65-.69,10.73C1544.6-12.09,1555.8-7.41,1570.75-11.51ZM2426,959c24.93,0,25.22.17,34.71-15.93,1.66-2.82,1.28-9-.74-11.59-17.41-27.22-74.25-11.1-62.78,12.59C2404,958.17,2414.7,961.7,2426,959Zm-285.85,0c24.84,0,25.08.13,34.66-16,1.59-2.68,1.59-8.31-.16-10.72-15-20.68-48.06-20.73-63.27-.08-1.76,2.4-1.54,7.63-.3,10.76C2116.85,957.64,2128,962.41,2140.1,959ZM2712.32-55.31c-8.8,5.22-18.83,10.7-28.32,17-4.86,3.23-3.89,7.31-.93,12.74,6.45,11.83,14.84,17.4,28.3,15,4.41-.81,9.09-.11,13.65-.13,9.4,0,24.58-10.58,23.71-19.39C2744.13-46,2728.94-50.29,2712.32-55.31ZM2251.5,47.5c7,29,28.59,22,47.29,22.87C2314,71,2313.13,55.61,2321.61,50,2304.08,20.94,2269.88,20.65,2251.5,47.5Zm-217.12-.72c-14.36-25-56.32-24.75-70,2.18,14.18,21.2,14.18,21.38,23.45,21.23C2006.15,69.91,2027.38,76.38,2034.38,46.78ZM1567.89,959c24.86,0,25.15.17,34.68-15.87,1.68-2.82,1.38-9-.61-11.54-17.49-27.23-74-11.46-62.85,12.41C1546.07,957.84,1556.51,961.92,1567.89,959Zm288.44-.81c17,6.89,38-7.93,31.87-26.33-15.48-20.13-47.17-20.14-62.51,0-1.92,2.53-1.66,8.26-.29,11.63C1831.09,957.5,1841.82,962.44,1856.33,958.19Zm569-484.12c26.1,0,26.34.14,35.65-16.09,1.53-2.67,1.29-8.29-.52-10.71-15.08-20.17-46.71-20.45-62.5-.49-2,2.53-2,8.32-.68,11.61C2402.94,472.16,2413.3,477.85,2425.28,474.07Zm-676-426c-15-26-55.57-26.27-70-.68,5.72,19.71,18,23,35.16,23.67C1732.87,71.71,1742.47,64.25,1749.26,48Zm858.25.88c-16.44-23.24-42.09-27.82-61.61-11-3.73,3.21-9.21,9.92-8.12,12.25,3.42,7.35,8.61,17.5,14.91,19,12.22,3,26,2.68,38.47.11C2597.61,67.36,2602.66,55.68,2607.51,48.9ZM2142.68-11.53c15.33,4.63,26.47-.84,32.63-15.63,1.16-2.78,1.12-7.53-.5-9.81-14.73-20.71-47.74-21.08-63.21-.66C2104.91-19.67,2126-5.1,2142.68-11.53Zm286.41.8c22.17,0,22.41.12,31.8-16,1.54-2.65,1.35-8.26-.44-10.67-15.27-22.25-58.3-20.37-65.84,7.18C2398-16,2415.73-8.53,2429.09-10.73Zm-572.38,484c16.68,6.64,37-7.41,32-25.61-14.77-20.69-47.8-20.89-63.19-.4-1.82,2.42-1.89,7.64-.67,10.71C1830.64,472.61,1841.77,477.41,1856.71,473.29Zm282.7.78c4.28,0,5.87-.3,7.31.05,15.29,5,32.92-11.37,28.36-26.08-14.28-21.1-49-21.27-64-.31-1.63,2.28-1.64,7.07-.47,9.86C2116.52,471.68,2126.86,478,2139.41,474.07Zm-565.61,0c12.18,3.66,23.17-1.39,29.07-15.9,1.26-3.08,1.4-8.31-.38-10.72-15.17-20.57-48.19-20.46-63.38-.06-9.12,11.71,11.05,26.45,21.64,26.68Zm1144.13,0c12.29,3.53,23.27-1.59,29.08-16.1,1.23-3.07,1.2-8.33-.62-10.73-15.26-20.13-46.74-20.25-62.66-.49-10.15,12.11,10,27.21,21.25,27.32Zm-611.18,303c9,5.8,8.26,21.08,23.56,20.27,18.65-1,40.19,6,47.17-22.86C2162.92,748.09,2121.42,748.67,2106.75,777.08Zm358.47-.21c-15-28-56.21-28.7-70.79-2.56,7.28,30.17,29.71,22,48.48,22.83C2457.19,797.74,2456.4,782.6,2465.22,776.87Zm-573.72-1.81c-20.26-35.67-77.21-16.2-66.46,7.29,6.46,13,16.24,14.88,29.45,15.34C1872.18,798.31,1885.91,795.43,1891.5,775.06Zm502.78-484.57c6.19,20.39,19.94,23,37.63,22.63,13.76-.29,23.61-3.25,28.75-16.26,1.3-3.31,1.37-9-.58-11.45C2442.08,262.75,2409.81,265.8,2394.28,290.49ZM1679.41,855.24c7.17,30.43,30.11,22.38,49.23,22.73,13.9.25,13.07-14.89,21.17-20.5C1729.76,828.83,1698.83,828.73,1679.41,855.24Zm-74.06-80.37c-18.62-35.55-79.56-16.12-65.24,9.19,6.5,11.82,15.25,13.07,27,13.5C1584.66,798.2,1599.86,797,1605.35,774.87Zm1001.72,80.76c-14.53-25.75-56.19-26-70.05.06C2546,887.75,2597.51,887.41,2607.07,855.63ZM2606.53-114c-19-27.15-52.81-26.72-70.46,2.82,9,4.83,7.78,20.61,23.21,19.76C2578-92.42,2599.54-85.42,2606.53-114Zm-641.2,970c6.77,27.24,27.91,21.33,46.73,22.27,16,.79,15.21-14.7,23.62-20.78C2016.48,828.6,1982.39,828.74,1965.33,856.06Zm-215.17-967.9c-21.29-29.37-55-28.7-70.72-1.69,6.92,28,28.38,21.26,47.14,22.13C1741.8-90.7,1741.28-105.82,1750.16-111.84Zm501,968c9.12,31.35,60.91,30.59,69.79.43C2303.33,828.74,2269.49,828.59,2251.11,856.19ZM2680.38,775c5.59,20.54,19.41,25,37,22.17,13.76,2.64,22.84-2.38,29.42-14.89C2757.9,759.35,2700.3,739.06,2680.38,775ZM2251.29-113.87c8,30.42,31.61,23.08,50.68,21.31,7.54-.7,14.08-12.31,20.72-18.6C2301.12-140.77,2270.12-140.65,2251.29-113.87Zm-285.88,0c7.56,29.22,29.75,21.69,48.62,22.27,14.24.43,13.48-14.64,21.69-20.1C2017.21-140.78,1983.35-140.93,1965.41-113.86ZM1678.8,372c12.53,21.51,12.53,20.92,47.21,21.43,15.78.23,15.51-14.33,23.64-20.69C1730.35,343.82,1696.76,343.94,1678.8,372Zm212.52-81.76c-15.81-27.3-53.09-27.31-69.52,1.43,13.16,20.59,13.16,20.8,22.59,20.73C1862.7,312.28,1883.8,318.75,1891.32,290.25Zm359.83,81.2c9.15,31.5,60.79,30,69.87.45C2303,343.91,2268.9,343.91,2251.15,371.45Zm-216.67-.61c-18.55-27.06-52.16-26.78-70.26,2.3,8.15,5.52,7.52,20.48,21.76,20C2004.88,392.6,2027.07,400.1,2034.48,370.84ZM2680,291c6.3,17,17.5,25.38,35.7,21.56,14.46,2.49,25.53-1.52,30.93-15.74,1.34-3.27,1.3-9-.69-11.48C2727.77,262.7,2695.17,265.92,2680,291ZM2536.46,372c14.84,22.91,14.84,22.92,50.39,21.17,13.73-.68,13.05-15,21.07-20.64C2587.26,344.05,2556.3,344.1,2536.46,372ZM1535.65,291.36c13.15,21.05,13.15,21.19,24,21.11,18.44-.15,39.55,5.66,45.7-22.27C1589.32,263.36,1554.65,262.87,1535.65,291.36Zm641.68-1.4c-18.25-27.07-53.11-26.61-69.51,1.65,12.9,20.78,12.9,20.93,23.62,20.85C2149.84,312.33,2171,318.32,2177.33,290Z"/><path class="cls-5" d="M1648.55,1102.62c36-34.92,96.1-32.12,132.75,0h-25.17c-22-15.65-61.79-15.65-84.69,0Z"/><path class="cls-5" d="M1426.54,1077.1c25.43,1.46,49,8.15,68.66,25.52H1470c-12.94-9.87-28.1-11.2-43.49-11.6Z"/></g></g></svg>