<svg xmlns="http://www.w3.org/2000/svg" viewBox="0 0 119.55 121.1"><defs><style>.cls-1{fill:#581e7f}</style></defs><g id="Capa_2" data-name="Capa 2"><g id="Capa_1-2" data-name="Capa 1"><path class="cls-1" d="M83.68,104.39a3,3,0,0,1-1.41-5.65A49.23,49.23,0,1,0,11,45.45a3,3,0,1,1-5.88-1.19,55.22,55.22,0,1,1,80,59.78A3.09,3.09,0,0,1,83.68,104.39Z"/><path class="cls-1" d="M59,94.93a2.88,2.88,0,0,1-1.22-.26L1.79,69.9a3,3,0,0,1,0-5.48l56-24.78a3,3,0,0,1,2.38,0l57.54,24.24a3,3,0,0,1,0,5.51L60.22,94.68A3,3,0,0,1,59,94.93ZM10.42,67.16,59,88.65l49.95-22L59,45.65Z"/><path class="cls-1" d="M61.89,121.1A68.39,68.39,0,0,1,45.28,119a81,81,0,0,1-25.76-11.44,3,3,0,0,1-1.24-2.43V77.32a3,3,0,0,1,6,0v26.2a78.22,78.22,0,0,0,22.65,9.7c17.94,4.42,34.2,1.2,48.34-9.57V75.13a3,3,0,0,1,6,0v30a3,3,0,0,1-1.13,2.35A60.51,60.51,0,0,1,61.89,121.1Z"/><path class="cls-1" d="M59.77,114a3,3,0,0,1-3-3V78.86a3,3,0,0,1,6,0V111A3,3,0,0,1,59.77,114Z"/><path class="cls-1" d="M59.77,92a3,3,0,0,1-3-3V68.58a3,3,0,0,1,6,0V89A3,3,0,0,1,59.77,92Z"/><path class="cls-1" d="M59.77,107.55a9.87,9.87,0,1,1,9.86-9.87A9.88,9.88,0,0,1,59.77,107.55Zm0-13.73a3.87,3.87,0,1,0,3.86,3.86A3.87,3.87,0,0,0,59.77,93.82Z"/></g></g></svg>