<svg xmlns="http://www.w3.org/2000/svg" viewBox="0 0 92.03 124.5"><defs><style>.cls-1{fill:#581e7f;}</style></defs><g id="Capa_2" data-name="Capa 2"><g id="Capa_1-2" data-name="Capa 1"><path class="cls-1" d="M31.06,89.94a3,3,0,0,1-.42,0,2.81,2.81,0,0,1-2.37-3.2c1.46-9.74-1.81-14.09-5.6-19.12-4.14-5.5-8.83-11.74-7.77-24.86,1.67-20.54,20.17-25.94,29.87-25.94h.17a2.82,2.82,0,0,1,0,5.63h0c-1.12,0-22.72.28-24.38,20.76-.89,11,2.77,15.87,6.65,21,4.17,5.54,8.48,11.27,6.67,23.35A2.81,2.81,0,0,1,31.06,89.94Z"/><path class="cls-1" d="M58.79,89.94A2.81,2.81,0,0,1,56,87.55C54.19,75.47,58.5,69.74,62.67,64.2c3.88-5.15,7.55-10,6.66-21C67.65,22.51,45.85,22.44,44.94,22.42h0a2.82,2.82,0,0,1,0-5.63c9.62-.08,28.37,5.28,30,25.94C76,55.85,71.31,62.09,67.17,67.59c-3.79,5-7.06,9.38-5.59,19.12a2.81,2.81,0,0,1-2.37,3.2A3,3,0,0,1,58.79,89.94Z"/><path class="cls-1" d="M60,113.3H28.62a2.82,2.82,0,0,1-2.82-2.81V88.34a2.82,2.82,0,0,1,2.82-2.81H60a2.81,2.81,0,0,1,2.81,2.81v22.15A2.81,2.81,0,0,1,60,113.3Zm-28.57-5.63H57.19V91.16H31.44Z"/><path class="cls-1" d="M60,99H42.73a2.82,2.82,0,0,1,0-5.64H60A2.82,2.82,0,0,1,60,99Z"/><path class="cls-1" d="M60,106.11H38.6a2.82,2.82,0,1,1,0-5.63H60a2.82,2.82,0,0,1,0,5.63Z"/><path class="cls-1" d="M64.39,50a2.82,2.82,0,0,1-2.82-2.73c0-.62-.63-15.07-12.55-16.26a2.82,2.82,0,0,1,.56-5.61C63.08,26.79,67,40.23,67.2,47.15A2.81,2.81,0,0,1,64.47,50Z"/><path class="cls-1" d="M44.51,124.5c-12.19,0-15.85-9-16.08-13.88a2.82,2.82,0,0,1,5.63-.28c0,.91.85,8.71,10.81,8.52a2.82,2.82,0,1,1,.1,5.63Z"/><path class="cls-1" d="M45,124.5H44.5a2.82,2.82,0,0,1,.11-5.63c10,.16,10.76-7.63,10.81-8.53a2.82,2.82,0,0,1,5.63.29C60.82,115.46,57.15,124.5,45,124.5Z"/><path class="cls-1" d="M40.3,88.24a2.82,2.82,0,0,1-2.82-2.82V57.65a.37.37,0,0,0,0-.09,16.24,16.24,0,0,0-4,3.86,2.82,2.82,0,1,1-4.35-3.58c2.54-3.08,6.37-7.05,10.21-5.9,2.49.74,3.61,3.27,3.82,5.2,0,.1,0,.2,0,.3v28A2.82,2.82,0,0,1,40.3,88.24Z"/><path class="cls-1" d="M49.68,88.24a2.82,2.82,0,0,1-2.82-2.82v-28c0-.1,0-.2,0-.3.2-1.93,1.33-4.46,3.82-5.2,3.83-1.15,7.66,2.82,10.2,5.9a2.81,2.81,0,1,1-4.34,3.58,16.23,16.23,0,0,0-4.05-3.86.3.3,0,0,1,0,.1V85.42A2.81,2.81,0,0,1,49.68,88.24Z"/><path class="cls-1" d="M67.94,86a3.1,3.1,0,0,1-2.65-1.5,3.07,3.07,0,0,1,1.07-4.21,39.88,39.88,0,1,0-41.85-.72,3.07,3.07,0,1,1-3.32,5.17,46,46,0,1,1,48.31.83A3.06,3.06,0,0,1,67.94,86Z"/></g></g></svg>